<svg width="34" height="32" viewBox="0 0 34 32" fill="none" xmlns="http://www.w3.org/2000/svg">
<path d="M20.0402 16.6021C18.2458 14.6748 16.5401 12.681 15.1001 10.4657C14.0811 8.87075 13.1729 7.07638 12.0874 5.96874C11.1127 4.94971 10.4924 3.86423 10.1823 2.75659C8.01131 3.37687 6.50494 3.90854 4.55551 5.94659C-9.02403 19.9471 10.6475 41.5682 25.7555 27.3461C26.8632 26.305 26.4644 25.0423 27.129 23.9125C25.0245 21.4757 22.2554 18.9724 20.0402 16.6021Z" fill="#DE814B"/>
<path d="M25.7568 27.3462C11.7564 38.7106 -7.73792 20.6561 4.55677 5.92449C4.75614 5.70296 4.97766 5.45928 5.19919 5.23776C8.01257 2.44651 11.1361 1.1395 14.1931 0.940122C14.5033 0.917969 14.747 1.16165 14.7691 1.44964C14.8134 3.26616 15.9875 4.48456 17.7154 4.72824C17.9812 4.77255 18.1363 5.01623 18.0698 5.28206C17.8926 5.85803 17.8262 6.47831 17.8262 7.12074C17.8926 10.3772 20.5952 13.0577 23.8517 13.0798C24.5162 13.0798 25.1587 12.9912 25.7789 12.7918C26.0226 12.7032 26.2885 12.8583 26.3328 13.1241C26.7315 15.2951 28.7031 14.8964 29.6335 14.5862C29.8993 14.4976 30.1873 14.6527 30.2538 14.9185C32.0703 21.5422 25.7568 27.3462 25.7568 27.3462Z" fill="#F6B059"/>
<path d="M16.2523 13.3459C16.2523 14.9852 14.9232 16.0929 13.2839 16.0929C11.6446 16.0929 10.3154 14.9852 10.3154 13.3459C10.3154 11.7066 11.6446 10.3774 13.2839 10.3774C14.9232 10.3774 16.2523 11.6845 16.2523 13.3459Z" fill="#6D420D"/>
<path d="M25.5783 20.5012C25.5783 21.7639 24.5593 22.7829 23.2966 22.7829C22.0339 22.7829 21.1699 22.0297 21.1699 20.767C21.1699 19.5043 22.0339 18.1973 23.2966 18.1973C24.5593 18.1973 25.5783 19.2384 25.5783 20.5012Z" fill="#6D420D"/>
<path d="M8.52208 17.7098C8.52208 18.6845 7.8132 19.2383 6.83848 19.2383C5.86377 19.2383 5.02197 18.6845 5.02197 17.7098C5.02197 16.7351 5.79731 15.9597 6.77203 15.9597C7.74674 15.9597 8.52208 16.7351 8.52208 17.7098Z" fill="#6D420D"/>
<path d="M13.8816 23.6464C13.8816 24.0894 13.5272 24.4439 13.0841 24.4439C12.6411 24.4439 12.2866 24.0894 12.2866 23.6464C12.2866 23.2033 12.6411 22.8489 13.0841 22.8489C13.5272 22.8489 13.8816 23.2033 13.8816 23.6464Z" fill="#6D420D"/>
<path d="M8.47644 8.33936C8.96582 8.33936 9.36254 7.94263 9.36254 7.45325C9.36254 6.96386 8.96582 6.56714 8.47644 6.56714C7.98705 6.56714 7.59033 6.96386 7.59033 7.45325C7.59033 7.94263 7.98705 8.33936 8.47644 8.33936Z" fill="#6D420D"/>
<path d="M24.4916 2.13623C24.5802 3.19956 23.6498 4.06352 22.4092 4.06352C21.1687 4.06352 20.2161 3.11095 20.2826 1.93685C20.349 0.762758 21.2794 -0.101198 22.3649 0.00956569C23.4504 0.120329 24.403 1.05074 24.4916 2.13623Z" fill="#F6B059"/>
<path d="M22.8974 3.64274C23.3847 3.64274 23.8278 3.50982 24.1822 3.26614C23.8056 3.7535 23.1854 4.06364 22.4322 4.06364C21.1916 4.06364 20.2391 3.11107 20.3055 1.95913C20.3498 1.25024 20.7043 0.652115 21.2138 0.319824C20.9701 0.652115 20.7929 1.07302 20.7707 1.53823C20.7264 2.66802 21.679 3.62058 22.8974 3.64274Z" fill="#DE814B"/>
<path d="M24.3822 8.16157C24.3379 8.87046 23.7397 9.46858 23.053 9.53504C22.3663 9.57934 21.8125 9.00337 21.8346 8.25018C21.8346 7.49699 22.4327 6.87671 23.1638 6.87671C23.8948 6.87671 24.4265 7.45268 24.3822 8.16157Z" fill="#F6B059"/>
<path d="M23.3179 9.22494C23.5837 9.20278 23.8496 9.09202 24.0711 8.93695C23.8274 9.26924 23.4508 9.49077 23.0299 9.53508C22.3432 9.57938 21.8115 9.00341 21.8115 8.25022C21.8115 7.80716 22.033 7.38626 22.3653 7.14258C22.2103 7.36411 22.0995 7.65209 22.0995 7.94008C22.0774 8.69327 22.6312 9.26924 23.3179 9.22494Z" fill="#DE814B"/>
<path d="M33.441 8.71586C33.3745 9.55766 32.6878 10.2666 31.8681 10.3109C31.0706 10.3552 30.4282 9.69058 30.4282 8.80447C30.4504 7.91836 31.1371 7.20947 32.0011 7.20947C32.865 7.20947 33.5074 7.89621 33.441 8.71586Z" fill="#F6B059"/>
<path d="M32.2004 9.97867C32.5327 9.95651 32.8429 9.8236 33.0865 9.62422C32.7985 10.023 32.3555 10.2888 31.8681 10.311C31.0706 10.3553 30.4282 9.69068 30.4282 8.80457C30.4282 8.27291 30.6941 7.8077 31.0706 7.49756C30.8713 7.76339 30.7605 8.09568 30.7605 8.45013C30.7605 9.35839 31.4029 10.023 32.2004 9.97867Z" fill="#DE814B"/>
</svg>
