<svg width="22" height="23" viewBox="0 0 22 23" fill="none" xmlns="http://www.w3.org/2000/svg">
<path fill-rule="evenodd" clip-rule="evenodd" d="M6.875 0.265869H15.125C18.9214 0.265869 22 3.34449 22 7.14087V15.3909C22 19.1872 18.9214 22.2659 15.125 22.2659H6.875C3.07862 22.2659 0 19.1872 0 15.3909V7.14087C0 3.34449 3.07862 0.265869 6.875 0.265869ZM15.125 20.2034C17.7787 20.2034 19.9375 18.0446 19.9375 15.3909V7.14087C19.9375 4.48712 17.7787 2.32837 15.125 2.32837H6.875C4.22125 2.32837 2.0625 4.48712 2.0625 7.14087V15.3909C2.0625 18.0446 4.22125 20.2034 6.875 20.2034H15.125Z" fill="white"/>
<path fill-rule="evenodd" clip-rule="evenodd" d="M5.5 11.2659C5.5 8.22849 7.96263 5.76587 11 5.76587C14.0374 5.76587 16.5 8.22849 16.5 11.2659C16.5 14.3032 14.0374 16.7659 11 16.7659C7.96263 16.7659 5.5 14.3032 5.5 11.2659ZM7.5625 11.2659C7.5625 13.1606 9.10525 14.7034 11 14.7034C12.8948 14.7034 14.4375 13.1606 14.4375 11.2659C14.4375 9.36974 12.8948 7.82837 11 7.82837C9.10525 7.82837 7.5625 9.36974 7.5625 11.2659Z" fill="white"/>
<circle cx="16.9126" cy="5.35348" r="0.732875" fill="white"/>
</svg>
