<svg width="21" height="22" viewBox="0 0 21 22" fill="none" xmlns="http://www.w3.org/2000/svg">
<path d="M17.893 18.5862H14.7815V13.7614C14.7815 12.6109 14.7607 11.1298 13.1631 11.1298C11.5425 11.1298 11.2946 12.3833 11.2946 13.6776V18.5859H8.18302V8.66412H11.1701V10.02H11.2119C11.5109 9.51394 11.9428 9.09761 12.4618 8.81538C12.9808 8.53314 13.5674 8.39558 14.1592 8.41732C17.3128 8.41732 17.8943 10.4713 17.8943 13.1433L17.893 18.5862ZM4.67217 7.30788C4.31505 7.30794 3.96591 7.20315 3.66893 7.00675C3.37196 6.81034 3.14049 6.53115 3.00376 6.20448C2.86704 5.87782 2.8312 5.51834 2.90081 5.17151C2.97042 4.82468 3.14234 4.50608 3.39483 4.256C3.64731 4.00591 3.96902 3.83557 4.31927 3.76653C4.66952 3.69748 5.03258 3.73282 5.36255 3.86808C5.69252 4.00334 5.97456 4.23245 6.17303 4.52643C6.37149 4.82041 6.47746 5.16606 6.47752 5.51967C6.47756 5.75446 6.43089 5.98696 6.34019 6.20389C6.24948 6.42082 6.11653 6.61794 5.94889 6.78399C5.78125 6.95004 5.5822 7.08177 5.36314 7.17166C5.14408 7.26155 4.9093 7.30784 4.67217 7.30788ZM6.22794 18.5862H3.11316V8.66412H6.22794V18.5862ZM19.4442 0.871046H1.54962C1.14346 0.866507 0.752078 1.02182 0.46151 1.30284C0.170942 1.58387 0.00495693 1.96762 0 2.36977V20.1616C0.00478727 20.564 0.170675 20.948 0.461233 21.2293C0.751791 21.5107 1.14326 21.6663 1.54962 21.662H19.4442C19.8514 21.667 20.244 21.5119 20.5357 21.2306C20.8274 20.9492 20.9944 20.5648 21 20.1616V2.36849C20.9942 1.96554 20.8271 1.58135 20.5354 1.30033C20.2436 1.01931 19.8512 0.864447 19.4442 0.869761" fill="white"/>
</svg>
