<svg width="25" height="25" viewBox="0 0 25 25" fill="none" xmlns="http://www.w3.org/2000/svg">
<g clip-path="url(#clip0_1229_1218)">
<path d="M12.0767 0.265869C5.4495 0.265869 0.0766602 5.63871 0.0766602 12.2659C0.0766602 17.3523 3.23715 21.698 7.70135 23.4461C7.59271 22.498 7.50382 21.0362 7.74086 19.9992C7.95814 19.0609 9.14333 14.0338 9.14333 14.0338C9.14333 14.0338 8.78777 13.3128 8.78777 12.256C8.78777 10.5869 9.75567 9.34241 10.9606 9.34241C11.9878 9.34241 12.4816 10.1128 12.4816 11.0313C12.4816 12.0585 11.8297 13.5992 11.4841 15.0313C11.1976 16.2264 12.0865 17.2041 13.2618 17.2041C15.3952 17.2041 17.0347 14.9523 17.0347 11.7128C17.0347 8.83871 14.9705 6.83377 12.0174 6.83377C8.60012 6.83377 6.59518 9.3918 6.59518 12.0387C6.59518 13.0659 6.99024 14.172 7.48407 14.7745C7.58283 14.893 7.59271 15.0017 7.56308 15.1202C7.47419 15.4955 7.26678 16.3153 7.22728 16.4832C7.1779 16.7004 7.0495 16.7498 6.82234 16.6412C5.32111 15.9399 4.38283 13.7572 4.38283 11.9893C4.38283 8.20661 7.12851 4.73007 12.3137 4.73007C16.4717 4.73007 19.7112 7.69303 19.7112 11.6634C19.7112 15.8017 17.1038 19.1301 13.489 19.1301C12.2742 19.1301 11.1285 18.498 10.7433 17.7474C10.7433 17.7474 10.1409 20.0387 9.99271 20.6017C9.72604 21.6486 8.99518 22.9523 8.50135 23.7523C9.62728 24.098 10.8125 24.2856 12.0569 24.2856C18.6841 24.2856 24.0569 18.9128 24.0569 12.2856C24.0767 5.63871 18.7038 0.265869 12.0767 0.265869Z" fill="white"/>
</g>
<defs>
<clipPath id="clip0_1229_1218">
<rect width="24" height="24" fill="white" transform="translate(0.0766602 0.265869)"/>
</clipPath>
</defs>
</svg>
