<svg width="24" height="25" viewBox="0 0 24 25" fill="none" xmlns="http://www.w3.org/2000/svg">
<g clip-path="url(#clip0_465_21501)">
<path fill-rule="evenodd" clip-rule="evenodd" d="M23.1429 0.499969C18.7714 0.499969 15.9429 0.499969 13.1144 3.32854L13.0287 3.41426L10.5429 6.58568H10.4572C4.34883 5.70158 2.23483 9.03794 1.92442 9.52781C1.9038 9.56036 1.89113 9.58034 1.8858 9.58568C1.71437 10.0143 1.80009 10.4428 2.22866 10.7L6.42866 13.1857L11.4001 18.1571L13.8858 22.3571C14.0572 22.6143 14.3144 22.7857 14.6572 22.7857C14.8287 22.7857 14.9144 22.7857 15.0001 22.7C15.1715 22.6143 18.9429 20.6429 18 14.1286V14.0429L21.1714 11.5571C21.1714 11.5571 21.2571 11.5571 21.2571 11.4714C24 8.55711 24 4.8714 24 1.35711C24 0.842826 23.6571 0.499969 23.1429 0.499969ZM3.85723 9.6714C4.54294 8.89997 6.17151 7.8714 9.25723 8.12854L6.6858 11.3857L3.85723 9.6714ZM14.8287 20.6429L13.1144 17.8143L16.3715 15.2429C16.6286 18.3286 15.5144 19.9571 14.8287 20.6429ZM19.9714 10.1857L12.0001 16.5286L7.97151 12.5L14.3144 4.52854C16.4572 2.38568 18.6857 2.21426 22.2857 2.21426C22.2857 5.21426 22.1143 8.04283 19.9714 10.1857ZM0.857143 19.3571C1.11429 19.3571 1.28571 19.2714 1.45714 19.1L4.88571 15.6714C5.22857 15.3286 5.22857 14.8143 4.88571 14.4714C4.54286 14.1286 4.02857 14.1286 3.68571 14.4714L0.257143 17.9C-0.0857143 18.2429 -0.0857143 18.7571 0.257143 19.1C0.428571 19.2714 0.6 19.3571 0.857143 19.3571ZM7.45714 17.0429C7.11429 16.7 6.6 16.7 6.25714 17.0429L0.257143 23.0429C-0.0857143 23.3857 -0.0857143 23.9 0.257143 24.2429C0.428571 24.4143 0.6 24.5 0.857143 24.5C1.11429 24.5 1.28571 24.4143 1.45714 24.2429L7.45714 18.2429C7.8 17.9 7.8 17.3857 7.45714 17.0429ZM5.4 23.0429L8.82857 19.6143C9.17143 19.2714 9.68571 19.2714 10.0286 19.6143C10.3714 19.9571 10.3714 20.4714 10.0286 20.8143L6.6 24.2429C6.42857 24.4143 6.25714 24.5 6 24.5C5.74286 24.5 5.57143 24.4143 5.4 24.2429C5.05714 23.9 5.05714 23.3857 5.4 23.0429ZM17.1429 9.92854C16.5429 9.92854 15.8571 9.6714 15.3429 9.15711C14.8286 8.72854 14.5714 8.04283 14.5714 7.35711C14.5714 6.6714 14.8286 5.98568 15.3429 5.55711C16.2857 4.52854 17.9143 4.52854 18.9429 5.55711C19.4571 5.98568 19.7143 6.6714 19.7143 7.35711C19.7143 8.04283 19.4571 8.64283 18.9429 9.15711C18.4286 9.6714 17.7429 9.92854 17.1429 9.92854ZM17.1429 6.49997C16.8857 6.49997 16.7143 6.58568 16.5429 6.75711C16.3714 6.92854 16.2857 7.09997 16.2857 7.35711C16.2857 7.61426 16.3714 7.78568 16.5429 7.95711C16.8857 8.29997 17.4 8.29997 17.7429 7.95711C17.9143 7.78568 18 7.61426 18 7.35711C18 7.09997 17.9143 6.92854 17.7429 6.75711C17.5714 6.58568 17.4 6.49997 17.1429 6.49997Z" fill="white" fill-opacity="0.89"/>
</g>
<defs>
<clipPath id="clip0_465_21501">
<rect width="24" height="24" fill="white" transform="translate(0 0.499969)"/>
</clipPath>
</defs>
</svg>
