<svg width="17" height="19" viewBox="0 0 17 19" fill="none" xmlns="http://www.w3.org/2000/svg">
<g clip-path="url(#clip0_1228_1215)">
<path d="M13.6868 3.77768C12.6983 3.13432 11.9854 2.10448 11.7627 0.904614C11.7148 0.645432 11.6881 0.378437 11.6881 0.105469H8.53388L8.52881 12.7282C8.47589 14.1418 7.31065 15.2764 5.88263 15.2764C5.43853 15.2764 5.02066 15.1656 4.65249 14.9722C3.80847 14.5287 3.23092 13.6454 3.23092 12.6289C3.23092 11.169 4.42055 9.98105 5.88216 9.98105C6.15507 9.98105 6.41692 10.0261 6.66452 10.1033V6.88787C6.40818 6.85294 6.1477 6.83134 5.88216 6.83134C2.68097 6.83134 0.0766602 9.4319 0.0766602 12.6289C0.0766602 14.5903 1.05782 16.326 2.55533 17.3756C3.4983 18.0368 4.64559 18.4261 5.88263 18.4261C9.08382 18.4261 11.6881 15.8255 11.6881 12.6289V6.22796C12.9252 7.11442 14.4411 7.63692 16.0767 7.63692V4.48721C15.1958 4.48721 14.3753 4.22573 13.6868 3.77768Z" fill="white"/>
</g>
<defs>
<clipPath id="clip0_1228_1215">
<rect width="16" height="18.3206" fill="white" transform="translate(0.0766602 0.105469)"/>
</clipPath>
</defs>
</svg>
