<svg width="25" height="25" viewBox="0 0 25 25" fill="none" xmlns="http://www.w3.org/2000/svg">
<path d="M17.4562 21.0336L4.38923 4.23362C4.32036 4.14493 4.27776 4.0387 4.26627 3.927C4.25478 3.81529 4.27488 3.70261 4.32426 3.60176C4.37364 3.50091 4.45033 3.41594 4.54561 3.35652C4.64089 3.2971 4.75094 3.26561 4.86323 3.26563H7.34323C7.43452 3.26576 7.52459 3.28673 7.60655 3.32693C7.68852 3.36714 7.76023 3.42552 7.81623 3.49763L20.8832 20.2976C20.9521 20.3863 20.9947 20.4926 21.0062 20.6043C21.0177 20.716 20.9976 20.8286 20.9482 20.9295C20.8988 21.0303 20.8221 21.1153 20.7268 21.1747C20.6316 21.2342 20.5215 21.2656 20.4092 21.2656H17.9292C17.8379 21.2655 17.7479 21.2445 17.6659 21.2043C17.5839 21.1641 17.5122 21.1057 17.4562 21.0336Z" stroke="white" stroke-width="1.5"/>
<path d="M20.6362 3.26562L4.63623 21.2656" stroke="white" stroke-width="1.5" stroke-linecap="round"/>
</svg>
