<svg width="27" height="19" viewBox="0 0 27 19" fill="none" xmlns="http://www.w3.org/2000/svg">
<g clip-path="url(#clip0_1227_1211)">
<path d="M10.6367 13.0646V5.46717L17.3371 9.26604L10.6367 13.0646ZM25.541 3.07663C25.2462 1.97021 24.3775 1.09895 23.2746 0.803257C21.2754 0.265869 13.2586 0.265869 13.2586 0.265869C13.2586 0.265869 5.2419 0.265869 3.24264 0.803257C2.13965 1.09895 1.27093 1.97021 0.976132 3.07663C0.44043 5.08193 0.44043 9.26587 0.44043 9.26587C0.44043 9.26587 0.44043 13.4498 0.976132 15.4551C1.27093 16.5615 2.13965 17.4328 3.24264 17.7286C5.2419 18.2659 13.2586 18.2659 13.2586 18.2659C13.2586 18.2659 21.2754 18.2659 23.2746 17.7286C24.3775 17.4328 25.2462 16.5615 25.541 15.4551C26.0768 13.4498 26.0768 9.26587 26.0768 9.26587C26.0768 9.26587 26.0768 5.08193 25.541 3.07663Z" fill="white"/>
</g>
<defs>
<clipPath id="clip0_1227_1211">
<rect width="25.6364" height="18" fill="white" transform="translate(0.44043 0.265869)"/>
</clipPath>
</defs>
</svg>
