<svg width="20" height="21" viewBox="0 0 20 21" fill="none" xmlns="http://www.w3.org/2000/svg">
<path d="M4.16667 14.6667H3.33334C2.89131 14.6667 2.46739 14.4911 2.15483 14.1785C1.84227 13.866 1.66667 13.442 1.66667 13V4.66667C1.66667 4.22464 1.84227 3.80072 2.15483 3.48816C2.46739 3.17559 2.89131 3 3.33334 3H16.6667C17.1087 3 17.5326 3.17559 17.8452 3.48816C18.1577 3.80072 18.3333 4.22464 18.3333 4.66667V13C18.3333 13.442 18.1577 13.866 17.8452 14.1785C17.5326 14.4911 17.1087 14.6667 16.6667 14.6667H15.8333" stroke="#525E6F" stroke-width="1.5" stroke-linecap="round" stroke-linejoin="round"/>
<path d="M9.99999 13L14.1667 18H5.83333L9.99999 13Z" stroke="#525E6F" stroke-width="1.5" stroke-linecap="round" stroke-linejoin="round"/>
</svg>
