<svg width="20" height="21" viewBox="0 0 20 21" fill="none" xmlns="http://www.w3.org/2000/svg">
<path d="M15.8333 9.66675H4.16667C3.24619 9.66675 2.5 10.4129 2.5 11.3334V17.1667C2.5 18.0872 3.24619 18.8334 4.16667 18.8334H15.8333C16.7538 18.8334 17.5 18.0872 17.5 17.1667V11.3334C17.5 10.4129 16.7538 9.66675 15.8333 9.66675Z" stroke="#525E6F" stroke-width="1.5" stroke-linecap="round" stroke-linejoin="round"/>
<path d="M5.83334 9.66675V6.33341C5.83334 5.22835 6.27232 4.16854 7.05372 3.38714C7.83513 2.60573 8.89493 2.16675 10 2.16675C11.1051 2.16675 12.1649 2.60573 12.9463 3.38714C13.7277 4.16854 14.1667 5.22835 14.1667 6.33341V9.66675" stroke="#525E6F" stroke-width="1.5" stroke-linecap="round" stroke-linejoin="round"/>
</svg>
