<svg width="160" height="32" viewBox="0 0 160 32" fill="none" xmlns="http://www.w3.org/2000/svg">
<path d="M17.1523 3.99499C16.6385 3.10946 15.3597 3.10946 14.8459 3.99499L11.2271 10.2314C10.9733 10.6688 10.5346 10.9674 10.0345 11.0429L3.25272 12.0672C2.11368 12.2392 1.71413 13.6774 2.60121 14.4123L7.65333 18.598C8.12098 18.9854 8.34088 19.5966 8.22727 20.1931L6.90572 27.1333C6.6968 28.2304 7.84852 29.0828 8.83672 28.5625L15.2226 25.2001C15.7086 24.9442 16.2896 24.9442 16.7756 25.2001L23.1615 28.5625C24.1497 29.0828 25.3014 28.2304 25.0925 27.1333L23.7709 20.1931C23.6573 19.5966 23.8772 18.9854 24.3449 18.598L29.397 14.4123C30.2841 13.6774 29.8845 12.2392 28.7455 12.0672L21.9637 11.0429C21.4636 10.9674 21.0249 10.6688 20.7711 10.2314L17.1523 3.99499Z" fill="#FCB33B"/>
<path d="M53.1523 3.99499C52.6385 3.10946 51.3597 3.10946 50.8459 3.99499L47.2271 10.2314C46.9733 10.6688 46.5346 10.9674 46.0345 11.0429L39.2527 12.0672C38.1137 12.2392 37.7141 13.6774 38.6012 14.4123L43.6533 18.598C44.121 18.9854 44.3409 19.5966 44.2273 20.1931L42.9057 27.1333C42.6968 28.2304 43.8485 29.0828 44.8367 28.5625L51.2226 25.2001C51.7086 24.9442 52.2896 24.9442 52.7756 25.2001L59.1615 28.5625C60.1497 29.0828 61.3014 28.2304 61.0925 27.1333L59.7709 20.1931C59.6573 19.5966 59.8772 18.9854 60.3449 18.598L65.397 14.4123C66.2841 13.6774 65.8845 12.2392 64.7455 12.0672L57.9637 11.0429C57.4636 10.9674 57.0249 10.6688 56.7711 10.2314L53.1523 3.99499Z" fill="#FCB33B"/>
<path d="M89.1523 3.99499C88.6385 3.10946 87.3597 3.10946 86.8459 3.99499L83.2271 10.2314C82.9733 10.6688 82.5346 10.9674 82.0345 11.0429L75.2527 12.0672C74.1137 12.2392 73.7141 13.6774 74.6012 14.4123L79.6533 18.598C80.121 18.9854 80.3409 19.5966 80.2273 20.1931L78.9057 27.1333C78.6968 28.2304 79.8485 29.0828 80.8367 28.5625L87.2226 25.2001C87.7086 24.9442 88.2896 24.9442 88.7756 25.2001L95.1615 28.5625C96.1497 29.0828 97.3014 28.2304 97.0925 27.1333L95.7709 20.1931C95.6573 19.5966 95.8772 18.9854 96.3449 18.598L101.397 14.4123C102.284 13.6774 101.885 12.2392 100.745 12.0672L93.9637 11.0429C93.4636 10.9674 93.0249 10.6688 92.7711 10.2314L89.1523 3.99499Z" fill="#FCB33B"/>
<path d="M125.152 3.99499C124.639 3.10946 123.36 3.10946 122.846 3.99499L119.227 10.2314C118.973 10.6688 118.535 10.9674 118.034 11.0429L111.253 12.0672C110.114 12.2392 109.714 13.6774 110.601 14.4123L115.653 18.598C116.121 18.9854 116.341 19.5966 116.227 20.1931L114.906 27.1333C114.697 28.2304 115.849 29.0828 116.837 28.5625L123.223 25.2001C123.709 24.9442 124.29 24.9442 124.776 25.2001L131.161 28.5625C132.15 29.0828 133.301 28.2304 133.092 27.1333L131.771 20.1931C131.657 19.5966 131.877 18.9854 132.345 18.598L137.397 14.4123C138.284 13.6774 137.885 12.2392 136.745 12.0672L129.964 11.0429C129.464 10.9674 129.025 10.6688 128.771 10.2314L125.152 3.99499Z" fill="#FCB33B"/>
<g clip-path="url(#clip0_1945_4005)">
<path d="M161.152 3.99499C160.639 3.10946 159.36 3.10946 158.846 3.99499L155.227 10.2314C154.973 10.6688 154.535 10.9674 154.034 11.0429L147.253 12.0672C146.114 12.2392 145.714 13.6774 146.601 14.4123L151.653 18.598C152.121 18.9854 152.341 19.5966 152.227 20.1931L150.906 27.1333C150.697 28.2304 151.849 29.0828 152.837 28.5625L159.223 25.2001C159.709 24.9442 160.29 24.9442 160.776 25.2001L167.161 28.5625C168.15 29.0828 169.301 28.2304 169.092 27.1333L167.771 20.1931C167.657 19.5966 167.877 18.9854 168.345 18.598L173.397 14.4123C174.284 13.6774 173.885 12.2392 172.745 12.0672L165.964 11.0429C165.464 10.9674 165.025 10.6688 164.771 10.2314L161.152 3.99499Z" fill="#FCB33B"/>
</g>
<defs>
<clipPath id="clip0_1945_4005">
<rect width="16" height="32" fill="white" transform="translate(144)"/>
</clipPath>
</defs>
</svg>
