<svg width="100" height="27" viewBox="0 0 100 27" fill="none" xmlns="http://www.w3.org/2000/svg">
<g clip-path="url(#clip0_1383_7863)">
<mask id="mask0_1383_7863" style="mask-type:luminance" maskUnits="userSpaceOnUse" x="0" y="0" width="100" height="27">
<path d="M99.7244 0.159424H0.271835V26.1594H99.7244V0.159424Z" fill="white"/>
</mask>
<g mask="url(#mask0_1383_7863)">
<path d="M1.93268 25.8278C1.50592 25.8278 1.2341 25.8115 0.848103 25.8115C0.437648 25.8115 0.271835 25.7544 0.271835 25.6076C0.271835 25.4907 0.380565 25.3168 0.557251 25.0694C1.06285 24.36 1.42437 23.5445 1.51135 22.4735C1.59834 21.3916 1.61737 20.4674 1.62824 19.3203C1.63639 18.4532 1.68532 17.5372 1.68532 16.6945C1.68532 15.2429 1.60921 13.8784 1.64183 12.2094C1.6527 11.6685 1.65814 11.22 1.65814 10.8313C1.65814 9.84722 1.63368 9.22478 1.63368 8.33863C1.63368 6.94685 1.61465 5.47902 1.58474 4.10359C1.56029 2.92116 0.989455 1.73056 0.37241 0.909652C0.282708 0.790052 0.288145 0.673167 0.467549 0.621521C0.570842 0.59162 0.709473 0.586184 0.823639 0.586184C1.41894 0.586184 2.05772 0.597057 2.69651 0.60793C2.90038 0.610648 3.10424 0.613366 3.30812 0.613366C3.95505 0.613366 4.602 0.586184 5.24894 0.586184C5.6757 0.586184 5.94753 0.602494 6.33352 0.602494C6.74398 0.602494 6.90977 0.659577 6.90977 0.806362C6.90977 0.923244 6.80109 1.09722 6.62437 1.34457C6.11878 2.05404 5.75725 2.86951 5.67027 3.9405C5.58328 5.01964 5.56426 5.94656 5.55338 7.09369C5.54794 7.51768 5.54794 7.93089 5.54794 8.34403C5.54794 8.87137 5.55067 9.39332 5.55338 9.91521C5.55338 10.0891 5.65939 10.2359 5.80074 10.2359C6.32536 10.2333 6.72223 10.2359 7.4154 10.2278C7.93456 10.2278 8.45644 10.2278 8.97566 10.2278C9.32088 10.2278 9.66882 10.2278 10.014 10.2305C10.15 10.2305 10.2532 10.0864 10.2532 9.91794C10.245 9.38513 10.2342 8.91486 10.2342 8.33044C10.2342 6.94419 10.2151 5.47631 10.1852 4.10087C10.1608 2.91844 9.58998 1.72785 8.97293 0.906935C8.8805 0.787334 8.88869 0.67045 9.06809 0.618803C9.17138 0.588902 9.31002 0.583466 9.42416 0.583466C10.1799 0.583466 10.9328 0.602494 11.6884 0.602494C12.4441 0.602494 13.1292 0.583466 13.8495 0.583466C14.2762 0.583466 14.548 0.599775 14.934 0.599775C15.3445 0.599775 15.5103 0.656858 15.5103 0.803643C15.5103 0.920527 15.4016 1.09449 15.2249 1.34186C14.7193 2.05132 14.3578 2.86679 14.2708 3.93778C14.1838 5.01692 14.1648 5.94384 14.1539 7.09096C14.143 8.1021 14.0941 8.98558 14.0941 9.95596C14.0941 11.2607 14.1702 12.696 14.1376 14.2046C14.1267 14.7455 14.1213 15.1941 14.1213 15.5828C14.1213 16.564 14.1458 17.1892 14.1458 18.0754C14.1458 19.4671 14.1648 20.935 14.1947 22.3104C14.2191 23.4928 14.79 24.6834 15.407 25.5043C15.4995 25.6239 15.4913 25.7408 15.3119 25.7924C15.2086 25.8223 15.0699 25.8278 14.9558 25.8278C14.3605 25.8278 13.7217 25.8169 13.0829 25.806C12.8818 25.8033 12.6779 25.8034 12.474 25.8034C11.8271 25.8034 11.1801 25.8305 10.5305 25.8305C10.1037 25.8305 9.83191 25.8142 9.44594 25.8142C9.03546 25.8142 8.86965 25.7571 8.86965 25.6104C8.86965 25.4934 8.97839 25.3195 9.15506 25.0721C9.66063 24.3627 10.0222 23.5472 10.1091 22.4762C10.1962 21.3943 10.2151 20.4702 10.2261 19.323C10.2315 18.899 10.2315 18.4858 10.2315 18.0726C10.2315 16.738 10.2125 15.4386 10.2179 14.0252C10.2179 13.8512 10.1119 13.7017 9.97322 13.7017C9.48942 13.7098 9.01102 13.7289 8.52989 13.7289C7.6247 13.7289 6.71951 13.6935 5.81162 13.7072C5.66755 13.7072 5.54251 13.843 5.53979 14.0225C5.53979 14.085 5.53979 14.1475 5.53708 14.21C5.5262 14.7509 5.52349 15.1967 5.52349 15.5881C5.52349 16.5722 5.54794 17.1973 5.54794 18.089C5.54794 19.4753 5.56698 20.9431 5.59688 22.3186C5.62134 23.501 6.19217 24.6916 6.80921 25.5125C6.90164 25.6321 6.89345 25.7489 6.71407 25.8006C6.61078 25.8305 6.47215 25.8359 6.35798 25.8359C5.60231 25.8359 4.84936 25.8169 4.09097 25.8169C3.33258 25.8169 2.6503 25.8359 1.93268 25.8359V25.8278Z" fill="#30506F"/>
<path d="M18.9217 25.8278C18.495 25.8278 18.2231 25.8115 17.8371 25.8115C17.4267 25.8115 17.2609 25.7544 17.2609 25.6076C17.2609 25.4907 17.3696 25.3168 17.5463 25.0694C18.0519 24.36 18.4134 23.5445 18.5004 22.4735C18.5873 21.3916 18.6064 20.4674 18.6172 19.3203C18.6227 18.899 18.6227 18.4831 18.6227 18.0726C18.6227 16.9038 18.6091 15.7649 18.6091 14.5525C18.6091 13.8077 18.6146 13.033 18.6308 12.2067C18.6417 11.6657 18.6445 11.2172 18.6445 10.8285C18.6445 9.84455 18.62 9.22205 18.62 8.3359C18.62 6.94419 18.6009 5.47631 18.571 4.10087C18.5466 2.91844 17.9758 1.72785 17.3587 0.906935C17.2663 0.787334 17.2745 0.67045 17.4539 0.618803C17.5572 0.588902 17.6958 0.583466 17.8099 0.583466C18.4052 0.583466 19.044 0.594339 19.6828 0.605212C19.8867 0.60793 20.0905 0.610648 20.2944 0.610648C20.9414 0.610648 21.5883 0.583466 22.2353 0.583466C22.662 0.583466 22.9338 0.599775 23.3198 0.599775C23.7303 0.599775 23.8961 0.656858 23.8961 0.803643C23.8961 0.920527 23.7873 1.09449 23.6107 1.34186C23.1051 2.05132 22.7436 2.86679 22.6566 3.93778C22.5696 5.01692 22.5506 5.94384 22.5397 7.09096C22.5288 8.14019 22.5016 9.17583 22.5016 10.1979C22.5016 11.4809 22.556 12.7313 22.5261 14.2019C22.5152 14.7428 22.5125 15.1886 22.5125 15.58C22.5125 16.564 22.537 17.1892 22.537 18.0808C22.537 19.4671 22.556 20.935 22.5859 22.3104C22.6104 23.4928 23.1812 24.6834 23.7983 25.5044C23.8906 25.624 23.8825 25.7408 23.7058 25.7924C23.6025 25.8223 23.4639 25.8278 23.3497 25.8278C22.5941 25.8278 21.8411 25.8087 21.0827 25.8087C20.3243 25.8087 19.642 25.8278 18.9244 25.8278H18.9217Z" fill="#30506F"/>
<path d="M29.637 25.8142C29.2103 25.8142 28.9385 25.7979 28.5524 25.7979C28.142 25.7979 27.9762 25.7408 27.9762 25.5941C27.9762 25.4771 28.0849 25.3032 28.2616 25.0558C28.7672 24.3464 29.1287 23.5309 29.2157 22.4599C29.3027 21.378 29.3217 20.4539 29.3326 19.3067C29.3462 18.0971 29.3571 16.9717 29.3571 15.7921C29.3571 14.6776 29.319 13.4842 29.3462 12.1931C29.3571 11.6521 29.3598 11.2064 29.3598 10.8149C29.3598 9.83098 29.3353 9.20574 29.3353 8.31687C29.3353 7.55578 29.3407 6.68322 29.3407 5.82425C29.3407 5.33497 29.3407 4.85112 29.3326 4.39445C29.3326 4.21777 29.213 4.08186 29.0716 4.08186C28.6068 4.08457 28.142 4.09273 27.6853 4.10632C26.7366 4.13894 25.7472 4.88102 25.0894 5.64757C24.9915 5.76173 24.8991 5.75358 24.8583 5.53068C24.8339 5.40292 24.8284 5.23167 24.8284 5.08761C24.8284 4.34553 24.8366 3.5518 24.8475 2.75536C24.8475 2.52431 24.8502 2.29325 24.8502 2.06492C24.8502 1.77679 24.8502 1.29837 24.8475 1.01024C24.8448 0.662308 25.016 0.569887 25.296 0.569887H27.2613C28.2888 0.588915 29.3163 0.607943 30.3438 0.607943C31.3713 0.607943 32.3471 0.583478 33.3556 0.583478C33.8367 0.583478 34.5489 0.602506 34.9757 0.59707L37.3133 0.567169C37.6151 0.567169 37.7428 0.654153 37.7428 1.0782C37.7428 1.91542 37.7592 3.02446 37.7592 3.70402C37.7592 4.2368 37.7456 4.57386 37.7456 5.05227C37.7456 5.56058 37.6994 5.76989 37.5825 5.76989C37.4873 5.76989 37.3487 5.63669 37.1502 5.41651C36.5794 4.7886 35.9243 4.26941 35.0626 4.1634C34.5326 4.09816 34.046 4.0873 33.5405 4.0873C33.4045 4.0873 33.2876 4.21777 33.2876 4.38902C33.2795 5.36759 33.2659 6.38421 33.2604 7.07465C33.255 7.49598 33.255 7.91185 33.255 8.32233C33.255 9.48843 33.2686 10.6274 33.2686 11.837C33.2686 12.5845 33.2632 13.3592 33.2469 14.1856C33.236 14.7265 33.2333 15.1723 33.2333 15.5637C33.2333 16.5477 33.2577 17.1729 33.2577 18.0645C33.2577 19.4508 33.2768 20.9187 33.3067 22.2941C33.3311 23.4766 33.9019 24.6671 34.519 25.488C34.6114 25.6076 34.6033 25.7245 34.4239 25.7762C34.3206 25.8061 34.1819 25.8115 34.0677 25.8115C33.3121 25.8115 32.5592 25.7924 31.8035 25.7924C31.0478 25.7924 30.3628 25.8115 29.6425 25.8115H29.637V25.8142Z" fill="#30506F"/>
<path d="M49.2492 25.8142C48.7245 25.8142 48.1999 25.8088 47.678 25.8034C47.6481 25.8034 47.5693 25.8088 47.4741 25.8088C47.3573 25.8088 47.2186 25.8034 47.1126 25.7735C46.9305 25.7218 46.9251 25.6049 47.0174 25.4853C47.3953 24.9906 47.8302 24.5013 48.0504 23.838C48.102 23.6804 48.1238 23.52 48.1238 23.3596C48.1238 22.9138 47.9553 22.4572 47.8194 21.9679C47.5937 21.147 47.4198 20.4375 47.2295 19.8205C46.9088 18.7739 46.5799 17.9068 46.1286 16.5667C46.1041 16.4933 46.0471 16.2759 45.9492 15.9959C45.884 15.8111 45.7481 15.7567 45.585 15.754C45.3159 15.7513 45.0658 15.7622 44.8728 15.7622C44.8102 15.7622 44.3155 15.7785 44.2585 15.7785C44.1144 15.7785 43.9948 15.8899 43.9948 16.0693C43.9894 16.9772 43.9758 17.4556 43.9758 17.6078C43.9812 18.4967 43.9785 19.1246 43.9866 20.269C44.0002 22.392 43.9595 22.642 44.1688 23.4004C44.3862 24.1887 44.7858 24.9281 45.2099 25.488C45.3023 25.6076 45.2941 25.7245 45.1147 25.7761C45.0114 25.806 44.8728 25.8115 44.7586 25.8115C43.7882 25.8115 42.8232 25.7816 41.8555 25.7816C41.0564 25.7816 40.2327 25.8169 39.4662 25.806C39.439 25.806 39.3575 25.8115 39.2623 25.8115C39.1482 25.8115 39.0095 25.806 38.9062 25.7761C38.7268 25.7245 38.7214 25.6076 38.8138 25.488C39.4308 24.6698 39.9989 23.4766 40.0262 22.2968C40.0533 21.0192 40.0751 19.6601 40.0751 18.3635C40.0751 17.3442 40.1023 16.7054 40.1023 15.6779C40.1023 15.2647 40.0968 14.7863 40.086 14.1937C40.0561 12.7748 40.105 11.5923 40.105 10.3393C40.105 9.26554 40.0833 8.17555 40.0724 7.08277C40.0587 5.93842 40.0425 5.01149 39.9555 3.92963C39.8685 2.85864 39.507 2.04589 39.0014 1.33371C38.8247 1.08635 38.716 0.901506 38.716 0.779185C38.716 0.656864 38.8274 0.591627 39.0911 0.591627C39.5668 0.591627 39.8494 0.575317 40.3007 0.575317C40.9123 0.575317 41.5185 0.599781 42.1246 0.599781C43.6849 0.599781 42.3367 0.575317 45.8867 0.575317C46.3977 0.575317 46.9278 0.643273 47.4361 0.716666C48.7952 0.91238 50.2305 1.63815 51.1492 2.94291C51.9674 4.10632 52.2936 5.55514 52.3235 7.01485C52.367 9.0617 52.2583 10.4017 51.807 11.9566C51.5244 12.9324 50.9453 13.6909 50.2522 14.2155C50.1298 14.3079 50.0048 14.3949 49.8771 14.4764C49.7085 14.5851 49.7031 14.8053 49.7657 14.9983C50.0537 15.8736 50.3365 16.8141 50.6355 17.7003C50.9426 18.6163 51.1873 19.2334 51.5896 20.4348C52.5083 23.2319 52.6279 23.8244 53.4625 24.8356C53.6419 25.0558 53.7424 25.1999 53.9164 25.4309C54.0088 25.5506 54.0495 25.7517 53.9055 25.7789C53.7451 25.8088 53.5086 25.8115 53.3945 25.8115C52.0109 25.8115 50.6273 25.8223 49.2492 25.8223V25.8142ZM44.215 12.2964C44.3019 12.2937 44.3916 12.291 44.4841 12.291C44.8293 12.291 45.3702 12.2964 45.5442 12.2882C46.955 12.2067 47.3192 12.1061 47.958 11.1683C48.2787 10.6953 48.363 10.0294 48.3956 9.4504C48.4228 8.98285 48.4445 8.50985 48.4445 8.03964C48.4445 7.38723 48.4038 6.73756 48.2842 6.09607C48.1945 5.61494 47.9852 5.12838 47.6862 4.78044C47.0555 4.04651 46.0063 4.02205 45.2534 4.02205C44.9597 4.02205 44.6499 4.03564 44.3645 4.05739C44.2367 4.06554 44.1307 4.09001 44.041 4.18514C43.9785 4.25038 43.9703 4.39445 43.9703 4.51133C43.9703 4.75597 43.9703 4.99518 43.9703 5.13109C43.9703 5.53883 43.9703 5.93569 43.9703 6.32984C43.9703 6.80009 43.9703 7.27036 43.9622 7.75422C43.954 8.20272 43.9513 8.91486 43.9513 9.67328C43.9513 10.4833 43.954 11.3423 43.9622 11.981C43.9622 12.155 44.0709 12.3045 44.2095 12.2991L44.215 12.2964Z" fill="#30506F"/>
<path d="M60.9675 26.1594C60.0026 26.1594 58.9886 25.9991 58.1487 25.3929C57.2082 24.7133 56.3737 23.7837 55.8274 22.3838C54.9548 20.1412 54.8841 17.6187 54.8759 15.1777C54.8732 14.2318 54.8433 13.2287 54.8651 12.1604C54.8759 11.6195 54.8813 11.1765 54.8813 10.7878C54.8813 9.81192 54.8569 9.19215 54.8569 8.30873C54.8569 6.91968 54.8379 5.45727 54.808 4.08728C54.7835 2.91028 54.2127 1.72241 53.5956 0.906935C53.5032 0.787334 53.5114 0.67045 53.6908 0.621521C53.7941 0.59162 53.9327 0.586184 54.0469 0.586184C54.7808 0.586184 55.5745 0.613366 56.3628 0.613366C57.0859 0.613366 57.8089 0.586184 58.5347 0.586184C58.9615 0.586184 59.2333 0.602494 59.6193 0.602494C60.0297 0.602494 60.1955 0.659577 60.1955 0.806362C60.1955 0.923244 60.0868 1.09722 59.9101 1.34186C59.4045 2.0486 59.043 2.85864 58.956 3.92691C58.869 5.00333 58.85 5.92481 58.8391 7.06645C58.831 7.71613 58.831 8.12933 58.831 8.44465C58.831 9.02906 58.8391 9.27366 58.8391 10.0321C58.8391 10.3855 58.8337 10.8503 58.8337 11.5162C58.8337 12.3807 58.8473 15.1967 58.85 15.6806C58.8554 16.9092 58.8582 18.1705 58.9506 18.9995C59.1245 20.6169 59.5649 21.5194 60.6006 22.1337C60.924 22.3267 61.2965 22.4219 61.6742 22.4219C62.506 22.4219 63.3705 21.9624 63.8271 21.06C64.0799 20.5625 64.1859 20.0542 64.3028 19.5106C64.5203 18.4858 64.5393 16.9989 64.5393 15.7241C64.5393 14.596 64.5284 13.6664 64.5257 13.5005C64.5257 13.1608 64.5094 12.753 64.5094 12.3888C64.5094 10.4316 64.5012 9.67328 64.5012 8.52076C64.5012 7.07464 64.4849 5.52795 64.455 4.08456C64.4306 2.90756 63.8679 1.71969 63.259 0.904218C63.1693 0.784616 63.1748 0.667732 63.3514 0.618803C63.452 0.588902 63.5906 0.583466 63.7021 0.583466C64.6208 0.583466 65.5345 0.610648 66.4477 0.610648C66.88 0.610648 67.3122 0.605212 67.7438 0.599775H67.7659C68.0266 0.599775 68.1384 0.662295 68.1384 0.787334C68.1384 0.912376 68.0324 1.09449 67.8582 1.33914C67.3584 2.04588 67.0022 2.85592 66.9151 3.92419C66.828 5.00061 66.8117 5.92209 66.7981 7.06379C66.787 8.09943 66.7818 9.07801 66.7818 10.0728C66.7818 11.3396 66.7929 12.6334 66.8169 14.1067C66.8228 14.5036 66.828 14.9004 66.828 15.2946C66.828 15.7213 66.8306 16.1509 66.8306 16.583C66.8306 18.6108 66.7604 20.6604 65.9693 22.4898C65.4526 23.6804 64.6589 24.7405 63.77 25.3684C62.8268 26.0316 61.9651 26.1594 60.9729 26.1594H60.9675Z" fill="#30506F"/>
<path d="M75.3091 26.1567C74.1781 26.1567 73.0881 25.8414 72.2561 25.1781C71.7913 24.8085 71.4221 24.5448 71.0497 24.5448C70.6525 24.5448 70.2502 24.8411 69.723 25.6212C69.5761 25.8387 69.4188 25.9909 69.2934 25.9909C69.1686 25.9909 69.0815 25.8305 69.0815 25.4147C69.0815 24.5937 69.1062 23.5254 69.1062 22.4327C69.1062 21.5438 69.0951 20.655 69.1029 19.9836C69.1088 19.5079 69.1029 19.0349 69.1029 18.5592C69.1029 18.5184 69.1029 18.4695 69.1029 18.4179C69.1029 18.1732 69.1166 17.8525 69.2635 17.7818C69.3993 17.7166 69.595 17.7003 69.7854 17.7003C70.1852 17.7003 70.438 17.6894 70.6174 17.6894C70.7968 17.6894 70.9028 17.7003 70.9977 17.7437C71.1361 17.8063 71.1608 18.0373 71.3675 18.7223C71.4787 19.0893 71.5905 19.459 71.7263 19.815C71.9844 20.4946 72.3107 21.1497 72.754 21.6879C73.3273 22.3865 74.2542 22.797 75.1434 22.797C76.4395 22.797 77.6823 21.8945 77.6823 20.1793C77.6823 18.1271 76.1704 16.9011 74.7898 16.227C73.7946 15.7404 72.8814 15.2049 72.0825 14.577C71.283 13.9491 70.609 13.1988 70.0792 12.348C69.3096 11.1112 68.9073 9.67055 68.9073 8.10483C68.9073 6.65875 69.1114 5.15556 69.6411 3.85625C70.1065 2.72002 70.8293 1.75233 71.8024 1.08907C72.6721 0.496495 73.7407 0.14856 75.0043 0.14856C76.1028 0.14856 77.1629 0.463876 77.9728 1.12713C78.4239 1.49681 78.7827 1.76048 79.1474 1.76048C79.5328 1.76048 79.9248 1.46419 80.4357 0.684053C80.5767 0.466594 80.7321 0.314372 80.8517 0.314372C80.9713 0.314372 81.0577 0.474749 81.0577 0.890641C81.0577 1.71427 81.0363 2.79069 81.0363 3.87799C81.0363 4.76414 81.0473 5.65029 81.0389 6.32169C81.0337 6.79469 81.0389 7.27036 81.0389 7.74603C81.0389 7.78685 81.0389 7.833 81.0389 7.88468C81.0389 8.12934 81.0252 8.45278 80.8842 8.5235C80.7509 8.58869 80.5605 8.60501 80.3759 8.60501C79.9898 8.60501 79.7421 8.61586 79.5686 8.61586C79.3944 8.61586 79.291 8.60501 79.1961 8.56152C79.0603 8.49899 79.0382 8.27065 78.8373 7.58295C78.7288 7.21602 78.6196 6.84903 78.4896 6.49022C78.2367 5.81066 77.9215 5.15556 77.4918 4.61735C76.9315 3.91061 76.0183 3.50559 75.1486 3.50559C74.5642 3.50559 73.9688 3.68227 73.5476 4.02205C72.8898 4.55212 72.5583 5.4138 72.5583 6.29179C72.5583 6.86808 72.702 7.45249 72.9873 7.95806C73.6451 9.11604 74.8905 9.70864 75.926 10.1952C77.4918 10.9291 78.8399 11.625 79.8565 12.7829C81.0447 14.1339 81.5881 16.0802 81.5881 18.0591C81.5881 19.1355 81.4438 20.2147 81.1968 21.2149C80.786 22.8649 79.9813 24.3056 78.6092 25.2135C77.7148 25.8061 76.6137 26.154 75.3117 26.154L75.3091 26.1567Z" fill="#30506F"/>
<path d="M87.4758 25.8142C87.0488 25.8142 86.7771 25.7979 86.391 25.7979C85.9808 25.7979 85.8151 25.7408 85.8151 25.5941C85.8151 25.4771 85.9236 25.3032 86.1004 25.0558C86.6061 24.3464 86.9675 23.5309 87.0546 22.4599C87.1417 21.378 87.1606 20.4539 87.1716 19.3067C87.1853 18.0971 87.1957 16.9717 87.1957 15.7921C87.1957 14.6776 87.158 13.4842 87.1853 12.1931C87.1957 11.6521 87.2015 11.2064 87.2015 10.8149C87.2015 9.83098 87.1768 9.20574 87.1768 8.31687C87.1768 7.55578 87.182 6.68322 87.182 5.82425C87.182 5.33497 87.182 4.85112 87.1742 4.39445C87.1742 4.21777 87.0546 4.08186 86.9129 4.08186C86.4482 4.08457 85.9834 4.09273 85.5271 4.10632C84.5781 4.13894 83.5888 4.88102 82.931 5.64757C82.8329 5.76173 82.7406 5.75358 82.6996 5.53068C82.6756 5.40292 82.6697 5.23167 82.6697 5.08761C82.6697 4.34553 82.6782 3.5518 82.6892 2.75536C82.6892 2.52431 82.6918 2.29325 82.6918 2.06492C82.6918 1.77679 82.6918 1.29837 82.686 1.01024C82.6834 0.662308 82.855 0.569887 83.1345 0.569887H85.1001C86.1277 0.588915 87.1554 0.607943 88.1824 0.607943C89.21 0.607943 90.1857 0.583478 91.1945 0.583478C91.6755 0.583478 92.3879 0.602506 92.8143 0.59707L95.1523 0.567169C95.4539 0.567169 95.5813 0.654153 95.5813 1.0782C95.5813 1.91542 95.5982 3.02446 95.5982 3.70402C95.5982 4.2368 95.5846 4.57386 95.5846 5.05227C95.5846 5.56058 95.5384 5.76989 95.4214 5.76989C95.3259 5.76989 95.1874 5.63669 94.9892 5.41651C94.4185 4.7886 93.7633 4.26941 92.9014 4.1634C92.3716 4.09816 91.8848 4.0873 91.3791 4.0873C91.2432 4.0873 91.1262 4.21777 91.1262 4.38902C91.1184 5.36759 91.1048 6.38421 91.0989 7.07465C91.0937 7.49598 91.0937 7.91185 91.0937 8.32233C91.0937 9.48843 91.1074 10.6274 91.1074 11.837C91.1074 12.5845 91.1022 13.3592 91.0859 14.1856C91.0749 14.7265 91.0723 15.1723 91.0723 15.5637C91.0723 16.5477 91.0963 17.1729 91.0963 18.0645C91.0963 19.4508 91.1158 20.9187 91.1457 22.2941C91.1698 23.4766 91.7405 24.6671 92.358 25.488C92.4477 25.6076 92.4418 25.7245 92.2624 25.7762C92.1591 25.8061 92.0206 25.8115 91.9062 25.8115C91.1509 25.8115 90.3982 25.7924 89.6423 25.7924C88.8863 25.7924 88.2019 25.8115 87.481 25.8115H87.4758V25.8142Z" fill="#30506F"/>
<path d="M99.7245 2.00242C99.7245 2.82605 99.0771 3.47299 98.2347 3.47299C97.3923 3.47299 96.7371 2.82605 96.7371 2.00242C96.7371 1.17879 97.4027 0.548157 98.2347 0.548157C99.0667 0.548157 99.7245 1.1951 99.7245 2.00242ZM97.1095 2.00242C97.1095 2.64936 97.5879 3.16311 98.2425 3.16311C98.8977 3.16311 99.352 2.64936 99.352 2.01057C99.352 1.37178 98.8814 0.841728 98.2347 0.841728C97.5879 0.841728 97.1095 1.36363 97.1095 2.00242ZM98.0033 2.76624H97.6666V1.31198C97.7998 1.2848 97.9844 1.26849 98.2236 1.26849C98.4986 1.26849 98.6234 1.31198 98.7293 1.3745C98.808 1.43702 98.871 1.55119 98.871 1.69254C98.871 1.85291 98.7456 1.97524 98.5688 2.0296V2.04591C98.7105 2.10027 98.7917 2.20629 98.8353 2.39928C98.8788 2.61946 98.9061 2.70916 98.9412 2.76352H98.5772C98.5337 2.70916 98.5064 2.57868 98.4628 2.41015C98.4355 2.24978 98.3491 2.1791 98.1612 2.1791H98.0007V2.76352L98.0033 2.76624ZM98.0143 1.94261H98.1749C98.3595 1.94261 98.5122 1.8801 98.5122 1.73059C98.5122 1.5974 98.4141 1.5077 98.2022 1.5077C98.1125 1.5077 98.0527 1.51585 98.0169 1.52672V1.94261H98.0143Z" fill="#30506F"/>
</g>
</g>
<defs>
<clipPath id="clip0_1383_7863">
<rect width="99.45" height="26" fill="white" transform="translate(0.271835 0.159424)"/>
</clipPath>
</defs>
</svg>
