<svg width="51" height="45" viewBox="0 0 51 45" fill="none" xmlns="http://www.w3.org/2000/svg">
<g clip-path="url(#clip0_1767_5421)">
<path d="M4.54332 45C2.03815 45 0 42.9618 0 40.4567V4.54332C0 2.03815 2.03815 0 4.54332 0H45.7586C48.2638 0 50.3019 2.03815 50.3019 4.54332V40.4556C50.3019 42.9618 48.2638 45 45.7586 45H4.54332Z" fill="#F0F0F0"/>
<path d="M45.7586 0.633911H4.54328C2.38784 0.633911 0.633911 2.38784 0.633911 4.54328V40.4566C0.633911 42.6121 2.38784 44.366 4.54328 44.366H45.7586C47.914 44.366 49.668 42.6121 49.668 40.4556V4.54328C49.668 2.38784 47.914 0.633911 45.7586 0.633911Z" fill="white"/>
<path d="M7.91178 7.52291C8.5245 7.52291 9.0212 7.02621 9.0212 6.41349C9.0212 5.80078 8.5245 5.30408 7.91178 5.30408C7.29907 5.30408 6.80237 5.80078 6.80237 6.41349C6.80237 7.02621 7.29907 7.52291 7.91178 7.52291Z" fill="#276192"/>
<path d="M13.089 7.52291C13.7017 7.52291 14.1984 7.02621 14.1984 6.41349C14.1984 5.80078 13.7017 5.30408 13.089 5.30408C12.4763 5.30408 11.9796 5.80078 11.9796 6.41349C11.9796 7.02621 12.4763 7.52291 13.089 7.52291Z" fill="#276192"/>
<path d="M18.2663 7.52291C18.879 7.52291 19.3757 7.02621 19.3757 6.41349C19.3757 5.80078 18.879 5.30408 18.2663 5.30408C17.6536 5.30408 17.1569 5.80078 17.1569 6.41349C17.1569 7.02621 17.6536 7.52291 18.2663 7.52291Z" fill="#276192"/>
<path d="M20.2738 22.3796H13.6257V15.7316C17.2879 15.7316 20.2738 18.7175 20.2738 22.3796Z" fill="#FCD230"/>
<path d="M13.6258 22.3796H20.2738C20.2738 26.0417 17.2879 29.0287 13.6258 29.0287C9.96365 29.0287 6.97668 26.0417 6.97668 22.3796C6.97668 18.7175 9.96365 15.7316 13.6258 15.7316V22.3796Z" fill="#25E09C"/>
<path d="M25.7743 24.0743C26.7022 24.0743 27.4543 23.3221 27.4543 22.3943C27.4543 21.4665 26.7022 20.7144 25.7743 20.7144C24.8465 20.7144 24.0944 21.4665 24.0944 22.3943C24.0944 23.3221 24.8465 24.0743 25.7743 24.0743Z" fill="#FA4A59"/>
<path d="M31.5613 19.2214C32.4891 19.2214 33.2413 18.4692 33.2413 17.5414C33.2413 16.6136 32.4891 15.8615 31.5613 15.8615C30.6335 15.8615 29.8813 16.6136 29.8813 17.5414C29.8813 18.4692 30.6335 19.2214 31.5613 19.2214Z" fill="#25E09C"/>
<path d="M35.609 27.1881C36.5369 27.1881 37.289 26.4359 37.289 25.5081C37.289 24.5803 36.5369 23.8281 35.609 23.8281C34.6812 23.8281 33.9291 24.5803 33.9291 25.5081C33.9291 26.4359 34.6812 27.1881 35.609 27.1881Z" fill="#FCD230"/>
<path d="M41.6454 22.4556C42.5732 22.4556 43.3254 21.7035 43.3254 20.7757C43.3254 19.8479 42.5732 19.0957 41.6454 19.0957C40.7176 19.0957 39.9655 19.8479 39.9655 20.7757C39.9655 21.7035 40.7176 22.4556 41.6454 22.4556Z" fill="#31A7FB"/>
<path d="M27.4544 22.3944C27.4544 21.4688 26.7 20.7144 25.7744 20.7144C24.8488 20.7144 24.0944 21.4688 24.0944 22.3944C24.0944 23.32 24.8499 24.0744 25.7744 24.0744C26.6989 24.0744 27.4544 23.32 27.4544 22.3944ZM31.5613 19.2215C32.4869 19.2215 33.2413 18.466 33.2413 17.5415C33.2413 16.617 32.4869 15.8615 31.5613 15.8615C30.6357 15.8615 29.8813 16.6159 29.8813 17.5415C29.8813 18.4671 30.6357 19.2215 31.5613 19.2215ZM37.2891 25.5081C37.2891 24.5826 36.5336 23.8282 35.6091 23.8282C34.6846 23.8282 33.9291 24.5826 33.9291 25.5081C33.9291 26.4337 34.6835 27.1881 35.6091 27.1881C36.5347 27.1881 37.2891 26.4337 37.2891 25.5081ZM39.9654 20.7757C39.9654 21.7013 40.7198 22.4557 41.6454 22.4557C42.5709 22.4557 43.3253 21.7013 43.3253 20.7757C43.3253 19.8501 42.5699 19.0957 41.6454 19.0957C40.7209 19.0957 39.9654 19.8512 39.9654 20.7757ZM47.8718 10.3969V40.4567C47.8718 41.6232 46.9262 42.5699 45.7587 42.5699H4.54335C3.37582 42.5699 2.43018 41.6232 2.43018 40.4567V10.3969H47.8718ZM20.2738 22.3796C20.2738 18.7175 17.2879 15.7316 13.6258 15.7316C9.96364 15.7316 6.97667 18.7175 6.97667 22.3796C6.97667 26.0417 9.96364 29.0287 13.6258 29.0287C17.2879 29.0287 20.2738 26.0417 20.2738 22.3796Z" fill="#DEE4ED"/>
<path d="M47.8718 4.54335V10.3968H2.43018V4.54335C2.43018 3.37688 3.37582 2.43018 4.54335 2.43018H45.7587C46.9262 2.43018 47.8718 3.37688 47.8718 4.54335ZM19.3757 6.4135C19.3757 5.8028 18.8781 5.30409 18.2663 5.30409C17.6545 5.30409 17.1569 5.8028 17.1569 6.4135C17.1569 7.02421 17.6556 7.52292 18.2663 7.52292C18.877 7.52292 19.3757 7.02421 19.3757 6.4135ZM14.1984 6.4135C14.1984 5.8028 13.7008 5.30409 13.089 5.30409C12.4773 5.30409 11.9796 5.8028 11.9796 6.4135C11.9796 7.02421 12.4783 7.52292 13.089 7.52292C13.6997 7.52292 14.1984 7.02421 14.1984 6.4135ZM9.02116 6.4135C9.02116 5.8028 8.52351 5.30409 7.91174 5.30409C7.29998 5.30409 6.80233 5.8028 6.80233 6.4135C6.80233 7.02421 7.30104 7.52292 7.91174 7.52292C8.52245 7.52292 9.02116 7.02421 9.02116 6.4135Z" fill="#337AB7"/>
<path d="M45.7586 43.0981H4.54332C3.08629 43.0981 1.90186 41.9137 1.90186 40.4567V4.54332C1.90186 3.08629 3.08629 1.90186 4.54332 1.90186H45.7586C47.2157 1.90186 48.4001 3.08629 48.4001 4.54332V40.4556C48.4001 41.9127 47.2157 43.0981 45.7586 43.0981ZM4.54332 2.95844C3.66952 2.95844 2.95844 3.66952 2.95844 4.54332V40.4556C2.95844 41.3294 3.66952 42.0405 4.54332 42.0405H45.7586C46.6324 42.0405 47.3435 41.3294 47.3435 40.4556V4.54332C47.3435 3.66952 46.6324 2.95844 45.7586 2.95844H4.54332Z" fill="#3B4554"/>
<path d="M47.8718 10.9251H2.43015C2.13853 10.9251 1.90186 10.6884 1.90186 10.3968C1.90186 10.1052 2.13853 9.86853 2.43015 9.86853H47.8718C48.1634 9.86853 48.4001 10.1052 48.4001 10.3968C48.4001 10.6884 48.1634 10.9251 47.8718 10.9251Z" fill="#3B4554"/>
<path d="M7.91176 8.05117C7.00837 8.05117 6.27405 7.31685 6.27405 6.41347C6.27405 5.51008 7.00837 4.77576 7.91176 4.77576C8.81514 4.77576 9.54946 5.51008 9.54946 6.41347C9.54946 7.31685 8.81514 8.05117 7.91176 8.05117ZM7.91176 5.83234C7.59161 5.83234 7.33063 6.09332 7.33063 6.41347C7.33063 6.73361 7.59161 6.99459 7.91176 6.99459C8.2319 6.99459 8.49288 6.73361 8.49288 6.41347C8.49288 6.09332 8.2319 5.83234 7.91176 5.83234Z" fill="#3B4554"/>
<path d="M13.089 8.05117C12.1856 8.05117 11.4513 7.31685 11.4513 6.41347C11.4513 5.51008 12.1856 4.77576 13.089 4.77576C13.9924 4.77576 14.7267 5.51008 14.7267 6.41347C14.7267 7.31685 13.9924 8.05117 13.089 8.05117ZM13.089 5.83234C12.7689 5.83234 12.5079 6.09332 12.5079 6.41347C12.5079 6.73361 12.7689 6.99459 13.089 6.99459C13.4091 6.99459 13.6701 6.73361 13.6701 6.41347C13.6701 6.09332 13.4091 5.83234 13.089 5.83234Z" fill="#3B4554"/>
<path d="M18.2662 8.05117C17.3629 8.05117 16.6285 7.31685 16.6285 6.41347C16.6285 5.51008 17.3629 4.77576 18.2662 4.77576C19.1696 4.77576 19.904 5.51008 19.904 6.41347C19.904 7.31685 19.1696 8.05117 18.2662 8.05117ZM18.2662 5.83234C17.9461 5.83234 17.6851 6.09332 17.6851 6.41347C17.6851 6.73361 17.9461 6.99459 18.2662 6.99459C18.5864 6.99459 18.8474 6.73361 18.8474 6.41347C18.8474 6.09332 18.5864 5.83234 18.2662 5.83234Z" fill="#3B4554"/>
<path d="M13.6258 29.5569C9.66888 29.5569 6.44946 26.3375 6.44946 22.3806C6.44946 18.4236 9.66888 15.2042 13.6258 15.2042C17.5827 15.2042 20.8021 18.4236 20.8021 22.3806C20.8021 26.3375 17.5827 29.5569 13.6258 29.5569ZM13.6258 16.2598C10.2511 16.2598 7.50605 19.0048 7.50605 22.3795C7.50605 25.7542 10.2511 28.4992 13.6258 28.4992C17.0005 28.4992 19.7455 25.7542 19.7455 22.3795C19.7455 19.0048 17.0005 16.2598 13.6258 16.2598Z" fill="#3B4554"/>
<path d="M20.2737 22.9079H13.6257C13.3341 22.9079 13.0974 22.6712 13.0974 22.3796V15.7315C13.0974 15.4399 13.3341 15.2032 13.6257 15.2032C13.9173 15.2032 14.154 15.4399 14.154 15.7315V21.8513H20.2737C20.5654 21.8513 20.802 22.088 20.802 22.3796C20.802 22.6712 20.5654 22.9079 20.2737 22.9079Z" fill="#3B4554"/>
<path d="M25.7743 24.6026C24.5571 24.6026 23.566 23.6115 23.566 22.3943C23.566 21.1771 24.5571 20.186 25.7743 20.186C26.9915 20.186 27.9826 21.1771 27.9826 22.3943C27.9826 23.6115 26.9925 24.6026 25.7743 24.6026ZM25.7743 21.2426C25.1393 21.2426 24.6226 21.7593 24.6226 22.3943C24.6226 23.0293 25.1393 23.546 25.7743 23.546C26.4093 23.546 26.926 23.0293 26.926 22.3943C26.926 21.7593 26.4093 21.2426 25.7743 21.2426Z" fill="#3B4554"/>
<path d="M31.5612 19.7497C30.344 19.7497 29.3529 18.7586 29.3529 17.5414C29.3529 16.3242 30.344 15.3331 31.5612 15.3331C32.7784 15.3331 33.7694 16.3242 33.7694 17.5414C33.7694 18.7586 32.7794 19.7497 31.5612 19.7497ZM31.5612 16.3897C30.9262 16.3897 30.4095 16.9064 30.4095 17.5414C30.4095 18.1764 30.9262 18.6931 31.5612 18.6931C32.1962 18.6931 32.7128 18.1764 32.7128 17.5414C32.7128 16.9064 32.1962 16.3897 31.5612 16.3897Z" fill="#3B4554"/>
<path d="M35.609 27.7163C34.3908 27.7163 33.4008 26.7253 33.4008 25.5081C33.4008 24.2909 34.3918 23.2998 35.609 23.2998C36.8262 23.2998 37.8173 24.2909 37.8173 25.5081C37.8173 26.7253 36.8262 27.7163 35.609 27.7163ZM35.609 24.3564C34.974 24.3564 34.4573 24.8731 34.4573 25.5081C34.4573 26.1431 34.974 26.6597 35.609 26.6597C36.244 26.6597 36.7607 26.1431 36.7607 25.5081C36.7607 24.8731 36.244 24.3564 35.609 24.3564Z" fill="#3B4554"/>
<path d="M41.6453 22.9839C40.4281 22.9839 39.437 21.9928 39.437 20.7756C39.437 19.5585 40.4281 18.5674 41.6453 18.5674C42.8625 18.5674 43.8535 19.5585 43.8535 20.7756C43.8535 21.9928 42.8625 22.9839 41.6453 22.9839ZM41.6453 19.624C41.0103 19.624 40.4936 20.1406 40.4936 20.7756C40.4936 21.4107 41.0103 21.9273 41.6453 21.9273C42.2803 21.9273 42.797 21.4107 42.797 20.7756C42.797 20.1406 42.2803 19.624 41.6453 19.624Z" fill="#3B4554"/>
<path d="M36.9308 24.9999C36.7744 24.9999 36.6191 24.9302 36.5145 24.7981C36.3348 24.5688 36.375 24.236 36.6043 24.0564L39.9959 21.3969C40.2252 21.2173 40.557 21.2575 40.7376 21.4867C40.9173 21.716 40.8771 22.0488 40.6478 22.2285L37.2562 24.8879C37.16 24.9629 37.0449 24.9999 36.9308 24.9999ZM34.8482 24.5382C34.6559 24.5382 34.47 24.4325 34.377 24.2487L31.8517 19.2774C31.7197 19.0175 31.8232 18.6995 32.0831 18.5674C32.3431 18.4353 32.6611 18.5389 32.7932 18.7988L35.3184 23.77C35.4505 24.0299 35.3469 24.348 35.087 24.4801C35.0099 24.5202 34.9285 24.5382 34.8482 24.5382ZM27.0622 21.8428C26.9111 21.8428 26.7622 21.7784 26.6576 21.6537C26.4706 21.4297 26.4991 21.0969 26.7231 20.9098L29.9351 18.2156C30.1591 18.0285 30.4919 18.0571 30.6789 18.2811C30.8659 18.5051 30.8374 18.8379 30.6134 19.0249L27.4014 21.7192C27.3021 21.8027 27.1816 21.8428 27.0622 21.8428Z" fill="#3B4554"/>
<path d="M43.3253 33.6596H7.01145C6.71983 33.6596 6.48315 33.4229 6.48315 33.1313C6.48315 32.8397 6.71983 32.603 7.01145 32.603H43.3253C43.6169 32.603 43.8535 32.8397 43.8535 33.1313C43.8535 33.4229 43.6169 33.6596 43.3253 33.6596Z" fill="#3B4554"/>
<path d="M43.3253 37.7634H7.01145C6.71983 37.7634 6.48315 37.5267 6.48315 37.2351C6.48315 36.9435 6.71983 36.7068 7.01145 36.7068H43.3253C43.6169 36.7068 43.8535 36.9435 43.8535 37.2351C43.8535 37.5267 43.6169 37.7634 43.3253 37.7634Z" fill="#3B4554"/>
</g>
<defs>
<clipPath id="clip0_1767_5421">
<rect width="50.3019" height="45" fill="white"/>
</clipPath>
</defs>
</svg>
