<svg width="45" height="48" viewBox="0 0 45 48" fill="none" xmlns="http://www.w3.org/2000/svg">
<g clip-path="url(#clip0_1767_5453)">
<path fill-rule="evenodd" clip-rule="evenodd" d="M28.3928 48C27.3969 48 26.5108 47.3662 26.1887 46.4236L22.9918 37.1221H21.1877L17.9897 46.4267C17.6687 47.3672 16.7826 48 15.7867 48H12.1405C10.8554 48 9.81026 46.9549 9.81026 45.6697C9.81026 45.3979 9.85744 45.1292 9.95077 44.8708L12.6349 37.0636C11.5979 36.8277 10.8215 35.8985 10.8215 34.7908V33.7087H3.97641C2.9159 33.7087 1.91795 33.2944 1.16615 32.5426C0.414359 31.7908 0 30.7928 0 29.7323V3.97641C0 2.91692 0.414359 1.91897 1.16615 1.16615C1.91795 0.414359 2.9159 0 3.97641 0H40.201C41.2605 0 42.2585 0.414359 43.0113 1.16615C43.7631 1.91795 44.1774 2.9159 44.1774 3.97641V29.7333C44.1774 30.7938 43.7631 31.7918 43.0113 32.5436C42.2595 33.2954 41.2615 33.7097 40.201 33.7097H33.3579V34.7918C33.3579 35.8995 32.5815 36.8287 31.5446 37.0646L34.2277 44.8687C34.3221 45.1251 34.3692 45.3938 34.3692 45.6697C34.3692 46.9549 33.3241 48 32.039 48H28.3928Z" fill="#F0F0F0"/>
<path fill-rule="evenodd" clip-rule="evenodd" d="M42.5754 1.60112C41.9395 0.965222 41.0964 0.615479 40.2 0.615479H3.97638C3.081 0.615479 2.23689 0.965222 1.601 1.60112C0.9651 2.23702 0.615356 3.08009 0.615356 3.9765V29.7334C0.615356 30.6288 0.966126 31.4729 1.601 32.1078C2.23689 32.7437 3.07997 33.0945 3.97638 33.0945H11.4359V34.7919C11.4359 35.7375 12.2051 36.5068 13.1507 36.5068H13.4759L10.5282 45.0811C10.4595 45.2719 10.4246 45.4698 10.4246 45.6698C10.4246 46.6155 11.1938 47.3847 12.1395 47.3847H15.7856C16.5189 47.3847 17.1702 46.9191 17.4072 46.2268L20.7487 36.5068H23.4307L26.7713 46.2247C27.0082 46.918 27.6605 47.3847 28.3938 47.3847H32.04C32.9856 47.3847 33.7548 46.6155 33.7548 45.6698C33.7548 45.4647 33.7189 45.2647 33.6492 45.075L30.7036 36.5068H31.0287C31.9743 36.5068 32.7436 35.7375 32.7436 34.7919V33.0945H40.202C41.0974 33.0945 41.9415 32.7437 42.5764 32.1088C43.2123 31.4729 43.563 30.6298 43.563 29.7334V3.9765C43.563 3.08112 43.2123 2.23702 42.5754 1.60112Z" fill="white"/>
<path fill-rule="evenodd" clip-rule="evenodd" d="M19.6821 34.3334C19.9344 34.4196 20.0687 34.6955 19.9826 34.9478L16.2431 45.8268C16.1744 46.0278 15.9867 46.154 15.7857 46.154H12.1395C11.8728 46.154 11.6554 45.9375 11.6554 45.6699C11.6554 45.6073 11.6677 45.5478 11.6882 45.4934L15.4215 34.634C15.5077 34.3816 15.7836 34.2473 16.0359 34.3334H19.6821Z" fill="#276192"/>
<path fill-rule="evenodd" clip-rule="evenodd" d="M24.196 34.9478C24.1098 34.6955 24.2442 34.4206 24.4965 34.3334H28.1427C28.395 34.2473 28.6698 34.3816 28.757 34.634L32.4903 45.4934C32.5119 45.5478 32.5232 45.6073 32.5232 45.6699C32.5232 45.9365 32.3068 46.154 32.0391 46.154H28.3929C28.1919 46.154 28.0042 46.0278 27.9355 45.8268L24.196 34.9478Z" fill="#276192"/>
<path fill-rule="evenodd" clip-rule="evenodd" d="M12.6667 31.3806C12.6667 31.1139 12.8832 30.8965 13.1509 30.8965C13.5252 30.7816 30.7611 30.8965 31.0278 30.8965C31.2944 30.8965 31.5119 31.1129 31.5119 31.3806V34.7919C31.5119 35.0586 31.2955 35.276 31.0278 35.276H13.1509C12.8842 35.276 12.6667 35.0596 12.6667 34.7919V31.3806Z" fill="#337AB7"/>
<path fill-rule="evenodd" clip-rule="evenodd" d="M3.97645 1.84619H40.2011C40.7877 1.84619 41.32 2.08619 41.7057 2.47183C42.0913 2.85747 42.3313 3.39081 42.3313 3.97645V29.7334C42.3313 30.32 42.0913 30.8523 41.7057 31.238C41.32 31.6236 40.7867 31.8636 40.2011 31.8636H3.97645C3.38978 31.8636 2.85747 31.6236 2.47183 31.238C2.08619 30.8523 1.84619 30.319 1.84619 29.7334V3.97645C1.84619 3.38978 2.08619 2.85747 2.47183 2.47183C2.85747 2.08619 3.39081 1.84619 3.97645 1.84619Z" fill="#276192"/>
<path d="M5.38877 4.90356H38.7908C39.0575 4.90356 39.2749 5.11997 39.2749 5.38767V28.322C39.2749 28.5887 39.0585 28.8061 38.7908 28.8061H5.38877C5.1221 28.8061 4.90466 28.5897 4.90466 28.322V5.38767C4.90466 5.121 5.12107 4.90356 5.38877 4.90356Z" fill="white"/>
<path fill-rule="evenodd" clip-rule="evenodd" d="M35.2626 7.69946C35.5293 7.69946 35.7467 7.91587 35.7467 8.18357C35.7467 8.45126 35.5303 8.66767 35.2626 8.66767H25.7949C25.5282 8.66767 25.3108 8.45126 25.3108 8.18357C25.3108 7.91587 25.5272 7.69946 25.7949 7.69946H35.2626Z" fill="#4D4D4D"/>
<path fill-rule="evenodd" clip-rule="evenodd" d="M35.2626 10.5896C35.5293 10.5896 35.7467 10.806 35.7467 11.0737C35.7467 11.3414 35.5303 11.5578 35.2626 11.5578H25.7949C25.5282 11.5578 25.3108 11.3414 25.3108 11.0737C25.3108 10.806 25.5272 10.5896 25.7949 10.5896H35.2626Z" fill="#4D4D4D"/>
<path fill-rule="evenodd" clip-rule="evenodd" d="M35.2626 13.481C35.5293 13.481 35.7467 13.6974 35.7467 13.9651C35.7467 14.2328 35.5303 14.4492 35.2626 14.4492H25.7949C25.5282 14.4492 25.3108 14.2328 25.3108 13.9651C25.3108 13.6974 25.5272 13.481 25.7949 13.481H35.2626Z" fill="#4D4D4D"/>
<path fill-rule="evenodd" clip-rule="evenodd" d="M35.2626 16.3713C35.5293 16.3713 35.7467 16.5877 35.7467 16.8554C35.7467 17.1231 35.5303 17.3395 35.2626 17.3395H25.7949C25.5282 17.3395 25.3108 17.1231 25.3108 16.8554C25.3108 16.5877 25.5272 16.3713 25.7949 16.3713H35.2626Z" fill="#4D4D4D"/>
<path fill-rule="evenodd" clip-rule="evenodd" d="M35.2626 19.2615C35.5293 19.2615 35.7467 19.4779 35.7467 19.7456C35.7467 20.0133 35.5303 20.2297 35.2626 20.2297H25.7949C25.5282 20.2297 25.3108 20.0133 25.3108 19.7456C25.3108 19.4779 25.5272 19.2615 25.7949 19.2615H35.2626Z" fill="#4D4D4D"/>
<path fill-rule="evenodd" clip-rule="evenodd" d="M35.2626 22.1528C35.5293 22.1528 35.7467 22.3692 35.7467 22.6369C35.7467 22.9046 35.5303 23.121 35.2626 23.121H19.2667C19 23.121 18.7826 22.9046 18.7826 22.6369C18.7826 22.3692 18.999 22.1528 19.2667 22.1528H35.2626Z" fill="#4D4D4D"/>
<path fill-rule="evenodd" clip-rule="evenodd" d="M35.2626 25.043C35.5293 25.043 35.7467 25.2594 35.7467 25.5271C35.7467 25.7948 35.5303 26.0112 35.2626 26.0112H19.2667C19 26.0112 18.7826 25.7948 18.7826 25.5271C18.7826 25.2594 18.999 25.043 19.2667 25.043H35.2626Z" fill="#4D4D4D"/>
</g>
<defs>
<clipPath id="clip0_1767_5453">
<rect width="44.1774" height="48" fill="white"/>
</clipPath>
</defs>
</svg>
