<svg width="42" height="48" viewBox="0 0 42 48" fill="none" xmlns="http://www.w3.org/2000/svg">
<g clip-path="url(#clip0_1767_5406)">
<path d="M40.278 28.6043C38.4223 36.6432 31.8769 44.8687 20.6843 48C9.49166 44.8687 2.94628 36.6435 1.09055 28.6043C-0.719493 20.7634 -0.15982 12.4966 1.91064 4.71537C8.54684 5.70669 15.6702 3.93248 20.6843 0C25.6984 3.93248 32.8217 5.70669 39.4582 4.71537C41.5287 12.4966 42.0884 20.7637 40.278 28.6046V28.6043Z" fill="#525E6F"/>
<path d="M40.2781 28.6043C38.4223 36.6432 31.877 44.8687 20.6843 48V0C25.6984 3.93248 32.8218 5.70669 39.4583 4.71537C41.5287 12.4966 42.0884 20.7637 40.2781 28.6046V28.6043Z" fill="#337AB7"/>
<path d="M38.0153 28.0821C37.5892 29.9283 36.8985 31.746 35.9627 33.4857C34.9815 35.3095 33.7478 37.0123 32.2961 38.5463C30.7538 40.1758 28.9744 41.6037 27.0074 42.7904C25.0756 43.956 22.9485 44.8948 20.6846 45.5814C18.4211 44.895 16.2937 43.956 14.3619 42.7907C12.3946 41.604 10.6152 40.1758 9.07321 38.5463C7.6215 37.0123 6.38782 35.3095 5.40661 33.4857C4.47054 31.7463 3.77984 29.9283 3.35393 28.0821C2.52865 24.508 2.19656 20.691 2.36616 16.7369C2.49856 13.6453 2.93979 10.4511 3.67699 7.24159C4.31107 7.28563 4.9528 7.30779 5.58578 7.30779C8.58438 7.30779 11.5447 6.83538 14.3841 5.90423C16.6723 5.15362 18.792 4.13166 20.6849 2.86597C22.5778 4.13166 24.6973 5.1539 26.9857 5.90423C29.8254 6.83538 32.7854 7.30779 35.784 7.30779C36.417 7.30779 37.0585 7.28563 37.6928 7.24159C38.4303 10.4511 38.8713 13.6453 39.0039 16.7369C39.1733 20.6904 38.8412 24.5075 38.0159 28.0821H38.0153Z" fill="#9AA8BC"/>
<path d="M38.0154 28.0821C37.5892 29.9283 36.8985 31.746 35.9627 33.4857C34.9815 35.3095 33.7478 37.0123 32.2961 38.5463C30.7539 40.1758 28.9745 41.6037 27.0074 42.7904C25.0756 43.956 22.9485 44.8948 20.6847 45.5814V2.86597C22.5776 4.13166 24.697 5.1539 26.9855 5.90423C29.8252 6.83538 32.7852 7.30779 35.7838 7.30779C36.4168 7.30779 37.0583 7.28563 37.6926 7.24159C38.4301 10.4511 38.871 13.6453 39.0037 16.7369C39.173 20.6904 38.841 24.5075 38.0157 28.0821H38.0154Z" fill="#5C95C5"/>
<path d="M26.6238 22.1755C25.104 20.6554 23.004 19.7152 20.6846 19.7152C18.3652 19.7152 16.2655 20.6554 14.7454 22.1755C13.2253 23.6953 12.2852 25.795 12.2852 28.1147C12.2852 32.7535 16.0459 36.5141 20.6846 36.5141C23.004 36.5141 25.104 35.5737 26.6238 34.0539C28.1439 32.5341 29.0841 30.4341 29.0841 28.1147C29.0841 25.7953 28.1439 23.6953 26.6238 22.1755ZM21.7276 28.9126L22.0135 30.6726C22.0584 30.9483 21.8455 31.1983 21.5663 31.1983H19.803C19.5223 31.1983 19.309 30.9456 19.3563 30.669L19.6542 28.9203C19.0269 28.5619 18.604 27.8865 18.604 27.1121C18.604 25.963 19.5352 25.0313 20.6846 25.0313C21.8341 25.0313 22.7652 25.963 22.7652 27.1121C22.7652 27.8811 22.348 28.5526 21.7279 28.9129L21.7276 28.9126Z" fill="white"/>
<path d="M25.1582 14.8683C25.1582 15.3563 24.7627 15.7518 24.2747 15.7518C23.7867 15.7518 23.3911 15.3563 23.3911 14.8683C23.3911 13.3758 22.1769 12.1618 20.6844 12.1618C19.1919 12.1618 17.9777 13.3758 17.9777 14.8683V18.5018C17.3595 18.6878 16.7681 18.9362 16.2106 19.2395V14.8683C16.2106 12.4015 18.2173 10.395 20.6841 10.395C23.151 10.395 25.1577 12.4017 25.1577 14.8683H25.1582Z" fill="white"/>
</g>
<defs>
<clipPath id="clip0_1767_5406">
<rect width="41.369" height="48" fill="white"/>
</clipPath>
</defs>
</svg>
