<svg width="39" height="40" viewBox="0 0 39 40" fill="none" xmlns="http://www.w3.org/2000/svg">
<g clip-path="url(#clip0_1767_5413)">
<path d="M12.3302 29.9434H14.6268C15.2568 29.9434 15.7595 29.393 15.6729 28.7696C15.6022 28.2576 15.7326 27.5783 16.3598 26.7318V26.2981H12.0067L12.3307 29.9434H12.3302Z" fill="#1C4365"/>
<path d="M12.3867 40H10.1795C9.69043 40 9.27157 39.6497 9.18549 39.1683L6.9541 26.7323V26.0459H12.7261L12.759 26.7323L13.3955 38.9375C13.4257 39.5154 12.9651 40 12.3867 40Z" fill="#337AB7"/>
<path d="M4.56969 13.7426H1.42491C0.638167 13.7426 0 14.3802 0 15.1675V22.5212C0 23.3079 0.637618 23.9461 1.42491 23.9461H4.57024V13.7431L4.56969 13.7426Z" fill="#1C4365"/>
<path d="M38.8898 18.844C38.8898 20.8769 37.4073 22.5628 35.4648 22.8813H34.3881V14.8077H35.4648C37.4073 15.1252 38.8898 16.8122 38.8898 18.8445V18.844Z" fill="#337AB7"/>
<path d="M5.87182 10.9568H19.0113V26.7322H5.87182C4.68979 26.7322 3.73035 25.7728 3.73035 24.5907V13.0983C3.73035 11.9162 4.68979 10.9568 5.87182 10.9568Z" fill="#276192"/>
<path d="M33.0201 1.19849V36.4901H31.8765L17.9437 26.7317V10.9563L31.8765 1.19849H33.0201Z" fill="#DEE4ED"/>
<path d="M34.2664 0H33.0745C32.4126 0 31.876 0.536578 31.876 1.19848V36.4901C31.876 37.152 32.4126 37.6886 33.0745 37.6886H34.2664C34.9283 37.6886 35.4648 37.152 35.4648 36.4901V1.19848C35.4648 0.536578 34.9283 0 34.2664 0Z" fill="#276192"/>
</g>
<defs>
<clipPath id="clip0_1767_5413">
<rect width="38.8898" height="40" fill="white"/>
</clipPath>
</defs>
</svg>
