<svg width="117" height="19" viewBox="0 0 117 19" fill="none" xmlns="http://www.w3.org/2000/svg">
<g clip-path="url(#clip0_465_21551)">
<path d="M111.36 7.85064C109.282 7.11257 108.364 6.62303 108.364 5.51592C108.364 4.8155 108.804 3.75357 110.883 3.75357C112.844 3.75357 114.922 4.65734 114.922 4.65734V1.577C114.041 1.20797 112.484 0.838928 110.721 0.838928C107.725 0.838928 104.838 2.48077 104.838 5.71926C104.838 8.95776 107.717 9.86152 109.678 10.5168C111.522 11.1343 112.756 11.7444 112.756 12.9795C112.756 14.049 112.036 14.8699 109.678 14.8699C107.681 14.8699 105.279 14.049 105.279 14.049V17.1218C105.279 17.1218 107.6 17.777 109.84 17.777C112.8 17.777 116.281 16.7075 116.281 12.731C116.281 10.0272 114.122 8.83726 111.36 7.85064ZM35.96 17.5737V0.838928H31.4431L26.9996 13.3109L22.556 0.838928H18.0391V17.5737H21.1165V4.94353L25.5967 17.5737H28.1967L32.8753 4.94353V17.5737H35.9527H35.96ZM46.7567 0.838928H40.8002V4.07742C43.6425 3.95692 44.4431 3.91173 45.677 3.91173C47.638 3.91173 48.7985 4.64981 48.7985 6.6155V7.8883H45.677C40.4403 7.8883 38.8391 10.0649 38.8391 12.8891C38.8391 16.5419 41.4759 17.7695 44.1199 17.7695C46.764 17.7695 48.3578 16.4967 48.8793 16.1276V17.5661H52.3166V6.12596C52.3166 2.26989 50.2748 0.838928 46.7567 0.838928ZM48.7985 14.0038C47.9171 14.3352 46.316 14.9075 44.7957 14.9075C43.3561 14.9075 42.1956 14.2523 42.1956 12.6481C42.1956 11.2096 43.077 10.4716 44.994 10.3887L48.7911 10.223V13.9963L48.7985 14.0038ZM76.7963 3.70838H85.037V0.838928H73.2782V17.5737H85.037V14.7042H76.7963V10.6448H83.7958V7.81299H76.7963V3.70838ZM101.996 17.5737V0.838928H98.3969V13.5971C97.5156 14.0038 96.2743 14.6665 94.4749 14.6665C92.2348 14.6665 91.5517 13.3937 91.5517 10.69V0.838928H87.9528V11.1343C87.9528 15.4423 89.3116 17.777 93.5935 17.777C95.9952 17.777 97.1924 16.8732 98.4704 16.1352V17.5737H101.988H101.996ZM62.3567 0.838928H55.8787V17.5737H62.3567C67.8358 17.5737 70.5974 14.9904 70.5974 9.0406C70.5974 3.83642 67.6008 0.838928 62.3567 0.838928ZM62.1951 14.659H59.4776V3.75357H62.1951C64.9127 3.75357 66.9177 5.10922 66.9177 9.04813C66.9177 12.987 65.5957 14.6665 62.1951 14.6665V14.659ZM8.51306 0.838928H2.55654V4.07742C5.39892 3.95692 6.19949 3.91173 7.43339 3.91173C9.39442 3.91173 10.5549 4.64981 10.5549 6.6155V7.8883H7.43339C2.19665 7.89583 0.59552 10.0649 0.59552 12.8967C0.59552 16.5494 3.23225 17.777 5.87633 17.777C8.5204 17.777 10.1142 16.5042 10.6357 16.1352V17.5737H14.073V6.12596C14.073 2.26989 12.0311 0.838928 8.51306 0.838928ZM10.5549 14.0038C9.67351 14.3352 8.07238 14.9075 6.55203 14.9075C5.11248 14.9075 3.95203 14.2523 3.95203 12.6481C3.95203 11.2096 4.83339 10.4716 6.75034 10.3887L10.5475 10.223V13.9963L10.5549 14.0038Z" fill="#64748B"/>
</g>
<defs>
<clipPath id="clip0_465_21551">
<rect width="116" height="18" fill="white" transform="translate(0.59552 0.5)"/>
</clipPath>
</defs>
</svg>
