<svg width="117" height="33" viewBox="0 0 117 33" fill="none" xmlns="http://www.w3.org/2000/svg">
<g clip-path="url(#clip0_465_21550)">
<path d="M39.3764 16.0127C39.3764 11.8985 37.742 7.95275 34.8328 5.04356C31.9236 2.13437 27.9779 0.500001 23.8637 0.5C19.7495 0.499999 15.8038 2.13437 12.8946 5.04356C9.98541 7.95275 8.35104 11.8985 8.35104 16.0127H13.1988C14.8052 16.0127 16.058 14.6665 16.6464 13.1717C17.0327 12.1903 17.6189 11.2884 18.3791 10.5281C19.8337 9.07352 21.8066 8.25634 23.8637 8.25634C25.9208 8.25634 27.8937 9.07352 29.3483 10.5281C30.8029 11.9827 31.62 13.9556 31.62 16.0127H39.3764Z" fill="#64748B"/>
<path d="M30.44 21.9491C31.2196 20.067 31.6209 18.0498 31.6209 16.0127H39.3764C39.3764 24.5801 32.4311 31.5253 23.8637 31.5253C22.522 31.5253 21.22 31.355 19.9784 31.0348C20.6809 30.8538 21.3714 30.6233 22.0446 30.3445C23.9267 29.5649 25.6368 28.4223 27.0773 26.9818C28.5178 25.5413 29.6605 23.8312 30.44 21.9491Z" fill="#64748B"/>
<path d="M0.59552 16.0126C0.59552 18.0498 0.996767 20.067 1.77635 21.9491C2.55594 23.8312 3.69859 25.5413 5.13908 26.9818C6.57956 28.4222 8.28967 29.5649 10.1718 30.3445C12.0538 31.1241 14.071 31.5253 16.1082 31.5253C18.1453 31.5253 20.1625 31.1241 22.0446 30.3445C23.9267 29.5649 25.6368 28.4222 27.0773 26.9818C28.5178 25.5413 29.6604 23.8312 30.44 21.9491C31.2196 20.067 31.6209 18.0498 31.6209 16.0126H26.7731C25.1667 16.0126 23.9139 17.3588 23.3255 18.8535C23.3088 18.8961 23.2916 18.9385 23.2741 18.9809C22.8843 19.9219 22.313 20.777 21.5927 21.4972C20.8725 22.2174 20.0174 22.7888 19.0764 23.1786C18.1354 23.5684 17.1268 23.769 16.1082 23.769C15.0896 23.769 14.081 23.5684 13.14 23.1786C12.1989 22.7888 11.3439 22.2174 10.6236 21.4972C9.90339 20.777 9.33207 19.9219 8.94228 18.9809C8.55248 18.0398 8.35186 17.0312 8.35186 16.0126H0.59552Z" fill="#64748B"/>
<path d="M0.597107 16.0127C0.597107 7.44524 7.54235 0.5 16.1097 0.5C17.4511 0.5 18.7527 0.670246 19.9942 0.990323C17.3303 1.67657 14.8729 3.06535 12.8946 5.04357C9.98544 7.95273 8.35109 11.8985 8.35109 16.0127H0.597107Z" fill="#64748B"/>
<path d="M67.1033 14.1016H63.6815C63.619 13.6589 63.4914 13.2656 63.2986 12.9219C63.1059 12.5729 62.8585 12.276 62.5565 12.0312C62.2544 11.7865 61.9054 11.599 61.5096 11.4687C61.119 11.3385 60.6945 11.2734 60.2361 11.2734C59.408 11.2734 58.6867 11.4792 58.0721 11.8906C57.4575 12.2969 56.9809 12.8906 56.6424 13.6719C56.3039 14.4479 56.1346 15.3906 56.1346 16.5C56.1346 17.6406 56.3039 18.599 56.6424 19.375C56.9861 20.151 57.4653 20.737 58.0799 21.1328C58.6945 21.5286 59.4054 21.7266 60.2127 21.7266C60.6658 21.7266 61.0851 21.6667 61.4705 21.5469C61.8611 21.4271 62.2075 21.2526 62.5096 21.0234C62.8117 20.7891 63.0617 20.5052 63.2596 20.1719C63.4627 19.8385 63.6033 19.4583 63.6815 19.0312L67.1033 19.0469C67.0148 19.7812 66.7934 20.4896 66.4393 21.1719C66.0903 21.849 65.619 22.4557 65.0252 22.9922C64.4367 23.5234 63.7335 23.9453 62.9158 24.2578C62.1033 24.5651 61.1841 24.7187 60.158 24.7187C58.7309 24.7187 57.4549 24.3958 56.3299 23.75C55.2101 23.1042 54.3247 22.1693 53.6736 20.9453C53.0278 19.7214 52.7049 18.2396 52.7049 16.5C52.7049 14.7552 53.033 13.2708 53.6893 12.0469C54.3455 10.8229 55.2361 9.89062 56.3611 9.25C57.4861 8.60417 58.7518 8.28125 60.158 8.28125C61.0851 8.28125 61.9445 8.41146 62.7361 8.67187C63.533 8.93229 64.2387 9.3125 64.8533 9.8125C65.4679 10.3073 65.9679 10.9141 66.3533 11.6328C66.744 12.3516 66.994 13.1745 67.1033 14.1016ZM69.4666 24.5V12.5H72.7947V24.5H69.4666ZM71.1385 10.9531C70.6437 10.9531 70.2192 10.7891 69.8651 10.4609C69.5161 10.1276 69.3416 9.72917 69.3416 9.26562C69.3416 8.80729 69.5161 8.41406 69.8651 8.08594C70.2192 7.7526 70.6437 7.58594 71.1385 7.58594C71.6333 7.58594 72.0552 7.7526 72.4041 8.08594C72.7583 8.41406 72.9354 8.80729 72.9354 9.26562C72.9354 9.72917 72.7583 10.1276 72.4041 10.4609C72.0552 10.7891 71.6333 10.9531 71.1385 10.9531ZM80.8826 24.7344C79.6535 24.7344 78.5962 24.474 77.7108 23.9531C76.8305 23.4271 76.1535 22.6979 75.6795 21.7656C75.2108 20.8333 74.9764 19.7604 74.9764 18.5469C74.9764 17.3177 75.2134 16.2396 75.6873 15.3125C76.1665 14.3802 76.8462 13.6536 77.7264 13.1328C78.6066 12.6068 79.6535 12.3438 80.867 12.3438C81.9139 12.3438 82.8305 12.5339 83.617 12.9141C84.4035 13.2943 85.0259 13.8281 85.4842 14.5156C85.9425 15.2031 86.1951 16.0104 86.242 16.9375H83.1014C83.0128 16.3385 82.7785 15.8568 82.3983 15.4922C82.0233 15.1224 81.5311 14.9375 80.9217 14.9375C80.4061 14.9375 79.9555 15.0781 79.5701 15.3594C79.1899 15.6354 78.893 16.0391 78.6795 16.5703C78.466 17.1016 78.3592 17.7448 78.3592 18.5C78.3592 19.2656 78.4634 19.9167 78.6717 20.4531C78.8852 20.9896 79.1847 21.3984 79.5701 21.6797C79.9555 21.9609 80.4061 22.1016 80.9217 22.1016C81.3019 22.1016 81.643 22.0234 81.9451 21.8672C82.2524 21.7109 82.505 21.4844 82.7029 21.1875C82.9061 20.8854 83.0389 20.5234 83.1014 20.1016H86.242C86.1899 21.0182 85.9399 21.8255 85.492 22.5234C85.0493 23.2161 84.4373 23.7578 83.6561 24.1484C82.8748 24.5391 81.9503 24.7344 80.8826 24.7344ZM88.3729 24.5V12.5H91.701V24.5H88.3729ZM90.0447 10.9531C89.5499 10.9531 89.1255 10.7891 88.7713 10.4609C88.4223 10.1276 88.2479 9.72917 88.2479 9.26562C88.2479 8.80729 88.4223 8.41406 88.7713 8.08594C89.1255 7.7526 89.5499 7.58594 90.0447 7.58594C90.5395 7.58594 90.9614 7.7526 91.3104 8.08594C91.6645 8.41406 91.8416 8.80729 91.8416 9.26562C91.8416 9.72917 91.6645 10.1276 91.3104 10.4609C90.9614 10.7891 90.5395 10.9531 90.0447 10.9531ZM99.7889 24.7344C98.5753 24.7344 97.5259 24.4766 96.6404 23.9609C95.7602 23.4401 95.0805 22.7161 94.6014 21.7891C94.1222 20.8568 93.8826 19.776 93.8826 18.5469C93.8826 17.3073 94.1222 16.224 94.6014 15.2969C95.0805 14.3646 95.7602 13.6406 96.6404 13.125C97.5259 12.6042 98.5753 12.3438 99.7889 12.3438C101.002 12.3438 102.049 12.6042 102.93 13.125C103.815 13.6406 104.497 14.3646 104.976 15.2969C105.456 16.224 105.695 17.3073 105.695 18.5469C105.695 19.776 105.456 20.8568 104.976 21.7891C104.497 22.7161 103.815 23.4401 102.93 23.9609C102.049 24.4766 101.002 24.7344 99.7889 24.7344ZM99.8045 22.1562C100.357 22.1562 100.818 22 101.187 21.6875C101.557 21.3698 101.836 20.9375 102.023 20.3906C102.216 19.8437 102.312 19.2214 102.312 18.5234C102.312 17.8255 102.216 17.2031 102.023 16.6562C101.836 16.1094 101.557 15.6771 101.187 15.3594C100.818 15.0417 100.357 14.8828 99.8045 14.8828C99.2472 14.8828 98.7785 15.0417 98.3983 15.3594C98.0233 15.6771 97.7394 16.1094 97.5467 16.6562C97.3592 17.2031 97.2654 17.8255 97.2654 18.5234C97.2654 19.2214 97.3592 19.8437 97.5467 20.3906C97.7394 20.9375 98.0233 21.3698 98.3983 21.6875C98.7785 22 99.2472 22.1562 99.8045 22.1562Z" fill="#64748B"/>
</g>
<defs>
<clipPath id="clip0_465_21550">
<rect width="116" height="32" fill="white" transform="translate(0.59552 0.5)"/>
</clipPath>
</defs>
</svg>
