<svg width="85" height="45" viewBox="0 0 85 45" fill="none" xmlns="http://www.w3.org/2000/svg">
<g clip-path="url(#clip0_465_21553)">
<path d="M47.1507 41.0438C46.5705 41.0438 46.2099 41.359 45.9747 41.7058V39.6725H45.1122V44.9212H45.9747V42.7776C45.9747 42.1944 46.3196 41.8319 46.8214 41.8319C47.3389 41.8319 47.6211 42.1629 47.6211 42.7618V44.9212H48.4835V42.5096C48.4835 41.6112 47.9974 41.0438 47.1507 41.0438Z" fill="#64748B"/>
<path d="M51.1649 41.0438C50.0829 41.0438 49.3146 41.9264 49.3146 43.014V43.0298C49.3146 44.1961 50.1613 45 51.2589 45C51.9489 45 52.4507 44.7163 52.8113 44.2907L52.3095 43.8336C52.0116 44.1331 51.7137 44.2907 51.2903 44.2907C50.7415 44.2907 50.3024 43.9439 50.2084 43.3292H52.9681C52.9681 43.2504 52.9838 43.1716 52.9838 43.0928C52.9681 41.9895 52.3723 41.0438 51.1649 41.0438ZM50.177 42.7618C50.2554 42.1786 50.6317 41.7688 51.1492 41.7688C51.7137 41.7688 52.043 42.2101 52.1057 42.7618H50.177Z" fill="#64748B"/>
<path d="M52.7016 36.2049C52.7016 35.4799 52.435 35.4326 52.435 35.4326H52.043C51.3844 35.4326 50.7258 34.7706 50.7258 34.1086V27.4256C50.7258 24.7303 52.3252 23.1068 54.3951 23.1068C56.1669 23.1068 57.4684 24.0998 57.4684 26.2592V34.1086C57.4684 34.7706 56.8098 35.4326 56.1513 35.4326H55.7906C55.7906 35.4326 55.524 35.4956 55.524 36.1734C55.524 36.8511 55.7906 37.1979 55.7906 37.1979H63.5211C63.5211 37.1979 63.7876 36.8984 63.7876 36.2364C63.7876 35.5587 63.5211 35.4326 63.5211 35.4326H63.129C62.4705 35.4326 61.8119 34.7706 61.8119 34.1086V26.1016C61.8119 22.3187 59.4598 20.4746 56.0415 20.4746C53.517 20.4746 51.5883 21.6567 50.4122 23.4063C50.4122 23.4063 50.4122 21.6725 50.4122 21.4676C50.4122 20.9002 49.8791 20.711 49.2205 20.9632C48.7815 21.1366 46.5862 21.9247 44.7202 21.9247C44.6105 22.0666 44.4537 22.3503 44.4537 22.8074C44.4537 23.2172 44.5478 23.4221 44.7202 23.69H45.1122C45.7708 23.69 46.4294 24.352 46.4294 25.014V34.1086C46.4294 34.7706 45.7708 35.4326 45.1122 35.4326H44.7202C44.7202 35.4326 44.4537 35.4799 44.4537 36.1891C44.4537 36.8984 44.7202 37.2137 44.7202 37.2137H52.4507C52.4507 37.2137 52.7016 36.9457 52.7016 36.2049Z" fill="#64748B"/>
<path d="M38.4167 21.6883C37.2406 20.916 35.7824 20.4589 34.1673 20.4589C30.1217 20.4589 27.1581 23.1857 27.1581 26.5902C27.1581 28.6865 28.3028 30.3888 29.8708 31.4449L27.1268 34.8809C27.1268 34.8809 26.7818 35.5114 26.7818 36.1576C26.7818 36.7881 27.1738 37.2137 27.1738 37.2137H29.1182C27.6913 38.0648 27.0327 39.4834 27.0327 40.697C27.0327 43.0613 29.0868 45 33.6969 45C38.3226 45 42.6347 42.5412 42.6347 38.6638C42.6347 35.9054 41.0039 34.0456 36.927 34.0456H30.7646L31.972 32.4063C32.662 32.6428 33.2108 32.7373 34.183 32.7373C38.1971 32.7373 41.1921 29.979 41.1921 26.606C41.1921 25.5499 40.8942 24.5727 40.3924 23.7216H42.7758C42.9013 23.5009 43.0424 23.2014 43.0424 22.697C43.0424 22.303 42.9013 21.8774 42.7915 21.704L38.4167 21.6883ZM31.9563 37.2137H35.6099C37.7895 37.2137 38.5421 38.4431 38.5421 39.6883C38.5421 41.2645 37.0368 42.8722 34.3398 42.8722C31.7995 42.8722 30.3569 41.7216 30.3569 40.0193C30.3569 38.8687 30.9998 37.7181 31.9563 37.2137ZM34.1673 30.704C32.3483 30.704 31.1723 29.1594 31.1723 26.606C31.1723 24.0526 32.3483 22.5079 34.1673 22.5079C35.9705 22.5079 37.1309 24.0526 37.1309 26.606C37.1466 29.1594 35.9705 30.704 34.1673 30.704Z" fill="#64748B"/>
<path d="M15.0685 31.7128C14.5354 31.5236 14.112 31.697 14.112 31.697C12.9046 33.8091 11.807 34.7863 10.0979 34.7863C7.02449 34.7863 5.04876 31.9807 5.04876 28.655C5.04876 25.5657 6.42864 22.5236 9.59608 22.5236C11.5875 22.5236 13.1242 23.7688 13.1242 25.676L13.1712 26.275C13.1712 26.275 13.1085 26.5429 13.9396 26.5429C14.7706 26.5429 14.9901 26.275 14.9901 26.275L14.8177 21.9562C14.8177 21.9562 14.802 21.8459 14.7393 21.7671C14.6765 21.6883 14.5825 21.6252 14.5825 21.6252C13.3123 20.9002 11.6032 20.4746 9.59608 20.4746C4.95468 20.4904 0.59552 23.6427 0.59552 29.3485C0.59552 34.4553 4.42154 37.6708 8.81206 37.6708C12.936 37.6708 14.849 35.0701 15.7114 32.1699C15.7114 32.1699 15.4762 31.8546 15.0685 31.7128Z" fill="#64748B"/>
<path d="M20.933 19.3083C22.4227 19.3083 23.6458 18.0631 23.6458 16.5184C23.6458 14.9738 22.4384 13.7286 20.933 13.7286C19.4434 13.7286 18.2203 14.9738 18.2203 16.5184C18.236 18.0631 19.4434 19.3083 20.933 19.3083Z" fill="#64748B"/>
<path d="M23.0969 24.4308C23.0969 23.7688 23.7555 23.1068 24.4141 23.1068H24.8061C24.8061 23.1068 25.0727 22.9492 25.0727 22.303C25.0727 21.6567 24.8061 21.3415 24.8061 21.3415H17.0756C17.0756 21.3415 16.8091 21.7355 16.8091 22.366C16.8091 22.9965 17.0756 23.1226 17.0756 23.1226H17.4677C18.1262 23.1226 18.7848 23.7846 18.7848 24.4466V31.035V34.1401C18.7848 34.8021 18.1262 35.4641 17.4677 35.4641H17.0756C17.0756 35.4641 16.8091 35.5902 16.8091 36.2207C16.8091 36.8511 17.0756 37.2452 17.0756 37.2452H24.8061C24.8061 37.2452 25.0727 36.9142 25.0727 36.2837C25.0727 35.6532 24.8061 35.4798 24.8061 35.4798H24.4141C23.7555 35.4798 23.0969 34.8178 23.0969 34.1559V31.8862V24.4308Z" fill="#64748B"/>
<path d="M73.039 41.0596C72.4275 41.0596 72.0198 41.1857 71.5964 41.3748L71.8316 42.0683C72.1766 41.9265 72.4902 41.8319 72.9136 41.8319C73.5094 41.8319 73.8387 42.1156 73.8387 42.6358V42.7146C73.5408 42.62 73.2586 42.5569 72.7881 42.5569C71.91 42.5569 71.2515 42.951 71.2515 43.8021V43.8179C71.2515 44.5745 71.8787 44.9843 72.6 44.9843C73.1645 44.9843 73.5722 44.7478 73.8231 44.4326V44.9055H74.6855V42.6515C74.7012 41.6585 74.1523 41.0596 73.039 41.0596ZM73.8544 43.5499C73.8544 44.0228 73.431 44.3538 72.8509 44.3538C72.4432 44.3538 72.1139 44.1489 72.1139 43.8021V43.7864C72.1139 43.4238 72.4275 43.2032 72.9763 43.2032C73.3056 43.2032 73.6192 43.2662 73.8387 43.3608L73.8544 43.5499Z" fill="#64748B"/>
<path d="M76.5828 41.9738V41.1226H75.7204V44.9212H76.5828V43.4711C76.5828 42.4624 77.116 41.9738 77.8686 41.9738H77.9157V41.0596C77.2571 41.028 76.818 41.4063 76.5828 41.9738Z" fill="#64748B"/>
<path d="M83.0589 34.8494C83.0589 34.345 82.7923 34.1874 82.7923 34.1874H82.4003C81.7417 34.1874 81.0988 33.5254 81.0988 32.8634V21.2785C81.0988 21.2785 81.0675 20.9317 80.7068 20.9317H79.7033C79.5151 20.9317 79.3583 21.0893 79.3583 21.0893L77.9627 22.9177C77.8059 23.1384 77.6178 22.9177 77.6178 22.9177C76.6926 21.8144 75.1246 20.4589 72.3021 20.4589C68.0684 20.4589 64.0542 23.5482 64.0542 29.2224C64.0542 34.5184 67.5196 37.655 71.7846 37.655C74.2151 37.655 75.7518 36.6305 76.9592 35.0543V37.0088C76.9592 37.0088 76.9749 37.4501 77.4766 37.5604C77.9314 37.655 78.2763 37.5132 78.2763 37.5132L82.7923 35.5744C82.7923 35.606 83.0589 35.3695 83.0589 34.8494ZM72.6471 35.4956C69.7305 35.4956 68.5231 32.5955 68.5231 29.0806C68.5231 25.5499 69.7305 22.6655 72.6471 22.6655C75.5636 22.6655 76.771 25.5657 76.771 29.0806C76.771 32.6112 75.5636 35.4956 72.6471 35.4956Z" fill="#64748B"/>
<path d="M82.9648 41.7688L82.7609 41.7215C82.6825 41.7058 82.6355 41.69 82.6041 41.6742C82.5728 41.6585 82.5414 41.6269 82.5414 41.5797C82.5414 41.5324 82.5571 41.5008 82.6041 41.4693C82.6512 41.4378 82.6982 41.4378 82.7609 41.4378C82.8237 41.4378 82.8707 41.4536 82.9021 41.4693C82.9648 41.5008 82.9961 41.5481 82.9961 41.6269H83.2314C83.2314 41.5008 83.1843 41.4063 83.0902 41.3432C82.9961 41.2802 82.9021 41.2487 82.7766 41.2487C82.6355 41.2487 82.5101 41.2802 82.4317 41.359C82.3533 41.4378 82.3219 41.5166 82.3219 41.6269C82.3219 41.7373 82.3532 41.8318 82.4473 41.8791C82.4944 41.9107 82.5728 41.9422 82.6982 41.9737L82.8237 42.0052C82.9021 42.021 82.9491 42.0367 82.9805 42.0683C83.0118 42.084 83.0275 42.1156 83.0275 42.1628C83.0275 42.2259 82.9961 42.2732 82.9177 42.3047C82.8864 42.3205 82.8393 42.3205 82.7766 42.3205C82.6825 42.3205 82.6041 42.2889 82.5728 42.2417C82.5571 42.2101 82.5414 42.1786 82.5257 42.1156H82.2905C82.2905 42.2417 82.3376 42.3362 82.416 42.415C82.5101 42.4938 82.6198 42.5254 82.7766 42.5254C82.9334 42.5254 83.0432 42.4938 83.1216 42.415C83.2 42.3362 83.247 42.2574 83.247 42.1471C83.247 42.0367 83.2157 41.9579 83.1373 41.9107C83.1216 41.8318 83.0432 41.8003 82.9648 41.7688Z" fill="#64748B"/>
<path d="M84.2349 41.2643L84.0154 42.1943L83.7958 41.2643H83.4352V42.4465H83.6704V41.6426C83.6704 41.6269 83.6704 41.5796 83.6704 41.5481C83.6704 41.5008 83.6704 41.4692 83.6704 41.4535L83.8899 42.4465H84.1251L84.3446 41.4535C84.3446 41.4692 84.3446 41.5165 84.3446 41.5481C84.3446 41.5953 84.3446 41.6269 84.3446 41.6426V42.4465H84.5798V41.2643H84.2349Z" fill="#64748B"/>
<path d="M55.3515 41.0596C54.74 41.0596 54.3323 41.1857 53.9089 41.3748L54.1441 42.0683C54.4891 41.9265 54.8027 41.8319 55.2261 41.8319C55.8219 41.8319 56.1512 42.1156 56.1512 42.6358V42.7146C55.8533 42.62 55.5711 42.5569 55.1006 42.5569C54.2225 42.5569 53.564 42.951 53.564 43.8021V43.8179C53.564 44.5745 54.1912 44.9843 54.9125 44.9843C55.477 44.9843 55.869 44.7478 56.1356 44.4326V44.9055H56.998V42.6515C57.0137 41.6585 56.4648 41.0596 55.3515 41.0596ZM56.1826 43.5499C56.1826 44.0228 55.7592 44.3538 55.1791 44.3538C54.7714 44.3538 54.4578 44.1489 54.4578 43.8021V43.7864C54.4578 43.4238 54.7714 43.2032 55.3202 43.2032C55.6495 43.2032 55.9631 43.2662 56.1826 43.3608V43.5499Z" fill="#64748B"/>
<path d="M80.1893 41.0438C79.1074 41.0438 78.3391 41.9264 78.3391 43.014V43.0298C78.3391 44.1961 79.1858 45 80.2677 45C80.9577 45 81.4595 44.7163 81.8201 44.2907L81.3183 43.8336C81.0204 44.1331 80.7225 44.2907 80.2991 44.2907C79.7503 44.2907 79.3112 43.9439 79.2172 43.3292H81.9769C81.9769 43.2504 81.9926 43.1716 81.9926 43.0928C81.9926 41.9895 81.3811 41.0438 80.1893 41.0438ZM79.2015 42.7618C79.2799 42.1786 79.6562 41.7688 80.1737 41.7688C80.7538 41.7688 81.0674 42.2101 81.1302 42.7618H79.2015Z" fill="#64748B"/>
<path d="M69.2287 44.2434C68.5701 44.2434 68.0997 43.6918 68.0997 43.014V42.9982C68.0997 42.3362 68.5545 41.7846 69.1817 41.7846C69.6207 41.7846 69.903 41.9737 70.1539 42.2574L70.687 41.6743C70.342 41.2802 69.8873 41.028 69.1817 41.028C68.0527 41.028 67.2216 41.9264 67.2216 43.014V43.0298C67.2216 44.1016 68.0527 44.9842 69.166 44.9842C69.903 44.9842 70.342 44.6848 70.7027 44.275L70.1852 43.7548C69.9343 44.0543 69.6364 44.2434 69.2287 44.2434Z" fill="#64748B"/>
<path d="M58.9581 39.6725H58.0956V44.9212H58.9581V39.6725Z" fill="#64748B"/>
<path d="M61.122 40.0823H60.2595V41.1226H59.7891V41.8634H60.2595V43.8652C60.2595 44.7005 60.7143 44.9843 61.3415 44.9843C61.6551 44.9843 61.906 44.9055 62.1255 44.7951V44.0858C61.953 44.1646 61.7805 44.2119 61.5924 44.2119C61.2944 44.2119 61.122 44.0701 61.122 43.7391V41.8792H62.1412V41.1384H61.122V40.0823Z" fill="#64748B"/>
<path d="M65.0577 41.0438C64.4776 41.0438 64.1169 41.359 63.8817 41.7058V39.6725H63.0193V44.9212H63.8817V42.7776C63.8817 42.1944 64.2267 41.8319 64.7285 41.8319C65.2459 41.8319 65.5438 42.1629 65.5438 42.7618V44.9212H66.4063V42.5096C66.4063 41.6112 65.9045 41.0438 65.0577 41.0438Z" fill="#64748B"/>
<path fill-rule="evenodd" clip-rule="evenodd" d="M18.9259 6.98249C18.9259 5.23292 19.7256 3.65674 20.9487 2.6007C22.1875 3.65674 22.9715 5.23292 22.9558 6.98249C22.9558 8.73205 22.1718 10.3082 20.933 11.3643C19.7099 10.3082 18.9259 8.74781 18.9259 6.98249ZM25.0727 2.50613C24.5709 3.73555 24.665 5.05954 25.2138 6.16287C26.3898 5.78459 27.3934 4.91769 27.8951 3.68827C28.3969 2.45884 28.3028 1.13485 27.754 0.0315236C26.5937 0.409807 25.5901 1.27671 25.0727 2.50613ZM14.0023 3.65674C14.5041 4.88616 15.5076 5.76883 16.6836 6.14711C17.2481 5.04378 17.3422 3.71979 16.8404 2.49037C16.323 1.24518 15.3351 0.378284 14.1591 0C13.5946 1.10333 13.5005 2.42732 14.0023 3.65674ZM6.97745 12.3415C8.20052 12.8459 9.51768 12.7513 10.6153 12.1996C10.239 11.0175 9.37655 10.0088 8.15348 9.50438C6.93041 9 5.61325 9.07881 4.51562 9.64623C4.89196 10.8284 5.75438 11.8371 6.97745 12.3415ZM33.7126 9.56742C32.4895 10.0718 31.6114 11.0806 31.2351 12.2627C32.3327 12.8301 33.6498 12.9247 34.8729 12.4203C36.096 11.9159 36.9741 10.9072 37.3504 9.72504C36.2685 9.15762 34.9513 9.04728 33.7126 9.56742ZM30.404 14.5166C28.6635 14.5166 27.0954 15.3047 26.0448 16.5341C27.0954 17.7793 28.6478 18.5674 30.404 18.5674C32.1602 18.5674 33.7126 17.7793 34.7631 16.5499C33.7126 15.3205 32.1445 14.5166 30.404 14.5166ZM26.2173 8.36953C24.9786 9.61471 24.4298 11.2697 24.5552 12.8932C26.1703 13.035 27.8324 12.4834 29.0712 11.2382C30.3099 9.99299 30.8587 8.338 30.7333 6.71453C29.1182 6.58844 27.4561 7.12434 26.2173 8.36953ZM11.4777 14.5166C9.7372 14.5166 8.16916 15.3205 7.11857 16.5499C8.16916 17.7951 9.7372 18.5832 11.4777 18.5674C13.2183 18.5517 14.7863 17.7793 15.8369 16.5341C14.7863 15.3047 13.2339 14.5166 11.4777 14.5166ZM15.6644 8.36953C14.4256 7.12434 12.7635 6.58844 11.1484 6.71453C11.023 8.338 11.5718 10.0088 12.8106 11.2382C14.0493 12.4676 15.7114 13.0193 17.3265 12.8932C17.452 11.2697 16.9032 9.59895 15.6644 8.36953Z" fill="#64748B"/>
</g>
<defs>
<clipPath id="clip0_465_21553">
<rect width="84" height="45" fill="white" transform="translate(0.59552)"/>
</clipPath>
</defs>
</svg>
