<svg width="120" height="33" viewBox="0 0 120 33" fill="none" xmlns="http://www.w3.org/2000/svg">
<path d="M43.0768 18.7471H44.7391V24.2143C45.247 23.1023 46.1243 22.1757 47.602 22.1757C50.1416 22.1757 51.0651 23.8436 51.0651 25.7896V32.0444H49.4028V25.9749C49.4028 24.2606 48.664 23.612 47.3711 23.612C45.9396 23.612 44.6929 24.8166 44.6929 27.3185V32.0444H43.0306V18.7471H43.0768ZM40.9065 30.7007C40.1677 30.7007 39.6598 30.2374 39.6598 29.3571V23.7973H41.5068V22.4073H39.6598V19.3958L38.0437 20.1371V22.4073H36.6122V23.7973H38.0437V29.4961C38.0437 30.9787 38.8748 32.0907 40.7218 32.0907H41.553V30.7007H40.9065ZM35.2732 18.7471H33.6108V32.0907H35.2732V18.7471ZM27.3772 22.1757C24.8837 22.1757 23.6832 23.9363 23.4985 25.3262H25.1608C25.3916 24.2606 26.269 23.5656 27.4234 23.5656C28.8086 23.5656 29.5474 24.1679 29.5474 24.9556C29.5474 25.7432 29.1318 26.1139 27.8851 26.3455C26.4537 26.6235 22.9905 26.7162 22.9905 29.4498C22.9905 30.8397 24.0526 32.3224 26.3613 32.3224C28.4854 32.3224 29.3165 31.0714 29.5474 30.3301V30.7007C29.5474 31.2567 29.5474 31.6274 29.5936 32.0907H31.3944C31.3021 31.6274 31.2559 30.8397 31.2559 30.1448V26.0212C31.2097 24.4459 30.8865 22.1757 27.3772 22.1757ZM26.6845 30.9324C25.5302 30.9324 24.6528 30.3301 24.6528 29.4498C24.6528 28.4768 25.484 28.0598 26.8693 27.8282C28.9471 27.4575 29.3627 26.9015 29.5474 26.2529V27.5965C29.5936 29.9594 28.1622 30.9324 26.6845 30.9324ZM17.1724 32.276C19.2965 32.276 20.9126 31.2567 21.4667 29.1718H19.8506C19.5274 30.3764 18.4192 30.8861 17.1724 30.8861C15.464 30.8861 14.2172 29.7278 14.0787 27.6892H21.6514V27.4112C21.6053 24.9092 20.5432 22.222 17.1724 22.222C14.4481 22.222 12.4626 24.3069 12.4626 27.2258C12.4626 30.0984 14.3558 32.276 17.1724 32.276ZM14.0787 26.3455C14.3096 24.6776 15.4178 23.5656 17.1263 23.5656C18.8348 23.5656 19.7583 24.6776 19.8968 26.3455H14.0787ZM8.76854 18.7471V24.6313H2.35018V18.7471H0.59552V32.0907H2.35018V26.1139H8.76854V32.0444H10.5232V18.7471H8.76854ZM110.724 4.33789H113.078V6.00584C113.633 4.89387 114.464 4.10623 115.941 4.10623C118.435 4.10623 119.404 5.72785 119.404 8.13711V14.0213H117.003V8.69309C117.003 7.30313 116.634 6.19117 115.249 6.19117C113.956 6.19117 113.078 7.34947 113.078 9.66606V13.9749H110.677V4.33789H110.724ZM105.967 14.0213H108.369V4.33789H105.967V14.0213ZM106.014 2.9016H108.507V0.677673H106.014V2.9016ZM99.6877 4.0599C97.148 4.0599 95.8551 5.72785 95.5781 7.30313H97.8406C98.0715 6.42283 98.8103 5.86684 99.7338 5.86684C100.842 5.86684 101.489 6.33016 101.489 7.07147C101.489 7.90545 100.888 8.09078 99.6415 8.2761C98.3024 8.46143 95.1163 8.73942 95.1163 11.3803C95.1163 13.002 96.363 14.2529 98.4871 14.2529C100.288 14.2529 101.119 13.2799 101.489 12.4923V12.9556C101.489 13.2799 101.488 13.6506 101.581 13.9286H103.982C103.843 13.3263 103.797 12.307 103.797 11.5657V8.09078C103.843 5.77418 102.735 4.0599 99.6877 4.0599ZM99.1797 12.4923C98.1177 12.4923 97.5636 11.9363 97.5636 11.2413C97.5636 10.5 98.1639 10.1294 99.4106 9.85139C100.842 9.57339 101.304 9.15641 101.535 8.69309V9.52706C101.535 11.751 100.38 12.4923 99.1797 12.4923ZM93.3155 12.1216C92.2996 12.1216 92.0687 11.473 92.0687 10.361V6.14484H94.0081V4.33789H92.0687V1.14099L89.76 2.16029V4.33789H88.2362V6.14484H89.76V10.6854C89.76 12.6313 90.4526 14.0676 92.8075 14.0213H93.9619V12.1216H93.3155ZM78.3085 14.0213H80.7096V9.71239C80.7096 7.34946 81.587 6.2375 82.8799 6.2375C84.2651 6.2375 84.6345 7.34947 84.6345 8.73942V14.0676H87.0356V8.09078C87.0356 5.72785 86.0659 4.0599 83.5725 4.0599C82.0949 4.0599 81.2176 4.84754 80.7096 5.95951V4.29156H78.3085V14.0213ZM67.365 10.2684C67.365 12.6313 68.3346 14.2992 70.8281 14.2992C72.3057 14.2992 73.1831 13.5116 73.691 12.3996V14.0676H76.0459V4.33789H73.691V8.64676C73.691 11.0097 72.8136 12.1216 71.5207 12.1216C70.2278 12.1216 69.7661 11.0097 69.7661 9.61973V4.33789H67.365V10.2684ZM55.7288 9.15641C55.7288 12.2606 57.9452 14.2529 60.7619 14.2529C63.5786 14.2529 65.795 12.2606 65.795 9.15641C65.795 6.05217 63.5786 4.0599 60.7619 4.0599C57.9452 4.0599 55.7288 6.0985 55.7288 9.15641ZM60.7619 12.3996C59.1458 12.3996 58.0837 10.917 58.0837 9.20274C58.0837 7.44213 59.1458 6.00584 60.7619 6.00584C62.378 6.00584 63.4401 7.44213 63.4401 9.20274C63.4862 10.917 62.4242 12.3996 60.7619 12.3996ZM40.2601 14.0213H42.6612V9.71239C42.6612 7.81278 43.0306 6.2375 44.5082 6.2375C45.8473 6.2375 46.0782 7.34947 46.0782 8.73942V14.0676H48.3869V9.4344C48.3869 7.3958 49.1257 6.2375 50.2339 6.2375C51.4345 6.2375 51.8039 7.34947 51.8039 8.73942V14.0676H54.1588V8.09078C54.1588 5.72785 52.9583 4.0599 50.5572 4.0599C49.1719 4.0599 48.4331 4.70855 47.879 5.86684C47.4173 4.61588 46.4937 4.0599 45.2008 4.0599C43.8156 4.0599 42.8921 4.98654 42.615 5.91318V4.33789H40.2601V14.0213ZM36.0581 4.33789H33.7032V13.9749H36.1043V9.61973C36.1043 7.2568 36.9816 6.79348 37.8128 6.60815C38.136 6.46916 38.8287 6.46916 38.9672 6.46916V4.1989C37.6281 4.1989 36.5661 4.70855 36.0581 6.00584V4.33789ZM27.2387 14.2992C29.5474 14.2992 31.2559 13.0946 31.81 11.1487H29.4089C29.0395 11.9827 28.2083 12.3533 27.1925 12.3533C25.8072 12.3533 24.7452 11.3803 24.5605 9.85139H31.9485V9.38807C31.9485 6.51549 30.4709 4.10623 27.2387 4.10623C24.3758 4.10623 22.2979 6.2375 22.2979 9.20274C22.2979 12.168 24.3296 14.2992 27.2387 14.2992ZM24.6067 8.22977C24.8375 6.83981 25.761 5.91318 27.1925 5.91318C28.7163 5.91318 29.5012 6.97881 29.6398 8.22977H24.6067ZM20.5894 12.1216C19.5736 12.1216 19.3427 11.473 19.3427 10.361V6.14484H21.282V4.33789H19.3427V1.14099L17.0339 2.16029V4.33789H15.5101V6.14484H17.0339V10.6854C17.0339 12.6313 17.7265 14.0676 20.0815 14.0213H21.2359V12.1216H20.5894ZM5.58245 14.0213H7.98356V9.71239C7.98356 7.34946 8.86089 6.2375 10.1538 6.2375C11.5391 6.2375 11.9085 7.34947 11.9085 8.73942V14.0676H14.3096V8.09078C14.3096 5.72785 13.3399 4.0599 10.8464 4.0599C9.36882 4.0599 8.49149 4.84754 7.98356 5.95951V4.29156H5.62863V14.0213H5.58245ZM3.13516 0.677673H0.641698V14.0213H3.13516V0.677673Z" fill="#64748B"/>
</svg>
