<svg width="151" height="23" viewBox="0 0 151 23" fill="none" xmlns="http://www.w3.org/2000/svg">
<g clip-path="url(#clip0_465_21539)">
<path fill-rule="evenodd" clip-rule="evenodd" d="M112.917 1.53029V6.71996L110.377 12.0092H112.917V14.6517H109.104L106.683 19.5711H103.658L112.831 1.38678L112.917 1.53029ZM128.711 5.34745H124.168V11.666H128.711V14.266H124.168V19.5706H122.175L123.881 22.8862H120.871L117.918 17.1668L116.715 14.6512H112.917V12.0092H115.439L112.917 6.71996V1.53029L121.53 18.3125V2.71588H128.71V5.34745H128.711ZM133.254 8.44853C133.254 6.3772 132.165 5.34745 129.971 5.34745H128.711L128.71 2.71588H129.641C133.755 2.71588 135.821 4.61904 135.821 8.41845C135.821 11.2359 134.744 13.036 132.609 13.8231L135.963 19.5706H133.125L130.043 14.266H129.641H128.711V11.666H129.971C132.165 11.666 133.254 10.5928 133.254 8.44853Z" fill="#64748B"/>
<path fill-rule="evenodd" clip-rule="evenodd" d="M95.5028 22.8862H92.8653V2.71588H100.046V5.34745H95.5028V11.666H100.046V14.266H95.5028V22.8862ZM100.046 2.71588H100.964C105.092 2.71588 107.139 4.61904 107.139 8.41845C107.139 12.3362 105.091 14.266 100.964 14.266H100.046V11.666H101.293C103.487 11.666 104.591 10.5924 104.591 8.44804C104.591 6.3772 103.487 5.34745 101.293 5.34745H100.046V2.71588Z" fill="#64748B"/>
<path fill-rule="evenodd" clip-rule="evenodd" d="M146.64 19.5711L139.876 13.6796V19.5834H137.239V2.71637H139.876V8.67933L146.64 2.73018H150.596L141.066 11.192L150.596 19.5711H146.64Z" fill="#64748B"/>
<path fill-rule="evenodd" clip-rule="evenodd" d="M21.3335 16.9533H29.0448V19.5711H18.6674V2.71588H29.0448V5.34795H21.3335V8.22068H29.0448V10.8488H21.3335V16.9533Z" fill="#64748B"/>
<path fill-rule="evenodd" clip-rule="evenodd" d="M30.9658 2.71588H37.0423C37.4141 2.71588 37.7875 2.72969 38.146 2.76076V5.34745H37.7726H33.6013V16.9247H37.7726C37.9027 16.9247 38.0159 16.9247 38.146 16.9124V19.5405C37.8018 19.5538 37.4572 19.5711 37.0843 19.5711H30.9658V2.71588ZM38.146 2.76076C42.9611 3.10253 45.3692 5.80463 45.3692 10.8483C45.3692 16.2836 42.9611 19.1839 38.146 19.5405V16.9124C41.1691 16.7674 42.6901 14.7385 42.6901 10.8483C42.6901 7.32015 41.1691 5.49146 38.146 5.34745V2.76076Z" fill="#64748B"/>
<path d="M49.855 2.71588H47.218V19.5706H49.855V2.71588Z" fill="#64748B"/>
<path fill-rule="evenodd" clip-rule="evenodd" d="M13.9946 19.5834V8.12007L9.33723 17.0529H7.9186L3.26071 8.12007V19.5711H0.59552V2.71588H3.26071L8.62074 13.0651L13.9946 2.71588H16.647V19.5834H13.9946Z" fill="#64748B"/>
<path fill-rule="evenodd" clip-rule="evenodd" d="M72.0551 6.71945L69.5329 12.0087H72.0551V14.6517H68.2729L68.0712 15.0649L68.0282 15.1404C67.7701 15.6518 66.7955 16.9977 66.2812 17.5126C65.5212 18.2247 64.6594 18.784 63.6863 19.1977C62.6246 19.6549 61.5076 19.8704 60.3461 19.8704C59.1431 19.8704 58.0102 19.6544 56.9496 19.1977C55.889 18.7272 54.9431 18.0965 54.14 17.297C53.3524 16.5099 52.7071 15.5813 52.2349 14.5239C51.7898 13.4814 51.5599 12.3515 51.5599 11.1516C51.5599 9.9818 51.7898 8.84898 52.2349 7.79211C52.7071 6.73573 53.3524 5.80511 54.14 5.01751C54.9431 4.20427 55.889 3.57597 56.9496 3.1183C58.0102 2.64436 59.1431 2.41898 60.3461 2.41898C61.5076 2.41898 62.6246 2.64436 63.7149 3.1183C63.8578 3.18932 64.0017 3.26083 64.1436 3.31853C64.2865 3.38856 64.4314 3.46007 64.5738 3.54588L63.1265 5.7484C63.042 5.71881 62.9693 5.67639 62.8976 5.64878C62.8397 5.59107 62.7537 5.5605 62.6686 5.51956C62.325 5.34794 61.9368 5.23402 61.5363 5.16251C61.1486 5.08902 60.7461 5.04661 60.3461 5.04661C59.5021 5.04661 58.7129 5.20443 57.9667 5.54817C57.2221 5.86084 56.5763 6.3047 56.018 6.86297C55.4593 7.42124 55.0138 8.06237 54.6706 8.80656C54.3556 9.55027 54.1821 10.3236 54.1821 11.1516C54.1821 11.993 54.3556 12.7791 54.6706 13.5223C55.0138 14.2522 55.4593 14.8943 56.018 15.4521C56.5763 16.0108 57.2221 16.4547 57.9667 16.7679C58.7129 17.0978 59.5021 17.2551 60.3461 17.2551C61.1907 17.2551 61.9645 17.0978 62.6973 16.7679C63.4276 16.4547 64.0739 16.0108 64.6183 15.4521C64.646 15.4402 64.6594 15.4254 64.6757 15.4116C64.7182 15.3525 65.3487 14.594 65.9643 13.4384L71.9839 1.38727L72.0551 1.52979V6.71945ZM72.071 6.71945H72.0551V1.5293L80.6688 18.3125V0.113892H83.2929V16.9533H91.1466V19.5711H81.3141L83.019 22.8867H79.9958L77.0582 17.1673L75.8531 14.6517H72.0551V12.0087H74.5784L72.071 6.71945Z" fill="#64748B"/>
</g>
<defs>
<clipPath id="clip0_465_21539">
<rect width="150" height="22.7723" fill="white" transform="translate(0.59552 0.113892)"/>
</clipPath>
</defs>
</svg>
