<svg width="32" height="38" viewBox="0 0 32 38" fill="none" xmlns="http://www.w3.org/2000/svg">
<g clip-path="url(#clip0_465_21518)">
<path d="M9.80424 4.41897C10.4169 4.73755 10.956 5.00712 11.4707 5.25218C12.1813 5.59527 12.4264 5.52175 12.794 4.83558C13.4066 3.70829 14.0193 2.5565 14.632 1.40471C14.73 1.23316 14.828 1.06162 14.9996 0.792053C15.1956 1.15965 15.3671 1.45372 15.5387 1.74779C16.1023 2.80156 16.666 3.85533 17.2541 4.90909C17.5972 5.52175 17.8423 5.59527 18.4549 5.30119C19.0186 5.03162 19.5577 4.73755 20.2194 4.41897C19.9743 5.76681 19.7292 7.01663 19.5087 8.26644C19.3371 9.17317 19.1411 10.0554 19.0186 10.9621C18.9696 11.3052 19.0186 11.8198 19.2391 11.9669C19.6067 12.2364 19.9008 11.8198 20.1704 11.5503C21.0526 10.57 21.9348 9.56527 22.9151 8.487C23.0621 8.97712 23.1846 9.39373 23.3071 9.78583C23.5277 10.521 23.6992 10.619 24.4099 10.472C25.3167 10.276 26.2234 10.0799 27.1546 9.88385C27.3262 9.85934 27.4732 9.83484 27.7428 9.78583C27.6202 10.2514 27.5222 10.6435 27.4242 11.0356C27.1791 11.9424 26.9586 12.8491 26.689 13.7313C26.542 14.1969 26.64 14.491 27.1301 14.6871C27.5222 14.8341 27.8898 15.0302 28.3309 15.2507C28.1349 15.4223 27.9633 15.5693 27.8163 15.6918C25.9783 17.1867 24.1159 18.7061 22.2779 20.201C21.5672 20.7646 21.5427 20.9116 21.7878 21.7694C21.9103 22.2105 22.0573 22.6271 22.2044 23.1662C21.2731 23.0437 20.4399 22.9457 19.6067 22.8476C18.5039 22.7006 17.3767 22.529 16.2739 22.382C15.5632 22.284 15.3426 22.4555 15.3671 23.2152C15.4162 25.1022 15.4652 26.9892 15.4897 28.8762C15.4897 29.0722 15.4897 29.2928 15.4897 29.5623C15.2936 29.5868 15.1221 29.5868 14.975 29.6113C14.5829 29.6604 14.4359 29.5133 14.4604 29.0967C14.5584 27.1852 14.632 25.2982 14.73 23.3868C14.779 22.48 14.5829 22.284 13.6762 22.4065C12.0098 22.6271 10.3434 22.8721 8.70146 23.0927C8.4564 23.1172 8.18683 23.1417 7.84374 23.1907C7.99078 22.7006 8.11331 22.3085 8.23584 21.9164C8.52992 20.9607 8.4809 20.8381 7.72121 20.201C5.93226 18.7551 4.14331 17.2847 2.35435 15.8389C2.1583 15.6673 1.96226 15.4958 1.71719 15.2997C2.15831 15.1037 2.50139 14.9076 2.86898 14.7606C3.38361 14.5645 3.48164 14.246 3.3346 13.7313C2.96701 12.4815 2.64843 11.2072 2.28084 9.85935C2.50139 9.88385 2.67294 9.88385 2.81997 9.93286C3.67769 10.1044 4.53541 10.3005 5.39312 10.472C6.44689 10.6926 6.52041 10.6435 6.81448 9.58978C6.91251 9.2712 7.01053 8.95262 7.13306 8.53601C8.0643 9.58978 8.94652 10.57 9.82874 11.5258C10.0983 11.8198 10.3434 12.31 10.8335 12.0649C11.3236 11.8198 11.0786 11.3297 11.0295 10.9376C10.662 8.97712 10.2944 7.01663 9.92677 5.03162C9.85325 4.83558 9.85325 4.68854 9.80424 4.41897Z" fill="#30506F"/>
<path d="M20.3909 33.9979C20.3909 33.0177 20.3909 32.0619 20.3909 31.0817C20.3909 30.7141 20.5134 30.5671 20.9055 30.5916C21.6407 30.6161 22.4004 30.5916 23.1356 30.6161C24.2138 30.6406 24.998 31.1797 25.3901 32.1845C25.8803 33.4588 25.8803 34.7576 25.3166 36.0074C24.8755 37.0367 24.0178 37.4533 22.9395 37.4778C22.2778 37.5023 21.6162 37.4778 20.93 37.5023C20.5379 37.5268 20.3909 37.3798 20.3909 36.9877C20.4154 35.9829 20.3909 35.0027 20.3909 33.9979ZM21.5427 31.6453C21.5427 33.2627 21.5427 34.8311 21.5427 36.424C22.4739 36.326 23.5522 36.7671 24.1403 35.7869C24.802 34.7331 24.802 33.5568 24.2628 32.454C23.6992 31.3022 22.5474 31.7679 21.5427 31.6453Z" fill="#30506F"/>
<path d="M15.6612 31.6699C15.6612 32.258 15.6612 32.7971 15.6612 33.3853C16.5925 33.3853 17.4992 33.4098 18.4059 33.3853C18.8225 33.3853 18.9941 33.5078 18.9941 33.9244C18.9941 34.3165 18.8715 34.4636 18.4549 34.4636C17.5482 34.4391 16.6415 34.4636 15.6612 34.4636C15.6612 35.1252 15.6612 35.7379 15.6612 36.4486C16.666 36.4486 17.6707 36.4731 18.6755 36.4241C19.2391 36.3995 19.4352 36.6201 19.3126 37.1102C19.2636 37.2573 19.0431 37.4778 18.896 37.4778C17.5727 37.5023 16.2739 37.4778 14.9505 37.5023C14.5829 37.5023 14.4849 37.3553 14.4849 37.0122C14.4849 35.0272 14.4849 33.0422 14.4849 31.0817C14.4849 30.7386 14.6075 30.6161 14.9505 30.6161C16.2004 30.6161 17.4747 30.6406 18.7245 30.6161C19.1411 30.6161 19.1901 30.8121 19.1901 31.1552C19.1901 31.4983 19.1411 31.6944 18.7245 31.6944C17.7442 31.6699 16.7395 31.6699 15.6612 31.6699Z" fill="#30506F"/>
<path d="M31.3452 37.5023C31.0021 37.5759 30.8305 37.4043 30.708 37.0122C30.561 36.4976 30.4629 35.8359 30.0954 35.5908C29.7278 35.3458 29.0661 35.5418 28.5515 35.4928C28.0368 35.4438 27.7428 35.5908 27.6447 36.13C27.5712 36.4731 27.4487 36.8162 27.3016 37.1592C27.2281 37.3063 27.0811 37.4778 26.9341 37.4778C26.1499 37.6004 26.0518 37.4778 26.3214 36.7181C26.9831 34.8557 27.6447 32.9932 28.2819 31.1307C28.4044 30.7876 28.527 30.5916 28.9436 30.5916C29.3602 30.6161 29.5807 30.6651 29.7523 31.1062C30.4384 33.0177 31.1736 34.9292 31.8843 36.8162C32.1049 37.4778 32.0804 37.5023 31.3452 37.5023ZM28.9926 32.0865C28.6985 32.9687 28.4534 33.7039 28.2084 34.4636C28.7965 34.4636 29.2621 34.4636 29.8258 34.4636C29.5562 33.6794 29.2867 32.9442 28.9926 32.0865Z" fill="#30506F"/>
<path d="M1.27606 34.7821C1.27606 35.5908 1.25155 36.277 1.27606 36.9877C1.30056 37.4533 1.08001 37.5023 0.687909 37.5268C0.271304 37.5268 0.173279 37.3553 0.173279 36.9877C0.197785 35.0517 0.197785 33.1157 0.173279 31.1552C0.173279 30.7631 0.271304 30.6161 0.687909 30.6161C1.49661 30.6406 2.32982 30.6161 3.13853 30.6406C4.36384 30.6896 5.07452 31.4248 5.07452 32.6501C5.07452 33.8999 4.38834 34.6841 3.18754 34.7821C2.57489 34.8066 1.93772 34.7821 1.27606 34.7821ZM1.30056 33.7039C1.96223 33.7039 2.57489 33.7529 3.16303 33.7039C3.70217 33.6549 3.99625 33.2137 3.97174 32.6501C3.94723 32.0865 3.62865 31.7189 3.06501 31.6944C2.47686 31.6699 1.91322 31.6944 1.30056 31.6944C1.30056 32.3805 1.30056 33.0177 1.30056 33.7039Z" fill="#30506F"/>
<path d="M9.73068 34.7822C9.73068 35.5909 9.70617 36.277 9.73068 36.9632C9.75518 37.4043 9.58364 37.5268 9.16704 37.5268C8.77494 37.5268 8.6279 37.4043 8.6279 37.0122C8.65241 35.0517 8.65241 33.0912 8.6279 31.1307C8.6279 30.7631 8.75043 30.6161 9.11802 30.6406C9.92673 30.6651 10.7599 30.6406 11.5686 30.6651C12.8185 30.7141 13.5046 31.4248 13.5291 32.6501C13.5536 33.9489 12.8675 34.7331 11.5931 34.8067C11.005 34.8067 10.4169 34.7822 9.73068 34.7822ZM9.75518 33.7039C10.4169 33.7039 11.0295 33.7529 11.6177 33.7039C12.1568 33.6549 12.4264 33.2628 12.4264 32.6991C12.4264 32.209 12.2303 31.7679 11.6912 31.7189C11.054 31.6699 10.4169 31.6944 9.75518 31.6944C9.75518 32.3805 9.75518 33.0177 9.75518 33.7039Z" fill="#30506F"/>
<path d="M6.17734 34.0715C6.17734 33.0912 6.20184 32.0865 6.17734 31.1062C6.17734 30.6896 6.34888 30.5916 6.71647 30.5916C7.08407 30.5916 7.28012 30.6651 7.28012 31.0817C7.25561 33.0422 7.25561 35.0027 7.28012 36.9632C7.28012 37.4043 7.10857 37.5023 6.69197 37.5023C6.29987 37.5023 6.15283 37.3798 6.15283 36.9632C6.20184 36.0075 6.17734 35.0272 6.17734 34.0715Z" fill="#30506F"/>
</g>
<defs>
<clipPath id="clip0_465_21518">
<rect width="31.8335" height="36.7348" fill="white" transform="translate(0.173279 0.792023)"/>
</clipPath>
</defs>
</svg>
