<svg width="236" height="180" viewBox="0 0 236 180" fill="none" xmlns="http://www.w3.org/2000/svg">
<path d="M118 179.863C54.0395 179.863 0 173.472 0 165.907C0 158.343 54.0395 151.953 118 151.953C181.961 151.953 236 158.346 236 165.907C236 173.469 181.961 179.863 118 179.863Z" fill="#EBF2F8"/>
<path d="M43.697 165.275C41.5009 165.272 39.3954 164.399 37.8426 162.846C36.2898 161.293 35.4164 159.187 35.4141 156.991V46.1475C35.4132 43.9481 36.2848 41.8381 37.8376 40.2805C39.3904 38.7229 41.4976 37.8448 43.697 37.8388H188.167C190.366 37.8448 192.473 38.7229 194.026 40.2805C195.579 41.8381 196.45 43.9481 196.45 46.1475V156.991C196.447 159.187 195.574 161.293 194.021 162.846C192.468 164.399 190.363 165.272 188.167 165.275H43.697Z" fill="white" stroke="#337AB7" stroke-width="1.09281"/>
<path d="M188.169 38.1585C190.284 38.1642 192.31 39.0086 193.803 40.5063C195.296 42.004 196.134 44.0328 196.133 46.1475V156.992C196.13 159.103 195.291 161.127 193.798 162.62C192.305 164.114 190.281 164.954 188.169 164.956H43.6997C41.5883 164.954 39.5642 164.114 38.0713 162.62C36.5784 161.127 35.7387 159.103 35.7364 156.992V46.1475C35.7354 44.0328 36.5732 42.004 38.0661 40.5063C39.559 39.0086 41.585 38.1642 43.6997 38.1585H188.169ZM188.169 37.5197H43.6997C41.4151 37.5236 39.2255 38.4347 37.6124 40.0526C35.9993 41.6705 35.0948 43.8628 35.0977 46.1475V156.992C35.0967 158.122 35.3186 159.241 35.7505 160.285C36.1825 161.329 36.8161 162.278 37.615 163.077C38.414 163.876 39.3626 164.509 40.4067 164.941C41.4508 165.373 42.5698 165.595 43.6997 165.594H188.169C189.299 165.595 190.418 165.373 191.462 164.941C192.506 164.509 193.455 163.876 194.254 163.077C195.053 162.278 195.686 161.329 196.118 160.285C196.55 159.241 196.772 158.122 196.771 156.992V46.1475C196.774 43.8628 195.87 41.6705 194.257 40.0526C192.644 38.4347 190.454 37.5236 188.169 37.5197Z" fill="#EBF2F8" stroke="#337AB7" stroke-width="2.18562"/>
<path d="M35.4141 66.5502V46.148C35.4132 43.9486 36.2848 41.8387 37.8376 40.281C39.3904 38.7234 41.4976 37.8453 43.697 37.8394H188.167C190.366 37.8452 192.473 38.7232 194.026 40.2808C195.579 41.8385 196.451 43.9485 196.45 46.148V66.5508L35.4141 66.5502Z" fill="#EBF2F8" stroke="#337AB7" stroke-width="1.09281"/>
<path d="M188.169 38.1585C190.284 38.1642 192.31 39.0086 193.803 40.5063C195.296 42.004 196.134 44.0328 196.133 46.1475V66.2306H35.7364V46.1475C35.7354 44.0328 36.5732 42.004 38.0661 40.5063C39.559 39.0086 41.585 38.1642 43.6997 38.1585H188.169ZM188.169 37.5197H43.6997C41.4151 37.5236 39.2255 38.4347 37.6124 40.0526C35.9993 41.6705 35.0948 43.8628 35.0977 46.1475V66.8693H196.771V46.1475C196.774 43.8628 195.87 41.6705 194.257 40.0526C192.644 38.4347 190.454 37.5236 188.169 37.5197Z" fill="#337AB7" stroke="#337AB7" stroke-width="1.09281"/>
<path d="M78.1608 56.5625C77.4043 56.5625 76.6648 56.3382 76.0358 55.9179C75.4068 55.4976 74.9166 54.9003 74.6271 54.2014C74.3376 53.5025 74.2619 52.7334 74.4094 51.9915C74.557 51.2495 74.9213 50.568 75.4562 50.0331C75.9911 49.4982 76.6726 49.1339 77.4146 48.9863C78.1565 48.8387 78.9256 48.9145 79.6245 49.204C80.3234 49.4935 80.9207 49.9837 81.341 50.6127C81.7613 51.2417 81.9856 51.9812 81.9856 52.7377C81.9842 53.7516 81.5807 54.7237 80.8637 55.4406C80.1468 56.1576 79.1747 56.5611 78.1608 56.5625Z" fill="#EBF2F8"/>
<path d="M78.1607 49.2281C78.8541 49.2281 79.532 49.4337 80.1086 49.819C80.6852 50.2043 81.1347 50.7519 81.4 51.3926C81.6654 52.0333 81.7349 52.7383 81.5996 53.4184C81.4643 54.0986 81.1303 54.7233 80.64 55.2137C80.1496 55.7041 79.5249 56.038 78.8447 56.1733C78.1645 56.3086 77.4596 56.2391 76.8189 55.9738C76.1782 55.7084 75.6306 55.259 75.2453 54.6824C74.86 54.1058 74.6544 53.4279 74.6544 52.7344C74.6555 51.8048 75.0253 50.9137 75.6826 50.2563C76.3399 49.599 77.2311 49.2293 78.1607 49.2281ZM78.1607 48.5894C77.3408 48.5894 76.5394 48.8325 75.8578 49.2879C75.1762 49.7434 74.6449 50.3907 74.3311 51.1481C74.0174 51.9056 73.9353 52.739 74.0953 53.543C74.2552 54.3471 74.65 55.0857 75.2297 55.6654C75.8094 56.2451 76.5479 56.6398 77.352 56.7998C78.1561 56.9597 78.9895 56.8776 79.7469 56.5639C80.5043 56.2502 81.1517 55.7189 81.6071 55.0372C82.0626 54.3556 82.3057 53.5542 82.3057 52.7344C82.3055 51.6351 81.8688 50.5809 81.0915 49.8036C80.3142 49.0263 79.2599 48.5895 78.1607 48.5894Z" fill="#337AB7" stroke="#337AB7" stroke-width="1.09281"/>
<path d="M65.5787 56.5625C64.8223 56.5625 64.0828 56.3382 63.4538 55.9179C62.8248 55.4976 62.3345 54.9003 62.0451 54.2014C61.7556 53.5025 61.6798 52.7334 61.8274 51.9915C61.975 51.2495 62.3393 50.568 62.8742 50.0331C63.4091 49.4982 64.0906 49.1339 64.8326 48.9863C65.5745 48.8387 66.3435 48.9145 67.0424 49.204C67.7413 49.4935 68.3387 49.9837 68.759 50.6127C69.1793 51.2417 69.4036 51.9812 69.4036 52.7377C69.4021 53.7516 68.9987 54.7237 68.2817 55.4406C67.5647 56.1576 66.5927 56.5611 65.5787 56.5625Z" fill="#EBF2F8"/>
<path d="M65.5786 49.2281C66.2721 49.2281 66.95 49.4337 67.5266 49.819C68.1032 50.2043 68.5526 50.7519 68.818 51.3926C69.0834 52.0333 69.1528 52.7383 69.0175 53.4184C68.8822 54.0986 68.5483 54.7233 68.0579 55.2137C67.5676 55.7041 66.9428 56.038 66.2627 56.1733C65.5825 56.3086 64.8775 56.2391 64.2368 55.9738C63.5961 55.7084 63.0485 55.259 62.6633 54.6824C62.278 54.1058 62.0723 53.4279 62.0723 52.7344C62.0735 51.8048 62.4433 50.9137 63.1006 50.2563C63.7579 49.599 64.6491 49.2293 65.5786 49.2281ZM65.5786 48.5894C64.7588 48.5894 63.9574 48.8325 63.2758 49.2879C62.5941 49.7434 62.0628 50.3907 61.7491 51.1481C61.4354 51.9056 61.3533 52.739 61.5132 53.543C61.6732 54.3471 62.068 55.0857 62.6476 55.6654C63.2273 56.2451 63.9659 56.6398 64.77 56.7998C65.574 56.9597 66.4075 56.8776 67.1649 56.5639C67.9223 56.2502 68.5696 55.7189 69.0251 55.0372C69.4806 54.3556 69.7237 53.5542 69.7237 52.7344C69.7235 51.6351 69.2868 50.5809 68.5094 49.8036C67.7321 49.0263 66.6779 48.5895 65.5786 48.5894Z" fill="#337AB7" stroke="#337AB7" stroke-width="1.09281"/>
<path d="M53.0006 56.5625C52.2441 56.5625 51.5046 56.3382 50.8757 55.9179C50.2467 55.4976 49.7564 54.9003 49.4669 54.2014C49.1774 53.5025 49.1017 52.7334 49.2493 51.9915C49.3969 51.2495 49.7611 50.568 50.2961 50.0331C50.831 49.4982 51.5125 49.1339 52.2544 48.9863C52.9964 48.8387 53.7654 48.9145 54.4643 49.204C55.1632 49.4935 55.7606 49.9837 56.1809 50.6127C56.6011 51.2417 56.8255 51.9812 56.8255 52.7377C56.824 53.7516 56.4206 54.7237 55.7036 55.4406C54.9866 56.1576 54.0146 56.5611 53.0006 56.5625Z" fill="#EBF2F8"/>
<path d="M53.0005 49.2281C53.694 49.2281 54.3719 49.4337 54.9485 49.819C55.5251 50.2043 55.9745 50.7519 56.2399 51.3926C56.5053 52.0333 56.5747 52.7383 56.4394 53.4184C56.3041 54.0986 55.9702 54.7233 55.4798 55.2137C54.9895 55.7041 54.3647 56.038 53.6845 56.1733C53.0044 56.3086 52.2994 56.2391 51.6587 55.9738C51.018 55.7084 50.4704 55.259 50.0851 54.6824C49.6999 54.1058 49.4942 53.4279 49.4942 52.7344C49.4954 51.8048 49.8652 50.9137 50.5225 50.2563C51.1798 49.599 52.0709 49.2293 53.0005 49.2281ZM53.0005 48.5894C52.1807 48.5894 51.3793 48.8325 50.6976 49.2879C50.016 49.7434 49.4847 50.3907 49.171 51.1481C48.8573 51.9056 48.7752 52.739 48.9351 53.543C49.0951 54.3471 49.4898 55.0857 50.0695 55.6654C50.6492 56.2451 51.3878 56.6398 52.1918 56.7998C52.9959 56.9597 53.8293 56.8776 54.5867 56.5639C55.3441 56.2502 55.9915 55.7189 56.447 55.0372C56.9024 54.3556 57.1455 53.5542 57.1455 52.7344C57.1454 51.6351 56.7086 50.5809 55.9313 49.8036C55.154 49.0263 54.0998 48.5895 53.0005 48.5894Z" fill="#337AB7" stroke="#337AB7" stroke-width="1.09281"/>
<path d="M174.767 57.9706L174.672 57.8575C169.299 51.5104 166.428 43.4206 166.597 35.1066C166.766 26.7926 169.964 18.8263 175.591 12.7031C181.217 6.57999 188.885 2.72112 197.155 1.85097C205.425 0.980811 213.729 3.15921 220.507 7.9772C227.284 12.7952 232.07 19.9214 233.966 28.0181C235.862 36.1148 234.738 44.6251 230.804 51.9514C226.869 59.2777 220.397 64.9161 212.6 67.8081C204.803 70.7001 196.219 70.6469 188.459 67.6583L188.337 67.6119L171.982 74.7152L174.767 57.9706Z" fill="#EBF2F8" stroke="#337AB7" stroke-width="2.18562"/>
<path d="M200.77 1.77608C205.748 1.77901 210.665 2.87766 215.171 4.99406C219.677 7.11045 223.662 10.1927 226.843 14.0221C230.025 17.8515 232.324 22.3341 233.578 27.1518C234.832 31.9696 235.011 37.0044 234.101 41.8988C233.191 46.7933 231.215 51.4275 228.313 55.4726C225.411 59.5177 221.654 62.8744 217.309 65.3046C212.965 67.7348 208.138 69.1789 203.172 69.5344C198.207 69.8899 193.224 69.1481 188.577 67.3616L188.333 67.2677L188.093 67.372L172.396 74.1917L175.062 58.1706L175.11 57.8782L174.918 57.6526C170.725 52.719 168.032 46.6883 167.157 40.2729C166.282 33.8576 167.262 27.3259 169.981 21.4497C172.699 15.5734 177.043 10.5982 182.499 7.11194C187.955 3.6257 194.295 1.77415 200.77 1.77608ZM200.77 1.13733C194.174 1.13618 187.715 3.02307 182.157 6.57506C176.599 10.127 172.174 15.1957 169.404 21.1822C166.635 27.1687 165.637 33.8228 166.528 40.3584C167.419 46.8941 170.162 53.0381 174.433 58.0646L171.575 75.2435L188.35 67.9572C193.085 69.7808 198.164 70.5394 203.225 70.1791C208.287 69.8188 213.207 68.3486 217.636 65.8727C222.065 63.3968 225.895 59.9761 228.854 55.8534C231.812 51.7307 233.826 47.0073 234.754 42.0184C235.681 37.0296 235.498 31.8977 234.219 26.9874C232.94 22.077 230.595 17.5085 227.351 13.6064C224.107 9.70428 220.044 6.56423 215.45 4.40923C210.856 2.25423 205.844 1.13715 200.77 1.13733Z" fill="#337AB7" stroke="#337AB7" stroke-width="1.09281"/>
<path d="M20.043 41.5675C20.8103 37.4229 22.7549 33.5868 25.6443 30.518C28.5338 27.4491 32.2458 25.2771 36.3368 24.2618" fill="white"/>
<path d="M20.043 41.5675C20.8103 37.4229 22.7549 33.5868 25.6443 30.518C28.5338 27.4491 32.2458 25.2771 36.3368 24.2618" stroke="#337AB7" stroke-width="1.09281"/>
<path d="M20.043 41.5675C20.8103 37.4229 22.7549 33.5868 25.6443 30.518C28.5338 27.4491 32.2458 25.2771 36.3368 24.2618" stroke="#337AB7" stroke-width="2.18562" stroke-miterlimit="10"/>
<path d="M5.44531 39.1644C6.6359 32.4273 9.68534 26.1569 14.2497 21.0605C18.814 15.9642 24.7116 12.2446 31.2772 10.3213" fill="white"/>
<path d="M5.44531 39.1644C6.6359 32.4273 9.68534 26.1569 14.2497 21.0605C18.814 15.9642 24.7116 12.2446 31.2772 10.3213" stroke="#337AB7" stroke-width="1.09281"/>
<path d="M5.44531 39.1644C6.6359 32.4273 9.68534 26.1569 14.2497 21.0605C18.814 15.9642 24.7116 12.2446 31.2772 10.3213" stroke="#337AB7" stroke-width="2.18562" stroke-miterlimit="10"/>
<g clip-path="url(#clip0_1941_6455)">
<path d="M200.803 40.5468C203.405 40.5468 205.515 38.4368 205.515 35.8341C205.515 33.2313 203.405 31.1213 200.803 31.1213C198.2 31.1213 196.09 33.2313 196.09 35.8341C196.09 38.4368 198.2 40.5468 200.803 40.5468Z" stroke="#337AB7" stroke-width="2.18562" stroke-linecap="round" stroke-linejoin="round"/>
<path d="M212.428 40.5468C212.219 41.0206 212.157 41.5462 212.249 42.0558C212.342 42.5654 212.585 43.0356 212.947 43.4059L213.041 43.5001C213.333 43.7919 213.565 44.1384 213.723 44.5198C213.881 44.9013 213.962 45.3101 213.962 45.723C213.962 46.1359 213.881 46.5447 213.723 46.9261C213.565 47.3075 213.333 47.654 213.041 47.9458C212.749 48.2379 212.403 48.4697 212.021 48.6278C211.64 48.7859 211.231 48.8673 210.818 48.8673C210.405 48.8673 209.996 48.7859 209.615 48.6278C209.234 48.4697 208.887 48.2379 208.595 47.9458L208.501 47.8516C208.131 47.4894 207.661 47.2465 207.151 47.1541C206.641 47.0617 206.116 47.1241 205.642 47.3332C205.177 47.5323 204.781 47.8629 204.502 48.2844C204.223 48.7059 204.073 49.1997 204.071 49.7052V49.9723C204.071 50.8056 203.74 51.6047 203.151 52.1939C202.562 52.7831 201.762 53.1141 200.929 53.1141C200.096 53.1141 199.297 52.7831 198.708 52.1939C198.118 51.6047 197.787 50.8056 197.787 49.9723V49.8309C197.775 49.311 197.607 48.8067 197.304 48.3836C197.002 47.9606 196.579 47.6384 196.091 47.4588C195.617 47.2497 195.091 47.1873 194.582 47.2797C194.072 47.3721 193.602 47.6151 193.232 47.9772L193.137 48.0715C192.846 48.3636 192.499 48.5953 192.118 48.7535C191.736 48.9116 191.327 48.993 190.915 48.993C190.502 48.993 190.093 48.9116 189.711 48.7535C189.33 48.5953 188.984 48.3636 188.692 48.0715C188.4 47.7797 188.168 47.4332 188.01 47.0518C187.852 46.6704 187.77 46.2615 187.77 45.8487C187.77 45.4358 187.852 45.0269 188.01 44.6455C188.168 44.2641 188.4 43.9176 188.692 43.6258L188.786 43.5316C189.148 43.1613 189.391 42.6911 189.483 42.1815C189.576 41.6719 189.514 41.1463 189.304 40.6725C189.105 40.2079 188.775 39.8116 188.353 39.5325C187.932 39.2534 187.438 39.1036 186.932 39.1016H186.665C185.832 39.1016 185.033 38.7706 184.444 38.1813C183.854 37.5921 183.523 36.793 183.523 35.9597C183.523 35.1265 183.854 34.3273 184.444 33.7381C185.033 33.1489 185.832 32.8179 186.665 32.8179H186.807C187.327 32.8057 187.831 32.6374 188.254 32.3349C188.677 32.0323 188.999 31.6095 189.179 31.1213C189.388 30.6475 189.45 30.1219 189.358 29.6123C189.265 29.1027 189.022 28.6325 188.66 28.2623L188.566 28.168C188.274 27.8762 188.042 27.5297 187.884 27.1483C187.726 26.7669 187.645 26.358 187.645 25.9452C187.645 25.5323 187.726 25.1234 187.884 24.742C188.042 24.3606 188.274 24.0141 188.566 23.7223C188.858 23.4302 189.204 23.1985 189.586 23.0403C189.967 22.8822 190.376 22.8009 190.789 22.8009C191.202 22.8009 191.611 22.8822 191.992 23.0403C192.373 23.1985 192.72 23.4302 193.012 23.7223L193.106 23.8166C193.476 24.1787 193.946 24.4217 194.456 24.5141C194.966 24.6065 195.491 24.5441 195.965 24.335H196.091C196.555 24.1358 196.952 23.8052 197.231 23.3837C197.51 22.9623 197.66 22.4684 197.662 21.9629V21.6958C197.662 20.8626 197.993 20.0634 198.582 19.4742C199.171 18.885 199.97 18.554 200.804 18.554C201.637 18.554 202.436 18.885 203.025 19.4742C203.614 20.0634 203.945 20.8626 203.945 21.6958V21.8372C203.947 22.3427 204.097 22.8366 204.376 23.2581C204.655 23.6795 205.052 24.0102 205.516 24.2093C205.99 24.4184 206.516 24.4808 207.025 24.3884C207.535 24.296 208.005 24.053 208.375 23.6909L208.47 23.5966C208.761 23.3045 209.108 23.0728 209.489 22.9147C209.871 22.7566 210.28 22.6752 210.692 22.6752C211.105 22.6752 211.514 22.7566 211.896 22.9147C212.277 23.0728 212.623 23.3045 212.915 23.5966C213.207 23.8884 213.439 24.2349 213.597 24.6163C213.755 24.9978 213.837 25.4066 213.837 25.8195C213.837 26.2324 213.755 26.6412 213.597 27.0226C213.439 27.404 213.207 27.7505 212.915 28.0423L212.821 28.1366C212.459 28.5068 212.216 28.977 212.124 29.4866C212.031 29.9962 212.093 30.5218 212.303 30.9956V31.1213C212.502 31.586 212.832 31.9822 213.254 32.2613C213.675 32.5404 214.169 32.6902 214.675 32.6922H214.942C215.775 32.6922 216.574 33.0233 217.163 33.6125C217.753 34.2017 218.084 35.0008 218.084 35.8341C218.084 36.6673 217.753 37.4665 217.163 38.0557C216.574 38.6449 215.775 38.9759 214.942 38.9759H214.8C214.295 38.9779 213.801 39.1277 213.38 39.4068C212.958 39.6859 212.627 40.0822 212.428 40.5468Z" stroke="#337AB7" stroke-width="2.18562" stroke-linecap="round" stroke-linejoin="round"/>
</g>
<path d="M85.0007 122.737V116.091L97.6763 96.1549H103.706V105.015H100.261L93.4306 115.845V116.091H112.136V122.737H85.0007ZM100.322 127.659V120.706L100.507 117.814V96.1549H108.506V127.659H100.322Z" fill="#337AB7"/>
<path d="M118.137 128.361C115.276 128.351 112.804 127.69 110.722 126.377C108.64 125.064 107.036 123.172 105.907 120.701C104.779 118.229 104.22 115.265 104.231 111.809C104.241 108.343 104.805 105.4 105.923 102.98C107.051 100.559 108.651 98.7185 110.722 97.4571C112.804 96.1957 115.276 95.565 118.137 95.565C120.998 95.565 123.47 96.2008 125.551 97.4725C127.633 98.7339 129.238 100.575 130.366 102.995C131.494 105.415 132.053 108.353 132.043 111.809C132.043 115.286 131.479 118.26 130.351 120.731C129.223 123.203 127.618 125.095 125.536 126.408C123.464 127.71 120.998 128.361 118.137 128.361ZM118.137 121.408C119.614 121.408 120.824 120.639 121.767 119.101C122.721 117.552 123.193 115.122 123.182 111.809C123.182 109.646 122.967 107.876 122.536 106.502C122.106 105.128 121.511 104.113 120.752 103.456C119.993 102.79 119.121 102.457 118.137 102.457C116.66 102.457 115.455 103.205 114.522 104.702C113.589 106.2 113.112 108.569 113.091 111.809C113.081 114.014 113.291 115.829 113.722 117.255C114.153 118.67 114.747 119.716 115.506 120.393C116.276 121.07 117.152 121.408 118.137 121.408Z" fill="#A1C2DE"/>
<path d="M124.438 122.737V116.091L137.114 96.1549H143.144V105.015H139.698L132.868 115.845V116.091H151.574V122.737H124.438ZM139.76 127.659V120.706L139.944 117.814V96.1549H147.943V127.659H139.76Z" fill="#337AB7"/>
<defs>
<clipPath id="clip0_1941_6455">
<rect width="37.702" height="37.702" fill="white" transform="translate(181.953 16.9831)"/>
</clipPath>
</defs>
</svg>
