<svg width="168" height="28" viewBox="0 0 168 28" fill="none" xmlns="http://www.w3.org/2000/svg">
<path d="M78.8397 7.71105C80.057 7.72326 81.0044 7.58596 81.7817 8.47332C82.6246 9.43562 82.5454 10.3025 82.0897 11.4066C81.5624 12.6845 80.6373 12.6565 79.7569 12.2056C77.761 11.1835 76.2497 12.5427 74.6047 13.1229C74.0354 13.3237 73.168 14.2085 73.2661 14.471C73.5109 15.1261 74.097 15.6948 74.9323 15.9543C77.2035 16.6602 79.4114 17.579 81.698 18.2229C83.4635 18.72 84.8183 19.5661 84.7554 21.4926C84.6931 23.4045 83.8739 24.7513 81.7197 25.4659C76.9455 27.0496 72.1332 26.4414 67.7025 23.8818C67.0689 23.5159 67.1555 24.6157 66.7753 24.8257C61.8671 27.5375 58.169 25.7613 57.6325 18.9734C56.1785 21.3814 54.0286 22.8299 52.2462 24.6469C51.1033 25.812 49.5482 26.4733 48.0193 25.7078C46.5954 24.9948 45.8568 23.7176 45.943 21.8742C46.1135 18.2258 46.0338 14.5633 45.9781 10.9078C45.9505 9.10107 46.9753 8.70066 48.4293 8.91488C49.8991 9.13145 49.8485 10.0084 49.7735 11.3889C49.6013 14.5578 48.5592 17.7583 49.7082 20.9437C52.9227 19.3294 55.0924 16.4433 57.8345 14.2595C58.6218 13.6325 58.8485 12.2582 59.2438 11.1938C59.7075 9.94503 60.4444 9.17285 61.856 9.52135C63.3083 9.87994 62.9813 11.1061 63.0564 12.1486C63.1404 13.3127 62.4662 14.1798 61.9448 15.08C60.9413 16.8121 61.2214 18.6842 61.3515 20.4877C61.4501 21.8543 63.6624 22.8824 64.2225 22.4123C65.6352 21.2269 66.3727 23.4603 67.7025 23.8818C68.0375 23.988 68.9149 24.1588 69.2598 23.9207C70.0733 23.3592 70.9722 21.4477 71.688 21.7803C74.2098 22.9523 76.701 22.3338 79.2445 21.9044C77.3891 20.1874 74.9304 20.1804 72.838 19.2043C70.3288 18.0337 69.9219 15.8781 69.6681 13.9249C69.4027 11.883 70.9056 9.97838 72.788 9.10724C74.5616 8.28644 76.4318 7.23298 78.8397 7.71105Z" fill="white"/>
<path d="M19.4619 23.1727C15.8218 20.8958 11.8343 19.5753 8.44828 17.0227C7.0947 16.0023 5.90036 14.7399 4.28543 13.5907C4.04295 16.9009 3.78174 19.8674 3.63453 22.8395C3.58997 23.739 3.38262 24.5266 3.03799 25.3412C2.62017 26.3289 1.91817 26.6147 0.942844 26.508C-0.327431 26.3691 0.136429 25.3664 0.0951656 24.6922C-0.275195 18.6416 0.547052 12.6261 0.660946 6.58895C0.67741 5.71626 0.926895 5.00978 1.82854 4.82754C2.84635 4.62183 3.65659 4.82611 4.20693 5.94537C7.09228 11.8135 12.2521 15.0593 17.8975 17.7897C19.6149 18.6204 20.1386 18.3589 20.0907 16.4689C20.0178 13.5984 20.0949 10.7244 20.0645 7.85231C20.0518 6.65602 20.1768 5.48345 21.244 4.80679C22.6031 3.94502 23.7045 4.10188 24.1969 5.90892C24.9242 8.5783 24.5884 11.2533 24.1322 13.8734C23.4663 17.6977 22.4463 21.4642 23 25.405C23.1479 26.4579 22.3864 27.2387 21.6174 27.3882C20.9366 27.5205 20.1353 27.0585 19.9695 25.9108C19.8519 25.0966 19.4069 24.2994 19.4619 23.1727Z" fill="white"/>
<path d="M94.7652 25.5803C94.5234 20.6475 94.9315 16.0015 95.358 11.3605C95.5044 9.76701 94.8436 9.14974 93.3876 9.50753C91.6747 9.92843 90.0132 9.22989 88.3192 9.46504C86.2709 9.74937 85.8749 8.58814 85.9017 6.81713C85.937 4.48284 87.6027 5.50238 88.6317 5.40422C90.9823 5.17997 93.5829 6.7526 95.6296 4.37236C95.7234 4.2632 96.0232 4.21197 96.1602 4.2763C101.006 6.55278 106.143 4.78813 111.104 5.38782C111.964 5.4918 113.623 4.60183 113.458 6.43791C113.344 7.70108 112.719 8.93269 110.85 8.93109C107.375 8.92809 103.883 8.54943 100.417 9.41755C99.2604 9.70721 99.2313 9.66661 99.2228 11.0566C99.1934 15.9068 98.521 20.7508 98.1981 25.6042C98.1506 26.3187 97.91 26.767 97.3974 26.9515C96.2475 27.3654 95.3902 26.8286 94.7652 25.5803Z" fill="white"/>
<path d="M137.159 21.493C138.276 20.8674 139.479 20.7295 139.957 19.6614C140.489 18.4713 141.376 18.8039 142.145 19.0843C143.03 19.4069 143.062 20.2801 142.946 21.0849C142.542 23.8882 136.201 27.1794 133.754 25.7315C132.238 24.834 131.896 23.1388 131.792 21.4365C131.406 15.0923 132.757 8.80478 132.391 2.4624C132.303 0.937427 133.528 0.222003 134.544 0.38637C136.199 0.654344 136.605 2.13086 136.463 3.74292C135.987 9.13765 135.282 14.5167 135.321 19.9486C135.329 21.0781 135.197 22.2734 137.159 21.493Z" fill="white"/>
<path fill-rule="evenodd" clip-rule="evenodd" d="M150.655 17.6582C150.569 18.4645 150.487 19.2274 150.627 19.5031C151.651 20.3161 152.385 21.0865 153.119 22.0329C155.07 24.5494 157.343 26.7787 160.578 27.7447C163.927 28.7447 167.226 26.7177 167.648 23.2289C167.765 22.2568 167.847 21.1183 166.677 20.7324C165.501 20.3444 164.944 21.1788 164.567 22.1941C164.135 23.3566 163.202 24.3147 162.024 24.0935C160.001 23.7138 158.066 22.3602 157.312 20.6989C156.952 19.9041 157.823 19.5683 158.754 19.2098C159.293 19.0022 159.851 18.787 160.202 18.4707C160.311 18.3725 160.464 18.3269 160.619 18.2808C160.749 18.2422 160.88 18.2031 160.987 18.1324C163.48 16.4861 165.219 13.1122 164.648 11.0615C164.03 8.84583 160.766 6.85927 157.61 7.0698C154.189 7.29807 151.511 8.89054 149.064 11.0513C148.16 8.89175 148.208 6.71545 148.258 4.51554C148.291 3.02196 148.325 1.51749 148.06 0C147.651 0.273309 147.149 0.384488 146.661 0.492702C145.645 0.717924 144.687 0.930305 144.737 2.56474C144.749 2.94531 144.755 3.33165 144.761 3.71867C144.776 4.73034 144.792 5.74668 144.911 6.67682C145.492 11.2314 145.537 15.7032 144.823 20.2432L144.818 20.276C144.575 21.8196 144.305 23.5309 145.221 25.0949C145.293 25.2187 145.36 25.3516 145.426 25.4839C145.724 26.0776 146.017 26.6603 146.801 26.3654C146.857 26.3446 146.914 26.3242 146.973 26.3034C147.533 26.1036 148.198 25.8668 148.312 24.877C148.463 23.5697 149.045 21.4453 149.604 19.4022C150.019 17.8862 150.422 16.4149 150.627 15.3556C150.865 15.7045 150.757 16.7114 150.655 17.6582ZM156.03 11.6763C155.41 11.8613 154.776 12.0505 154.112 12.1497C152.775 12.6537 152.027 13.561 151.225 14.5338C151.031 14.7691 150.834 15.0082 150.624 15.2464C150.905 15.2692 151.164 15.2733 151.403 15.2772C151.865 15.2846 152.253 15.2908 152.586 15.4291C155.793 16.7626 157.837 16.2087 160.316 13.6645C161.703 12.2403 160.904 11.7491 159.659 11.3539C158.423 10.962 157.254 11.311 156.03 11.6763Z" fill="white"/>
<path fill-rule="evenodd" clip-rule="evenodd" d="M122.271 20.919C122.35 22.6855 122.436 24.5963 124.099 26.1591C127.135 25.3628 127.808 24.1661 126.365 21.8653C125.639 20.7074 125.729 19.6069 125.837 18.5155C125.862 18.2681 125.886 18.0203 125.91 17.7722C126.156 15.2524 126.405 12.7052 127.084 10.2924C127.65 8.28621 126.618 7.67523 125.282 7.44415C124.349 7.28274 123.472 7.00646 122.593 6.7298C122.21 6.6089 121.826 6.48794 121.436 6.37645C118.014 5.39571 114.953 6.35893 113.949 8.9431C112.288 13.2207 110.792 17.5403 111.024 22.2919C111.114 24.138 111.803 25.109 113.352 25.8672C114.819 26.5856 115.746 25.7719 116.632 24.9934C116.724 24.9132 116.815 24.8333 116.906 24.7555C118.23 23.6252 119.497 22.4294 120.727 21.2697C121.228 20.7971 121.723 20.3306 122.212 19.8769C122.24 20.2158 122.256 20.5645 122.271 20.919ZM116.833 12.6915C116.733 12.8495 116.632 13.0107 116.527 13.1721C116.486 14.3052 116.053 15.3256 115.623 16.337C114.987 17.8353 114.359 19.3136 115.03 21.1086C117.267 19.284 118.997 17.1623 120.707 15.0642C120.972 14.7391 121.236 14.4145 121.502 14.0917C121.529 14.0591 121.557 14.0256 121.585 13.9912C122.159 13.2999 123.028 12.2544 122.032 11.2676C120.939 10.1839 119.485 10.3904 118.274 11.0223C117.688 11.3284 117.281 11.9772 116.833 12.6915Z" fill="white"/>
<path fill-rule="evenodd" clip-rule="evenodd" d="M38.5014 24.8472C44.0614 20.4736 44.2979 12.196 38.5813 8.99398C38.3532 8.92184 38.1284 8.84685 37.9065 8.77282C36.1026 8.171 34.4887 7.6326 32.8718 9.20683C29.505 12.4848 28.7195 16.8094 27.947 21.0623C27.8972 21.3369 27.8473 21.6112 27.7969 21.8848C27.2252 24.9857 30.2402 28.0711 32.8581 27.4502C34.8795 26.9708 36.8183 26.1712 38.5014 24.8472ZM34.9423 13.5734C33.6257 15.3737 32.5822 17.2278 31.8323 19.5311C31.769 19.93 31.6294 20.3181 31.4947 20.6926C31.1599 21.6235 30.8551 22.471 31.8262 23.1954C32.7003 23.8476 33.5796 23.33 34.367 22.8665C34.5574 22.7544 34.7425 22.6454 34.9208 22.557C39.463 20.3036 40.8034 16.569 37.7776 13.3474C36.6955 12.1953 36.0648 12.0386 34.9423 13.5734Z" fill="white"/>
</svg>
