<svg width="177" height="32" viewBox="0 0 177 32" fill="none" xmlns="http://www.w3.org/2000/svg">
<path d="M17.6532 3.99496C17.1394 3.10943 15.8606 3.10942 15.3468 3.99496L11.728 10.2314C11.4742 10.6688 11.0355 10.9673 10.5354 11.0429L3.75362 12.0672C2.61458 12.2392 2.21503 13.6774 3.10211 14.4123L8.15423 18.5979C8.62188 18.9854 8.84178 19.5965 8.72817 20.1931L7.40662 27.1333C7.1977 28.2304 8.34942 29.0828 9.33762 28.5625L15.7235 25.2001C16.2095 24.9441 16.7905 24.9441 17.2765 25.2001L23.6624 28.5625C24.6506 29.0828 25.8023 28.2304 25.5934 27.1333L24.2718 20.1931C24.1582 19.5965 24.3781 18.9854 24.8458 18.5979L29.8979 14.4123C30.785 13.6774 30.3854 12.2392 29.2464 12.0672L22.4646 11.0429C21.9646 10.9673 21.5258 10.6688 21.272 10.2314L17.6532 3.99496Z" fill="#FCB33B"/>
<path d="M53.6532 3.99496C53.1394 3.10943 51.8606 3.10942 51.3468 3.99496L47.728 10.2314C47.4742 10.6688 47.0355 10.9673 46.5354 11.0429L39.7536 12.0672C38.6146 12.2392 38.215 13.6774 39.1021 14.4123L44.1542 18.5979C44.6219 18.9854 44.8418 19.5965 44.7282 20.1931L43.4066 27.1333C43.1977 28.2304 44.3494 29.0828 45.3376 28.5625L51.7235 25.2001C52.2095 24.9441 52.7905 24.9441 53.2765 25.2001L59.6624 28.5625C60.6506 29.0828 61.8023 28.2304 61.5934 27.1333L60.2718 20.1931C60.1582 19.5965 60.3781 18.9854 60.8458 18.5979L65.8979 14.4123C66.785 13.6774 66.3854 12.2392 65.2464 12.0672L58.4646 11.0429C57.9646 10.9673 57.5258 10.6688 57.272 10.2314L53.6532 3.99496Z" fill="#FCB33B"/>
<path d="M89.6532 3.99496C89.1394 3.10943 87.8606 3.10942 87.3468 3.99496L83.728 10.2314C83.4742 10.6688 83.0355 10.9673 82.5354 11.0429L75.7536 12.0672C74.6146 12.2392 74.215 13.6774 75.1021 14.4123L80.1542 18.5979C80.6219 18.9854 80.8418 19.5965 80.7282 20.1931L79.4066 27.1333C79.1977 28.2304 80.3494 29.0828 81.3376 28.5625L87.7235 25.2001C88.2095 24.9441 88.7905 24.9441 89.2765 25.2001L95.6624 28.5625C96.6506 29.0828 97.8023 28.2304 97.5934 27.1333L96.2718 20.1931C96.1582 19.5965 96.3781 18.9854 96.8458 18.5979L101.898 14.4123C102.785 13.6774 102.385 12.2392 101.246 12.0672L94.4646 11.0429C93.9646 10.9673 93.5258 10.6688 93.272 10.2314L89.6532 3.99496Z" fill="#FCB33B"/>
<path d="M125.653 3.99496C125.139 3.10943 123.861 3.10942 123.347 3.99496L119.728 10.2314C119.474 10.6688 119.035 10.9673 118.535 11.0429L111.754 12.0672C110.615 12.2392 110.215 13.6774 111.102 14.4123L116.154 18.5979C116.622 18.9854 116.842 19.5965 116.728 20.1931L115.407 27.1333C115.198 28.2304 116.349 29.0828 117.338 28.5625L123.723 25.2001C124.21 24.9441 124.79 24.9441 125.277 25.2001L131.662 28.5625C132.651 29.0828 133.802 28.2304 133.593 27.1333L132.272 20.1931C132.158 19.5965 132.378 18.9854 132.846 18.5979L137.898 14.4123C138.785 13.6774 138.385 12.2392 137.246 12.0672L130.465 11.0429C129.965 10.9673 129.526 10.6688 129.272 10.2314L125.653 3.99496Z" fill="#FCB33B"/>
<path d="M161.653 3.99496C161.139 3.10943 159.861 3.10942 159.347 3.99496L155.728 10.2314C155.474 10.6688 155.035 10.9673 154.535 11.0429L147.754 12.0672C146.615 12.2392 146.215 13.6774 147.102 14.4123L152.154 18.5979C152.622 18.9854 152.842 19.5965 152.728 20.1931L151.407 27.1333C151.198 28.2304 152.349 29.0828 153.338 28.5625L159.723 25.2001C160.21 24.9441 160.79 24.9441 161.276 25.2001L167.662 28.5625C168.651 29.0828 169.802 28.2304 169.593 27.1333L168.272 20.1931C168.158 19.5965 168.378 18.9854 168.846 18.5979L173.898 14.4123C174.785 13.6774 174.385 12.2392 173.246 12.0672L166.465 11.0429C165.965 10.9673 165.526 10.6688 165.272 10.2314L161.653 3.99496Z" fill="#FCB33B"/>
</svg>
