<?xml version="1.0" encoding="UTF-8"?>
<svg id="Layer_1" data-name="Layer 1" xmlns="http://www.w3.org/2000/svg" viewBox="0 0 23.14 20.07">
  <defs>
    <style>
      .cls-1 {
        fill: #dcefff;
      }

      .cls-2 {
        fill: none;
        stroke: #3b4554;
        stroke-linecap: round;
        stroke-linejoin: round;
        stroke-width: 1.5px;
      }

      .cls-3 {
        fill: #d9d9d9;
      }
    </style>
  </defs>
  <circle class="cls-3" cx="12.14" cy="10.04" r="8"/>
  <circle class="cls-1" cx="13.14" cy="10.04" r="10"/>
  <path class="cls-2" d="M.8,8.37h16.67"/>
  <path class="cls-2" d="M8.76,17.12h-4.26c-2.96,0-3.71-.73-3.71-3.66v-6.85c0-2.65.62-3.5,2.94-3.63.23,0,.49-.02.77-.02h9.26c2.96,0,3.71.73,3.71,3.66v3.68"/>
  <path class="cls-2" d="M4.14,13.37h3.33"/>
  <path class="cls-2" d="M17.47,15.03c0,.62-.18,1.22-.48,1.72-.58.97-1.63,1.62-2.85,1.62s-2.27-.65-2.85-1.62c-.31-.5-.48-1.09-.48-1.72,0-1.84,1.49-3.33,3.33-3.33s3.33,1.49,3.33,3.33Z"/>
  <path class="cls-2" d="M12.84,15.04l.83.82,1.78-1.64"/>
</svg>