<?xml version="1.0" encoding="UTF-8"?>
<svg id="Layer_1" data-name="Layer 1" xmlns="http://www.w3.org/2000/svg" viewBox="0 0 21.51 20.07">
  <defs>
    <style>
      .cls-1 {
        fill: #dcefff;
      }

      .cls-2 {
        stroke-linecap: round;
      }

      .cls-2, .cls-3 {
        fill: none;
        stroke: #3b4554;
        stroke-width: 1.5px;
      }
    </style>
  </defs>
  <circle class="cls-1" cx="11.51" cy="10.07" r="10"/>
  <path class="cls-2" d="M.84,18.41h13.33"/>
  <path class="cls-3" d="M9.08,3.12l.62-.62c1.02-1.02,2.68-1.02,3.71,0,1.02,1.02,1.02,2.68,0,3.71l-.62.62M9.08,3.12s.08,1.31,1.24,2.47c1.16,1.16,2.47,1.24,2.47,1.24M9.08,3.12l-5.68,5.68c-.38.38-.58.58-.74.79-.2.25-.36.52-.5.81-.12.24-.2.5-.37,1.02l-.73,2.19M12.79,6.83l-5.68,5.68c-.38.38-.58.58-.79.74-.25.2-.52.36-.81.5-.24.12-.5.2-1.02.37l-2.19.73M2.31,14.86l-.53.18c-.25.09-.53.02-.72-.17-.19-.19-.26-.47-.17-.72l.18-.54M2.31,14.86l-1.25-1.25"/>
</svg>