<?xml version="1.0" encoding="UTF-8"?>
<svg id="Layer_1" data-name="Layer 1" xmlns="http://www.w3.org/2000/svg" viewBox="0 0 22.34 20.07">
  <defs>
    <style>
      .cls-1 {
        fill: #dcefff;
      }

      .cls-2 {
        fill: #3b4554;
      }
    </style>
  </defs>
  <circle class="cls-1" cx="12.33" cy="10.03" r="10"/>
  <path class="cls-2" d="M10.83,9.2h-1.67v-3.33c0-.22-.09-.43-.24-.59-.16-.16-.37-.24-.59-.24s-.43.09-.59.24-.24.37-.24.59v4.17c0,.22.09.43.24.59.16.16.37.24.59.24h2.5c.22,0,.43-.09.59-.24.16-.16.24-.37.24-.59s-.09-.43-.24-.59c-.16-.16-.37-.24-.59-.24ZM8.33,1.7c-1.65,0-3.26.49-4.63,1.4-1.37.92-2.44,2.22-3.07,3.74C0,8.36-.16,10.04.16,11.65c.32,1.62,1.12,3.1,2.28,4.27,1.17,1.17,2.65,1.96,4.27,2.28,1.62.32,3.29.16,4.81-.47,1.52-.63,2.82-1.7,3.74-3.07.92-1.37,1.4-2.98,1.4-4.63,0-1.09-.22-2.18-.63-3.19-.42-1.01-1.03-1.93-1.81-2.7-.77-.77-1.69-1.39-2.7-1.81-1.01-.42-2.09-.63-3.19-.63h0ZM8.33,16.7c-1.32,0-2.61-.39-3.7-1.12-1.1-.73-1.95-1.77-2.46-2.99-.5-1.22-.64-2.56-.38-3.85.26-1.29.89-2.48,1.82-3.41.93-.93,2.12-1.57,3.41-1.82,1.29-.26,2.63-.13,3.85.38,1.22.5,2.26,1.36,2.99,2.46.73,1.1,1.12,2.39,1.12,3.7,0,1.77-.7,3.46-1.95,4.71s-2.95,1.95-4.71,1.95h0Z"/>
</svg>