<?xml version="1.0" encoding="UTF-8"?>
<svg id="Layer_1" data-name="Layer 1" xmlns="http://www.w3.org/2000/svg" xmlns:xlink="http://www.w3.org/1999/xlink" viewBox="0 0 24.51 20.07">
  <defs>
    <style>
      .cls-1 {
        fill: #dcefff;
      }

      .cls-2, .cls-3, .cls-4 {
        fill: none;
      }

      .cls-2, .cls-4 {
        stroke: #3b4554;
        stroke-width: 1.5px;
      }

      .cls-5 {
        clip-path: url(#clippath);
      }

      .cls-4 {
        stroke-linejoin: round;
      }
    </style>
    <clipPath id="clippath">
      <rect class="cls-3" x="-.67" y=".04" width="20" height="20"/>
    </clipPath>
  </defs>
  <circle class="cls-1" cx="14.51" cy="10.04" r="10"/>
  <g class="cls-5">
    <g>
      <path class="cls-4" d="M12.4,12.19c2.91,0,5.27-2.35,5.27-5.24S15.31,1.7,12.4,1.7s-5.27,2.35-5.27,5.24c0,1.34.61,2.32.61,2.32L1.38,15.61c-.29.28-.69,1.02,0,1.71l.73.73c.29.24,1,.59,1.59,0l.86-.85c.86.85,1.84.37,2.2-.12.61-.85-.12-1.71-.12-1.71l.24-.24c1.18,1.17,2.2.49,2.57,0,.61-.85,0-1.71,0-1.71-.24-.49-.73-.49-.12-1.1l.73-.73c.59.49,1.8.61,2.33.61Z"/>
      <path class="cls-2" d="M14.24,6.95c0,1.01-.82,1.83-1.84,1.83s-1.84-.82-1.84-1.83.82-1.83,1.84-1.83,1.84.82,1.84,1.83Z"/>
    </g>
  </g>
</svg>