<svg width="316" height="120" viewBox="0 0 316 120" fill="none" xmlns="http://www.w3.org/2000/svg">
<g clip-path="url(#clip0_2995_6246)">
<rect width="315.5" height="120" transform="translate(0.5)" fill="#ECEFF4"/>
<path d="M181.221 15H29.7799C27.1404 15 25 17.0157 25 19.5014V229.499C25 231.984 27.1404 234 29.7799 234H181.22C183.86 234 186 231.984 186 229.499V19.5014C186.001 17.0148 183.861 15 181.221 15Z" fill="#F0F0F0"/>
<path d="M122.76 40.7793H33.3516V170.772H122.76V40.7793Z" fill="white"/>
<path d="M181.221 15H29.7799C27.1404 15 25 16.1934 25 17.665V33H186V17.665C186.001 16.1929 183.861 15 181.221 15Z" fill="#76A6CF"/>
<path d="M47.5297 70.2205V57.6184H43.0039V54.1178H56.7562V57.6184H52.2304V70.2205H47.5297Z" fill="#76A6CF"/>
<path d="M113.327 53.5857H60.5469V56.2724H113.327V53.5857Z" fill="#276192"/>
<path d="M96.1025 59.1021H60.5469V61.7888H96.1025V59.1021Z" fill="#276192"/>
<path d="M113.327 64.8864H60.5469V67.5731H113.327V64.8864Z" fill="#276192"/>
<path d="M113.335 70.6937H42.7773V73.3804H113.335V70.6937Z" fill="#276192"/>
<path d="M102.967 76.4095H42.7773V79.0962H102.967V76.4095Z" fill="#276192"/>
<path d="M108.638 82.1259H42.7773V84.8127H108.638V82.1259Z" fill="#276192"/>
<path d="M113.345 88.7861H42.875V118.637H113.345V88.7861Z" fill="#76A6CF"/>
<path d="M180.08 40.7786H128.52V53.5851H180.08V40.7786Z" fill="#76A6CF"/>
<path d="M177.123 53.6561H125.562V129.777H177.123V53.6561Z" fill="white"/>
<path d="M202 74.8325H133.34V113.791H202V74.8325Z" fill="#76A6CF"/>
<path d="M198.231 78.3226H136.574V110.13H198.231V78.3226Z" fill="#2E6FA7"/>
<path d="M136.574 110.131L154.046 86.6805C155.945 84.1309 159.758 84.1117 161.684 86.6412L174.507 103.486L181.573 96.8425C183.646 94.8931 186.951 95.1751 188.664 97.4466L198.231 110.13H136.574V110.131Z" fill="#337AB7"/>
<path d="M180.164 88.0774C180.164 90.8859 177.887 93.1632 175.078 93.1632C172.269 93.1632 169.992 90.8859 169.992 88.0774C169.992 85.2689 172.269 82.9916 175.078 82.9916C177.887 82.9916 180.164 85.2679 180.164 88.0774Z" fill="white"/>
</g>
<defs>
<clipPath id="clip0_2995_6246">
<rect width="315.5" height="120" fill="white" transform="translate(0.5)"/>
</clipPath>
</defs>
</svg>
