<svg width="316" height="120" viewBox="0 0 316 120" fill="none" xmlns="http://www.w3.org/2000/svg">
<g clip-path="url(#clip0_2995_1410)">
<rect width="315.5" height="120" fill="#ECEFF4"/>
<path d="M285.716 26.0799C285.993 23.9163 284.313 22.0022 282.139 22.0022H89.0078C87.9024 22.0022 86.969 22.8259 86.827 23.9249L71.2561 140.602C71.097 141.793 72.0239 142.851 73.2261 142.851H268.216C269.321 142.851 270.254 142.027 270.396 140.928L285.716 26.0799Z" fill="white"/>
<path d="M282.985 47.2923C282.953 47.2923 282.923 47.2923 282.89 47.2859C282.501 47.2343 282.228 46.8772 282.28 46.488L283.129 40.1112C283.181 39.7219 283.538 39.4488 283.927 39.5004C284.316 39.552 284.59 39.909 284.538 40.2983L283.688 46.6751C283.641 47.0321 283.336 47.2923 282.985 47.2923Z" fill="#337AB7"/>
<path d="M276.255 97.7105C276.222 97.7105 276.192 97.7105 276.16 97.704C275.771 97.6524 275.498 97.2954 275.549 96.9061L281.128 55.0861C281.18 54.6968 281.539 54.4258 281.926 54.4753C282.315 54.5269 282.588 54.8839 282.537 55.2732L276.958 97.0932C276.911 97.4502 276.605 97.7105 276.255 97.7105Z" fill="#337AB7"/>
<path d="M282.143 22.0022C284.318 22.0022 285.997 23.9184 285.72 26.0798L284.257 35.7214L84.9688 35.6891L86.8312 23.9227C86.9732 22.8237 87.9066 22 89.012 22H282.143V22.0022Z" fill="#337AB7"/>
<path d="M170.105 29.4736C170.279 28.1015 169.21 26.8864 167.827 26.8864H96.4329C95.278 26.8864 94.3016 27.7445 94.1554 28.8908C93.9812 30.2629 95.05 31.4781 96.4329 31.4781H167.827C168.982 31.4781 169.958 30.6199 170.105 29.4736Z" fill="#76A6CF"/>
<path d="M257.761 29.4736C257.935 28.1015 256.866 26.8864 255.483 26.8864H248.965C247.81 26.8864 246.833 27.7445 246.687 28.8908C246.511 30.2629 247.582 31.4781 248.965 31.4781H255.483C256.638 31.4781 257.615 30.6199 257.761 29.4736Z" fill="#76A6CF"/>
<path d="M266.5 48.4101C266.623 47.4595 265.883 46.6165 264.926 46.6165H168.644C168.158 46.6165 167.747 46.9778 167.685 47.4617L161.59 91.5377C161.519 92.0625 161.928 92.5271 162.457 92.5271H259.556C260.042 92.5271 260.453 92.1657 260.515 91.6818L266.5 48.4101Z" fill="#76A6CF"/>
<path d="M254.379 127.383H194.266C193.808 127.383 193.373 127.185 193.072 126.841C192.771 126.497 192.633 126.041 192.694 125.587L196.102 99.9814C196.21 99.1491 196.926 98.5189 197.767 98.5189H257.063C257.724 98.5189 258.352 98.8028 258.786 99.2996C259.223 99.7964 259.425 100.459 259.341 101.115L256.042 125.921C255.934 126.753 255.218 127.383 254.377 127.383H254.379ZM197.767 99.9384C197.638 99.9384 197.528 100.035 197.513 100.164L194.102 125.775C194.094 125.835 194.119 125.878 194.141 125.904C194.165 125.929 194.203 125.959 194.264 125.959H254.377C254.506 125.959 254.616 125.863 254.631 125.734L257.93 100.928C257.962 100.674 257.887 100.427 257.717 100.235C257.55 100.044 257.315 99.9384 257.061 99.9384H197.765H197.767Z" fill="#76A6CF"/>
<path d="M149.743 93.237H88.6095C88.1514 93.237 87.7169 93.0391 87.4158 92.695C87.1147 92.3509 86.9771 91.895 87.0373 91.4412L93.1345 47.3629C93.2399 46.5349 93.956 45.9048 94.7991 45.9048H155.115C155.775 45.9048 156.403 46.1887 156.838 46.6855C157.274 47.1823 157.476 47.8447 157.393 48.5007V48.5071L151.407 91.7788C151.302 92.6068 150.586 93.237 149.743 93.237ZM94.797 47.3264C94.6679 47.3264 94.5582 47.4232 94.5432 47.5522L88.446 91.6347C88.4374 91.6928 88.4632 91.7358 88.4847 91.7616C88.5062 91.7874 88.5471 91.8175 88.6073 91.8175H149.74C149.869 91.8175 149.979 91.7208 149.994 91.5917L155.98 48.3179C156.012 48.0641 155.937 47.8167 155.767 47.6253C155.599 47.4339 155.364 47.3285 155.111 47.3285H94.7948L94.797 47.3264Z" fill="#76A6CF"/>
<path d="M306.297 153.483L315.977 80.9207C316.177 79.3701 314.973 77.9979 313.414 77.9979H174.994C174.2 77.9979 173.531 78.5872 173.43 79.3765L163.539 153.485H306.297V153.483Z" fill="white"/>
<path d="M313.421 77.9979C314.98 77.9979 316.184 79.37 315.984 80.9206L314.937 87.8308L172.102 87.8071L173.437 79.3743C173.538 78.5872 174.207 77.9957 175.001 77.9957H313.421V77.9979Z" fill="#337AB7"/>
<path d="M233.127 83.353C233.252 82.3702 232.486 81.4991 231.494 81.4991H180.325C179.497 81.4991 178.798 82.1142 178.693 82.9358C178.568 83.9187 179.334 84.7897 180.325 84.7897H231.494C232.322 84.7897 233.021 84.1746 233.127 83.353Z" fill="#76A6CF"/>
<path d="M307.469 83.353C307.594 82.3702 306.828 81.4991 305.837 81.4991H301.165C300.337 81.4991 299.638 82.1142 299.533 82.9358C299.408 83.9187 300.174 84.7897 301.165 84.7897H305.837C306.665 84.7897 307.364 84.1746 307.469 83.353Z" fill="#76A6CF"/>
<path d="M167.563 124.061C167.531 124.061 167.501 124.061 167.469 124.055C167.079 124.003 166.806 123.646 166.858 123.257L170.501 95.9605C170.553 95.5712 170.91 95.2981 171.299 95.3497C171.688 95.4013 171.961 95.7583 171.91 96.1476L168.267 123.444C168.219 123.801 167.914 124.061 167.563 124.061Z" fill="#337AB7"/>
<path d="M303.431 165.324H300.425C300.033 165.324 299.715 165.006 299.715 164.614C299.715 164.223 300.033 163.905 300.425 163.905H303.431C303.866 163.905 304.233 163.58 304.289 163.148L310.238 118.545C310.29 118.155 310.649 117.882 311.036 117.934C311.425 117.985 311.698 118.342 311.647 118.732L305.698 163.333C305.552 164.468 304.575 165.326 303.429 165.326L303.431 165.324Z" fill="#337AB7"/>
<path d="M311.579 114.658C311.547 114.658 311.516 114.658 311.484 114.652C311.095 114.6 310.822 114.243 310.873 113.854L312.648 100.552C312.699 100.163 313.059 99.8897 313.446 99.9413C313.835 99.9929 314.108 100.35 314.056 100.739L312.282 114.041C312.235 114.398 311.929 114.658 311.579 114.658Z" fill="#337AB7"/>
<path d="M289.931 112.843C292.009 112.843 293.615 114.673 293.349 116.74L292.452 122.652C292.164 124.551 290.531 125.955 288.611 125.953L189.391 125.923C188.795 125.923 188.23 125.663 187.843 125.209C187.456 124.755 187.288 124.157 187.38 123.568L188.789 114.677C188.925 113.626 189.817 112.841 190.873 112.841H289.931V112.843Z" fill="#A1C2DE"/>
<path d="M195.508 122.061C193.469 122.061 191.809 120.4 191.809 118.362C191.809 116.323 193.469 114.662 195.508 114.662C197.547 114.662 199.207 116.323 199.207 118.362C199.207 120.4 197.547 122.061 195.508 122.061ZM195.508 116.084C194.252 116.084 193.23 117.106 193.23 118.362C193.23 119.618 194.252 120.639 195.508 120.639C196.764 120.639 197.785 119.618 197.785 118.362C197.785 117.106 196.764 116.084 195.508 116.084Z" fill="white"/>
<path d="M200.535 124.558C200.352 124.558 200.171 124.489 200.032 124.35L196.872 121.19C196.595 120.913 196.595 120.463 196.872 120.186C197.15 119.908 197.599 119.908 197.877 120.186L201.036 123.345C201.313 123.623 201.313 124.072 201.036 124.35C200.896 124.489 200.715 124.558 200.533 124.558H200.535Z" fill="white"/>
<path d="M139.624 153.398L147.308 95.7989C147.466 94.5764 146.515 93.4926 145.286 93.4926H36.0535C35.4285 93.4926 34.8995 93.9583 34.819 94.5798L26.9688 153.398H139.622H139.624Z" fill="white"/>
<path d="M145.284 93.4926C146.513 93.4926 147.464 94.5764 147.306 95.7989L146.479 101.252L33.7656 101.233L34.8186 94.5798C34.8991 93.9583 35.4264 93.4926 36.0514 93.4926H145.282H145.284Z" fill="#76A6CF"/>
<path d="M31.6213 119.107C31.5956 119.107 31.5716 119.107 31.5459 119.101C31.236 119.06 31.0186 118.776 31.0597 118.466L31.6829 113.795C31.724 113.486 32.0099 113.268 32.3181 113.309C32.628 113.35 32.8455 113.634 32.8044 113.944L32.1811 118.615C32.1435 118.899 31.9003 119.107 31.6213 119.107Z" fill="#337AB7"/>
<path d="M32.7775 110.419C32.7518 110.419 32.7279 110.419 32.7022 110.414C32.3923 110.373 32.1748 110.089 32.2159 109.779L34.2534 94.5061C34.3698 93.6072 35.142 92.9275 36.0477 92.9275H124.991C125.303 92.9275 125.556 93.1809 125.556 93.4925C125.556 93.8041 125.303 94.0575 124.991 94.0575H36.0495C35.7087 94.0575 35.4211 94.3126 35.3766 94.6516L33.3391 109.926C33.3014 110.21 33.0583 110.417 32.7792 110.417L32.7775 110.419Z" fill="#337AB7"/>
<path d="M142.473 132.573C142.447 132.573 142.423 132.573 142.397 132.567C142.088 132.526 141.87 132.242 141.911 131.932L145.503 105C145.544 104.69 145.829 104.474 146.139 104.514C146.448 104.555 146.666 104.839 146.625 105.149L143.033 132.081C142.995 132.365 142.752 132.573 142.473 132.573Z" fill="#337AB7"/>
<path d="M120.16 114.195H54.5977L55.0394 110.907H120.602L120.16 114.195Z" fill="#76A6CF"/>
<path d="M134.306 119.614H67.5078L67.9495 116.327H134.748L134.306 119.614Z" fill="#A1C2DE"/>
<path d="M49.3835 114.194H42.7266L43.1683 110.907H49.8252L49.3835 114.194Z" fill="#76A6CF"/>
<path d="M50.0514 109.214H43.3945L43.838 105.926H50.4932L50.0514 109.214Z" fill="#76A6CF"/>
<path d="M48.6016 119.614H41.9961L42.4378 116.326H49.0434L48.6016 119.614Z" fill="#76A6CF"/>
</g>
<defs>
<clipPath id="clip0_2995_1410">
<rect width="315.5" height="120" fill="white"/>
</clipPath>
</defs>
</svg>
