<svg width="118" height="120" viewBox="0 0 118 120" fill="none" xmlns="http://www.w3.org/2000/svg">
<path d="M108.569 119.957L2.27452 110.15C0.944476 110.027 -0.0343092 108.85 0.0885324 107.52L6.81226 34.6436L61.2927 0.812045C63.2908 -0.433647 65.868 -0.230386 67.646 1.31329L117.923 44.8952L111.197 117.79C111.066 119.112 109.892 120.08 108.569 119.957Z" fill="#337AB7"/>
<path opacity="0.2" d="M108.569 119.957L2.27452 110.15C0.944476 110.027 -0.0343092 108.85 0.0885324 107.52L6.81226 34.6436L61.2927 0.812045C63.2908 -0.433647 65.868 -0.230386 67.646 1.31329L117.923 44.8952L111.197 117.79C111.066 119.112 109.892 120.08 108.569 119.957Z" fill="black"/>
<path d="M117.922 44.8953L111.196 117.796C111.072 119.016 110.055 119.95 108.828 119.969L108.588 119.947L2.2753 110.138L2.02863 110.116C0.83179 109.867 0.00840241 108.764 0.11003 107.546L6.83573 34.6461L51.1475 71.6789L53.5698 73.7238L57.4588 76.9789L62.1125 74.5121L65.0123 72.9581L117.922 44.8953Z" fill="#337AB7"/>
<path opacity="0.2" d="M111.286 116.844L111.22 117.561C111.145 118.85 110.119 119.88 108.831 119.963L108.59 119.941L2.27781 110.133L2.03114 110.11C0.784469 109.788 -0.0280583 108.589 0.133757 107.312L0.200355 106.589L51.15 71.6729L53.5723 73.7178L57.4613 76.9729L62.115 74.5062L65.0148 72.9522L111.286 116.844Z" fill="black"/>
<path d="M108.084 50.1128L65.0117 72.9581L51.4868 71.9595L15.8672 42.1942L19.4839 2.99261L111.647 11.4959L108.084 50.1128Z" fill="#337AB7"/>
<path opacity="0.7" d="M108.084 50.1128L65.0117 72.9581L51.4868 71.9595L15.8672 42.1942L19.4839 2.99261L111.647 11.4959L108.084 50.1128Z" fill="white"/>
<path opacity="0.2" d="M16.174 38.8745L52.3723 69.6818C52.3723 69.6818 55.7601 67.8026 58.7621 68.518C61.764 69.2333 64.6861 70.8179 64.6861 70.8179L108.337 47.3777L108.084 50.1133L65.0117 72.9585L51.4868 71.96L15.8672 42.1951L16.174 38.8745Z" fill="black"/>
<path d="M111.278 117.044L111.216 117.723C111.089 119.098 109.908 120.112 108.578 119.99L2.28342 110.183C0.95338 110.06 -0.0219524 108.846 0.104836 107.471L0.167489 106.793L53.6859 72.3335L54.7703 71.6364C56.7733 70.3449 59.349 70.5466 61.1235 72.1347L62.2469 73.1234L111.278 117.044Z" fill="#337AB7"/>
<path d="M19.3242 45.6432L22.8299 7.64881L106.839 15.3997L103.422 52.4276" stroke="#337AB7" stroke-width="0.493341" stroke-miterlimit="10" stroke-linecap="round" stroke-linejoin="round"/>
<path d="M34.7528 41.3477C33.8865 41.2954 33.294 41.0807 32.9758 40.7028C32.6571 40.3259 32.5155 39.8568 32.549 39.2963C32.5786 38.8035 32.7118 38.2189 32.9491 37.542C33.1854 36.8661 33.4252 36.2193 33.6669 35.6032C34.1045 34.5548 34.5757 33.4665 35.0784 32.3372C35.5816 31.2085 36.0922 30.0876 36.6112 28.9761C37.1297 27.8651 37.6413 26.796 38.147 25.7689C38.6521 24.7422 39.1262 23.8073 39.5693 22.9642C38.4124 22.9119 37.4213 22.8823 36.5949 22.8749C35.7681 22.8675 35.0172 22.8784 34.3423 22.9055C33.6669 22.9331 32.9511 22.9923 32.1953 23.0831C32.3029 22.4245 32.6526 21.9301 33.2442 21.5991C33.8352 21.2681 34.6196 21.0594 35.5964 20.9731C36.5737 20.8872 37.6739 20.8808 38.8973 20.9543C39.7469 21.0056 40.518 21.0777 41.2121 21.1704C41.9052 21.2631 42.5693 21.3589 43.2027 21.4565C43.8362 21.5547 44.4583 21.6391 45.0675 21.7096C45.5624 21.9953 45.888 22.1768 46.0453 22.2543C46.2027 22.3322 46.2303 22.3677 46.1287 22.3618C45.7192 22.6435 45.217 22.8399 44.6225 22.9484C44.0276 23.0579 43.4148 23.1102 42.7844 23.1063C42.1534 23.1028 41.549 23.0831 40.9718 23.0481C40.1509 24.7896 39.3325 26.7013 38.516 28.7837C37.7 30.8666 36.9087 33.0274 36.1435 35.2657C35.8712 36.1019 35.6359 36.8257 35.437 37.4359C35.2382 38.0462 35.0809 38.6037 34.9654 39.1084C34.85 39.6131 34.776 40.1281 34.7444 40.6555C34.7395 40.7403 34.7375 40.838 34.7395 40.9495C34.7405 41.061 34.7454 41.1937 34.7528 41.3477Z" fill="#337AB7"/>
<path d="M42.6506 40.5701C42.2934 40.5484 42.0467 40.2485 41.9116 39.6688C41.7759 39.0891 41.73 38.4345 41.7739 37.7038C41.8223 36.9056 42.0152 35.9623 42.3536 34.874C42.6915 33.7862 43.1188 32.6396 43.6348 31.4344C44.1508 30.2292 44.7201 29.053 45.3437 27.905C45.9668 26.7575 46.6008 25.7215 47.2446 24.7965C47.8889 23.8719 48.4912 23.1369 49.0531 22.5902C49.6141 22.0451 50.0906 21.7836 50.4819 21.8068C50.8213 21.8275 51.065 22.0337 51.2115 22.4264C51.358 22.8187 51.4202 23.2104 51.3965 23.6011C51.3679 24.0767 51.2268 24.644 50.9742 25.3026C50.7216 25.9613 50.3852 26.6613 49.9658 27.4028C49.5455 28.1453 49.0625 28.8744 48.5164 29.5923C47.9698 30.3101 47.3891 30.9573 46.7749 31.5341C46.1602 32.1108 45.5272 32.5676 44.8765 32.9031C44.6402 33.4344 44.4375 33.9638 44.2692 34.4912C44.101 35.0176 43.9722 35.5262 43.8834 36.0151C43.7941 36.5045 43.7364 36.9702 43.7098 37.4117C43.7029 37.5306 43.6999 37.6456 43.7019 37.7561C43.7039 37.8676 43.7108 37.9663 43.7226 38.0521C43.8598 37.7536 44.0413 37.3595 44.2673 36.8701C44.4927 36.3807 44.7626 35.8636 45.0768 35.3195C45.3911 34.7758 45.7542 34.2608 46.1671 33.7738C46.58 33.2874 47.0423 32.9016 47.5539 32.6169C48.0655 32.3323 48.6185 32.2075 49.2135 32.2435C49.7571 32.2756 50.1784 32.4255 50.4784 32.69C50.7774 32.9554 50.9801 33.279 51.0847 33.6604C51.1898 34.0417 51.2303 34.4285 51.2071 34.8192C51.1755 35.3461 51.0556 35.8459 50.8479 36.3195C50.6402 36.7931 50.4345 37.2411 50.2298 37.6638C50.0255 38.0866 49.9111 38.4932 49.8879 38.8839C49.8696 39.1893 49.9244 39.4147 50.0522 39.5588C50.1799 39.7033 50.3457 39.7808 50.5499 39.7936C50.9234 39.8158 51.3723 39.6555 51.8958 39.3116C52.4192 38.9683 52.9421 38.5006 53.4641 37.9095C53.9855 37.3185 54.4473 36.6604 54.8494 35.9337L55.2085 36.3387C54.7838 37.1666 54.287 37.912 53.7187 38.577C53.1498 39.2421 52.5425 39.7635 51.8977 40.1424C51.252 40.5218 50.581 40.69 49.8844 40.6481C49.2559 40.6101 48.7897 40.4157 48.4873 40.065C48.1849 39.7142 48.0477 39.2929 48.0778 38.7995C48.099 38.4428 48.1868 38.0516 48.3398 37.6264C48.4937 37.2006 48.6432 36.7665 48.7897 36.3229C48.9352 35.8804 49.0196 35.4714 49.0423 35.098C49.067 34.6905 48.9949 34.3959 48.8267 34.2154C48.6585 34.0348 48.4468 33.9362 48.1923 33.9209C47.7675 33.8952 47.3748 34.0422 47.0142 34.3619C46.654 34.6811 46.3181 35.096 46.0063 35.6051C45.694 36.1152 45.4014 36.656 45.1281 37.2282C44.8548 37.7995 44.5874 38.3466 44.326 38.8676C44.0645 39.3891 43.7961 39.8079 43.5213 40.1237C43.2465 40.4394 42.9565 40.5884 42.6506 40.5701ZM45.4473 31.5045C45.912 31.1409 46.3738 30.6949 46.8321 30.1685C47.2895 29.6421 47.7196 29.0836 48.1222 28.4936C48.5243 27.904 48.8785 27.3288 49.1854 26.7669C49.4917 26.2059 49.7394 25.7008 49.9288 25.2518C50.1178 24.8029 50.2283 24.4511 50.2613 24.1976C50.2633 24.1635 50.2603 24.1379 50.2529 24.1201C50.2446 24.1028 50.2327 24.0935 50.216 24.0925C50.1143 24.0861 49.88 24.2893 49.5144 24.7022C49.1484 25.1147 48.7182 25.6736 48.2238 26.3766C47.73 27.0802 47.2342 27.8774 46.7374 28.7689C46.2401 29.6594 45.8104 30.5715 45.4473 31.5045Z" fill="#337AB7"/>
<path d="M55.2522 41.5593C54.7076 41.5267 54.2473 41.3151 53.8704 40.9263C53.4935 40.5366 53.3262 39.9766 53.3701 39.246C53.4071 38.6347 53.5832 37.989 53.896 37.3081C54.2098 36.6278 54.6247 35.9623 55.1417 35.3116C55.6582 34.6609 56.2394 34.0728 56.8847 33.5494C57.5305 33.0249 58.2073 32.614 58.9158 32.316C59.6242 32.0175 60.3183 31.8888 60.9981 31.9297C61.7115 31.9731 62.2996 32.1912 62.7618 32.5859C63.2236 32.9805 63.4372 33.4754 63.4012 34.0698C63.3736 34.5287 63.2098 34.8424 62.9098 35.0121C62.6099 35.1818 62.2488 35.2198 61.8289 35.1261C61.8709 34.9924 61.9098 34.8459 61.9449 34.6855C61.9799 34.5257 62.0021 34.3688 62.0115 34.2164C62.0332 33.8592 61.9754 33.541 61.8388 33.2598C61.7021 32.9791 61.413 32.8246 60.971 32.798C60.4949 32.7689 60.0011 32.9021 59.489 33.1946C58.9769 33.4882 58.4757 33.8843 57.9853 34.3831C57.4949 34.8824 57.0519 35.4359 56.6577 36.0422C56.2626 36.6495 55.9454 37.2529 55.7041 37.8523C55.4644 38.4517 55.3292 38.9895 55.3006 39.465C55.266 40.0427 55.4604 40.3442 55.8857 40.3698C56.2764 40.3935 56.7169 40.2327 57.2068 39.8869C57.6962 39.542 58.2014 39.095 58.7199 38.5459C59.2389 37.9973 59.7367 37.4349 60.2152 36.8577C60.6933 36.282 61.1077 35.7738 61.4584 35.3343C61.5309 35.2534 61.5931 35.2144 61.6444 35.2174C61.7283 35.24 61.8615 35.2864 62.0455 35.357C62.2285 35.428 62.3938 35.5183 62.5408 35.6298C62.6873 35.7413 62.7554 35.8819 62.7456 36.0516C62.7347 36.2218 62.6459 36.4334 62.4767 36.6875C62.308 36.9426 62.12 37.2253 61.9143 37.5361C61.7076 37.8484 61.5181 38.1606 61.3459 38.4739C61.1738 38.7877 61.0786 39.0975 61.0603 39.4034C61.047 39.6244 61.0973 39.8444 61.2123 40.0645C61.3267 40.285 61.5285 40.4034 61.8176 40.4211C62.2418 40.4468 62.8427 40.172 63.6188 39.5958C64.3953 39.0205 65.2083 38.0506 66.0573 36.686L66.4407 37.1187C65.9947 38.0121 65.4653 38.7911 64.8551 39.4527C64.2433 40.1158 63.6114 40.6278 62.9587 40.9885C62.3065 41.3491 61.6656 41.5119 61.0366 41.4734C60.3573 41.4325 59.8684 41.1947 59.5704 40.7586C59.2729 40.323 59.1215 39.8582 59.1175 39.3629C59.1205 39.3116 59.1279 39.2573 59.1402 39.1981C59.1526 39.1394 59.16 39.0837 59.1629 39.0334C58.4135 39.8577 57.7357 40.4946 57.1294 40.9441C56.524 41.393 55.8975 41.5983 55.2522 41.5593Z" fill="#337AB7"/>
<path d="M73.646 41.9762C73.0175 41.9382 72.5473 41.7472 72.2355 41.4054C71.9237 41.063 71.7826 40.6451 71.8122 40.1518C71.8339 39.7951 71.9158 39.429 72.0574 39.0541C72.199 38.6786 72.3421 38.2953 72.4847 37.9031C72.6272 37.5114 72.7106 37.1286 72.7333 36.7541C72.758 36.3466 72.6815 36.0605 72.5034 35.8967C72.3253 35.7324 72.1092 35.6426 71.8547 35.6273C71.345 35.5962 70.8098 35.7778 70.2493 36.17C69.6879 36.5627 69.1339 37.0625 68.5858 37.6683C68.0377 38.2751 67.5217 38.913 67.0377 39.5829C66.5542 40.2534 66.1344 40.8503 65.7787 41.3748C65.4728 41.3565 65.1872 41.2879 64.9218 41.1695C64.6563 41.0516 64.4378 40.8592 64.2656 40.5928C64.2883 40.509 64.4008 40.2559 64.6055 39.8331C64.8103 39.4108 65.0421 38.8967 65.2997 38.2894C65.5577 37.6826 65.7965 37.0531 66.0145 36.4009C66.2326 35.7492 66.3589 35.1429 66.3929 34.5824C66.5187 34.4709 66.7047 34.3545 66.9514 34.2326C67.197 34.1108 67.4477 34.058 67.7022 34.0733C68.2464 34.1058 68.5029 34.3688 68.4738 34.8616C68.4605 35.0822 68.388 35.432 68.2572 35.91C68.126 36.3885 67.9578 36.911 67.753 37.4783C68.2331 36.8765 68.7619 36.2988 69.3416 35.7452C69.9203 35.1917 70.5182 34.7462 71.1359 34.4078C71.753 34.0703 72.3672 33.9194 72.979 33.9564C73.6751 33.9983 74.1748 34.2711 74.4773 34.7753C74.7787 35.2795 74.9124 35.8296 74.8769 36.4241C74.8458 36.9332 74.7318 37.4088 74.5355 37.8484C74.3381 38.2889 74.1472 38.7033 73.9617 39.0931C73.7762 39.4823 73.6716 39.8725 73.648 40.2633C73.6307 40.5524 73.6815 40.764 73.8014 40.8992C73.9208 41.0339 74.0742 41.1074 74.2617 41.1187C74.6692 41.1434 75.1018 40.9687 75.5592 40.5953C76.017 40.2223 76.463 39.7458 76.8986 39.1671C77.3342 38.5879 77.7234 38.0018 78.0658 37.4083L78.4284 37.7625C78.0214 38.5741 77.5759 39.3062 77.0939 39.9589C76.6105 40.6121 76.0855 41.1217 75.5182 41.4882C74.9489 41.8538 74.3258 42.0166 73.646 41.9762Z" fill="#337AB7"/>
<path d="M85.0603 43.1242C84.5507 43.0931 84.1185 42.9012 83.7648 42.547C83.4111 42.1932 83.1393 41.7551 82.9488 41.2317C82.7584 40.7088 82.6242 40.1809 82.5458 39.6476C82.4668 39.1143 82.4392 38.6515 82.4629 38.2608C82.6854 38.2401 82.9789 38.1893 83.3415 38.1088C83.7041 38.0284 84.0781 37.91 84.4629 37.7541C84.8467 37.5982 85.1753 37.3881 85.4471 37.1231C85.7189 36.8582 85.8665 36.5301 85.8896 36.1394C85.9089 35.8168 85.8141 35.5509 85.605 35.3422C85.3958 35.134 85.1215 35.019 84.7816 34.9983C84.2888 34.9687 83.8117 35.1064 83.3504 35.4112C82.8887 35.7156 82.4585 36.1246 82.0618 36.6382C81.6637 37.1513 81.3021 37.7097 80.9765 38.3121C80.6499 38.915 80.3593 39.4942 80.1037 40.0501C79.8487 40.6061 79.6321 41.0832 79.455 41.4813C79.2759 41.914 79.0924 42.2016 78.9044 42.3437C78.717 42.4858 78.4787 42.5479 78.1901 42.5307C78.0199 42.5203 77.8625 42.4473 77.7175 42.3106C77.5719 42.174 77.4703 41.9505 77.4126 41.6402C77.3544 41.3299 77.3405 40.9194 77.3716 40.4098C77.4308 39.4246 77.641 38.3328 78.0031 37.135C78.3652 35.9381 78.827 34.7166 79.3879 33.4714C79.9488 32.2262 80.5532 31.0348 81.2019 29.8976C81.8497 28.7595 82.496 27.7417 83.1378 26.8424C83.7806 25.9435 84.3736 25.2331 84.9163 24.7116C85.4589 24.1901 85.8921 23.939 86.2147 23.9588C86.4866 23.975 86.7012 24.1586 86.8595 24.5088C87.0174 24.8596 87.081 25.2893 87.0509 25.7989C87.0159 26.3771 86.8497 27.015 86.5517 27.7131C86.2532 28.4112 85.8492 29.1073 85.3391 29.8014C84.828 30.4956 84.235 31.1463 83.5586 31.7531C82.8827 32.3609 82.1398 32.87 81.3307 33.282C80.7653 34.4591 80.3159 35.6165 79.9839 36.7561C79.6504 37.8962 79.4333 38.8888 79.3312 39.7354C79.6617 39.0561 80.045 38.3496 80.4821 37.6175C80.9182 36.8854 81.3988 36.1932 81.9242 35.543C82.4496 34.8927 83.0051 34.3762 83.5907 33.9934C84.1768 33.611 84.7836 33.4384 85.4121 33.4763C86.0746 33.5158 86.6346 33.7798 87.0909 34.2677C87.5473 34.7556 87.7549 35.3476 87.713 36.0447C87.6819 36.5543 87.5152 36.9919 87.2113 37.3575C86.9084 37.7226 86.5492 38.0126 86.1358 38.2263C85.7219 38.4409 85.3119 38.5948 84.9059 38.689C84.4994 38.7837 84.1595 38.8237 83.8882 38.8069C83.9099 39.0126 83.9528 39.2879 84.0174 39.6333C84.082 39.9781 84.1841 40.3299 84.3248 40.6875C84.4654 41.0457 84.6469 41.3511 84.8709 41.6027C85.0939 41.8553 85.3672 41.991 85.6903 42.0102C86.1491 42.0378 86.6104 41.874 87.0756 41.5183C87.5403 41.1621 88.0046 40.6792 88.4673 40.0674C88.9306 39.4562 89.3558 38.7694 89.7426 38.0082L90.0253 38.4093C89.7032 39.2253 89.2725 40.0053 88.7332 40.7487C88.1935 41.4922 87.6045 42.0837 86.9641 42.5223C86.3233 42.9609 85.6888 43.1617 85.0603 43.1242ZM82.0564 31.8414C82.6632 31.3836 83.2547 30.8394 83.8299 30.2089C84.4052 29.5784 84.8881 28.9213 85.2794 28.2365C85.6696 27.5528 85.8901 26.9312 85.9414 26.3712C85.9449 26.3199 85.9385 26.2775 85.9237 26.2425C85.7515 26.2661 85.4584 26.5385 85.0435 27.0589C84.6282 27.5799 84.1565 28.2548 83.6296 29.0836C83.1018 29.9139 82.5778 30.8335 82.0564 31.8414Z" fill="#337AB7"/>
<path d="M46.6953 60.1815C46.2755 60.1425 45.904 59.9817 45.5828 59.698C45.2622 59.4138 45.1255 59.0108 45.1734 58.4903C45.2232 57.9525 45.4191 57.4834 45.7609 57.0828C46.1023 56.6817 46.5335 56.328 47.054 56.0196C47.5735 55.7118 48.1374 55.433 48.7452 55.1844C49.3529 54.9353 49.9558 54.6945 50.5532 54.4612C50.8034 53.9589 51.0796 53.3403 51.385 52.6057C51.6904 51.8711 51.9691 51.1429 52.2227 50.4202C51.6302 51.1454 51.0086 51.77 50.3594 52.2949C49.7091 52.8198 49.0224 53.0482 48.3002 52.9821C47.9977 52.954 47.6884 52.8622 47.3717 52.7058C47.0555 52.5494 46.8029 52.3062 46.6129 51.9747C46.423 51.6442 46.3515 51.2258 46.3983 50.7221C46.4403 50.2682 46.569 49.7379 46.7861 49.1306C47.0032 48.5238 47.2602 47.9372 47.5582 47.3713C47.8562 46.8059 48.1536 46.3373 48.4511 45.9663C48.7481 45.5958 48.9972 45.4201 49.199 45.4384C49.2834 45.4463 49.4141 45.4922 49.5937 45.576C49.7718 45.6609 49.9445 45.7699 50.1102 45.9036C50.275 46.0373 50.3682 46.173 50.3895 46.3106C50.2202 46.4981 50.0249 46.7768 49.8039 47.1463C49.5833 47.5164 49.3673 47.9283 49.1561 48.3832C48.9445 48.8385 48.7629 49.2879 48.6124 49.731C48.461 50.1745 48.3707 50.5568 48.3406 50.8755C48.316 51.1449 48.3495 51.3768 48.4422 51.5711C48.5345 51.766 48.7318 51.8775 49.0342 51.9056C49.387 51.9382 49.7747 51.8213 50.198 51.5554C50.6198 51.2895 51.0476 50.9347 51.4778 50.4912C51.9089 50.0487 52.2987 49.5884 52.648 49.1118C52.7126 48.9653 52.7713 48.7803 52.8261 48.5563C52.8803 48.3323 52.9528 48.0975 53.0436 47.8518C53.1349 47.5894 53.2982 47.3373 53.5325 47.096C53.7669 46.8553 54.0767 46.7522 54.4634 46.7877C54.5809 46.7985 54.6939 46.8178 54.8014 46.8444C54.9089 46.8716 55.0372 46.909 55.1852 46.9564C55.1615 47.208 55.0283 47.692 54.7846 48.4063C54.5409 49.1212 54.2316 49.9485 53.8562 50.8889C53.4807 51.8287 53.0643 52.769 52.6046 53.7098C53.3702 53.4927 54.1625 53.0783 54.982 52.4666C55.8004 51.8563 56.5005 50.9762 57.0816 49.8257L57.457 50.1656C57.1275 50.9826 56.6781 51.6747 56.1087 52.2401C55.5399 52.8065 54.9158 53.2747 54.238 53.6442C53.5592 54.0137 52.8882 54.3122 52.2232 54.5386C51.6692 55.5889 51.0875 56.5569 50.4807 57.4414C49.8734 58.3265 49.2548 59.0192 48.6238 59.5204C47.9938 60.0216 47.3515 60.2417 46.6953 60.1815ZM46.575 59.2806C46.8769 59.3087 47.35 59.0132 47.9918 58.3941C48.6332 57.7754 49.3233 56.7715 50.0619 55.3817C49.4457 55.6304 48.8433 55.9091 48.2558 56.2194C47.6682 56.5292 47.1704 56.8692 46.7639 57.2387C46.3564 57.6077 46.1319 58.0275 46.088 58.4982C46.0742 58.6501 46.1013 58.8129 46.1704 58.9891C46.238 59.1647 46.3732 59.2619 46.575 59.2806Z" fill="#337AB7"/>
<path d="M57.7855 54.8992C57.0455 54.8306 56.5557 54.544 56.3134 54.0393C56.0727 53.5336 55.9794 52.9786 56.0352 52.3733C56.085 51.8355 56.2192 51.2973 56.4382 50.7581C56.6568 50.2188 56.9316 49.7196 57.2631 49.2583C57.5936 48.797 57.9493 48.4315 58.3302 48.1616C58.711 47.8913 59.0865 47.7733 59.4565 47.8074C59.5571 47.8168 59.677 47.8493 59.8161 47.9041C59.9543 47.9593 60.0539 48.024 60.1156 48.097C59.9118 48.282 59.6879 48.5494 59.4441 48.8996C59.1995 49.2499 58.9701 49.6313 58.754 50.0437C58.5379 50.4557 58.3554 50.8716 58.2074 51.2894C58.0574 51.7078 57.9676 52.0936 57.9345 52.4468C57.899 52.8336 57.9385 53.1419 58.0529 53.3728C58.1664 53.6042 58.3751 53.7329 58.6785 53.7611C59.0144 53.7921 59.4294 53.6481 59.9252 53.3299C60.4205 53.0112 60.903 52.6106 61.3716 52.1276C60.8916 51.6259 60.5576 51.0659 60.3697 50.4468C60.1807 49.8276 60.1215 49.1399 60.1916 48.3831C60.2305 47.9633 60.3637 47.5262 60.5917 47.0728C60.8201 46.6194 61.1417 46.2509 61.5581 45.9672C61.974 45.684 62.493 45.5701 63.1151 45.6273C63.8211 45.6924 64.2942 45.9356 64.5349 46.3555C64.7762 46.7768 64.8714 47.2637 64.8196 47.8182C64.7624 48.4404 64.5334 49.1266 64.1333 49.8784C63.7337 50.6298 63.2744 51.3368 62.7554 52.0013C62.9779 52.1577 63.232 52.2485 63.5182 52.2751C63.7703 52.2988 64.0786 52.2672 64.4422 52.1824C64.8063 52.0975 65.1649 51.9312 65.5182 51.6841C65.8719 51.4369 66.1694 51.096 66.4141 50.6609L66.789 51.0003C66.3603 51.7916 65.8211 52.3471 65.1738 52.6688C64.5251 52.9905 63.9148 53.1251 63.344 53.0719C63.125 53.0521 62.9084 53.0112 62.6943 52.9485C62.4792 52.8868 62.2838 52.805 62.1072 52.7038C61.4703 53.357 60.7712 53.9027 60.0115 54.3407C59.2493 54.7803 58.5078 54.9658 57.7855 54.8992ZM62.0209 51.4256C62.4955 50.876 62.903 50.2736 63.2429 49.6184C63.5828 48.9638 63.7796 48.3506 63.8324 47.7788C63.8709 47.3584 63.8364 47.0462 63.7278 46.8414C63.6193 46.6367 63.456 46.5237 63.2379 46.5035C62.9015 46.4724 62.5443 46.6727 62.1659 47.1039C61.787 47.5351 61.5645 48.1034 61.4999 48.8094C61.4629 49.2129 61.4846 49.6683 61.5645 50.1759C61.6444 50.6831 61.7974 51.1 62.0209 51.4256Z" fill="#337AB7"/>
<path d="M67.3422 55.7305C66.7704 55.6777 66.3283 55.3738 66.0156 54.8198C65.7023 54.2658 65.5775 53.6442 65.6411 52.955C65.6845 52.4843 65.8153 51.9372 66.0338 51.3131C66.2524 50.6891 66.5074 50.0818 66.8 49.4897C67.0915 48.8982 67.3866 48.4123 67.6845 48.0334C67.9815 47.654 68.2312 47.4735 68.4339 47.4922C68.5508 47.5026 68.7181 47.578 68.9342 47.7162C69.1507 47.8548 69.3343 48.0161 69.4872 48.1992C69.277 48.4513 69.0156 48.8509 68.7028 49.398C68.389 49.9456 68.1024 50.5337 67.8409 51.1622C67.58 51.7902 67.4236 52.3738 67.3742 52.9111C67.3663 52.9954 67.3634 53.1686 67.3644 53.4316C67.3653 53.695 67.4107 53.9407 67.4995 54.1691C67.5883 54.3975 67.7679 54.5243 68.0363 54.549C68.3224 54.5756 68.647 54.4488 69.0126 54.1686C69.3772 53.8889 69.7551 53.5125 70.1463 53.0403C70.5375 52.5677 70.9199 52.0522 71.2933 51.4932C71.6668 50.9343 72.0131 50.399 72.3313 49.8854C72.65 49.3728 72.91 48.9387 73.1123 48.5845C73.2455 48.6141 73.4226 48.6683 73.6441 48.7478C73.8651 48.8277 74.0595 48.9259 74.2272 49.0433C74.3945 49.1602 74.4689 49.3116 74.4522 49.4962C74.4472 49.547 74.3481 49.7497 74.1542 50.1045C73.9598 50.4597 73.7299 50.8874 73.4635 51.3881C73.1971 51.8899 72.9593 52.4015 72.7501 52.9239C72.541 53.4473 72.4176 53.9101 72.3806 54.3136C72.357 54.5657 72.388 54.7892 72.4714 54.9826C72.5553 55.1775 72.7403 55.287 73.0259 55.3137C73.3787 55.3462 73.8177 55.2253 74.3431 54.952C74.8681 54.6787 75.4196 54.2599 75.9973 53.694C76.5745 53.1286 77.1039 52.4444 77.5849 51.6412L77.912 51.951C77.4581 52.8247 76.909 53.5914 76.2632 54.2525C75.6179 54.9136 74.944 55.4143 74.243 55.7567C73.5415 56.0986 72.8799 56.2411 72.2588 56.1839C71.7881 56.1405 71.4369 56.0019 71.204 55.7685C70.9712 55.5347 70.8237 55.2461 70.7625 54.9017C70.7008 54.5569 70.6865 54.2081 70.7191 53.8548C70.7294 53.7374 70.7452 53.6121 70.7664 53.4779C70.7871 53.3442 70.8118 53.2199 70.8389 53.1035C70.5079 53.5648 70.1498 54.0019 69.764 54.4153C69.3787 54.8287 68.984 55.1607 68.5799 55.4118C68.1754 55.6634 67.7625 55.7695 67.3422 55.7305Z" fill="#337AB7"/>
<path d="M88.6743 54.2633C88.3783 54.2633 88.1208 54.1893 87.9042 54.0413C87.6872 53.8928 87.5781 53.6516 87.5781 53.3151C87.5781 52.9594 87.7759 52.6481 88.1706 52.3817C88.5658 52.1148 88.9807 51.9811 89.4148 51.9811C89.6916 51.9811 89.919 52.0458 90.0966 52.174C90.2742 52.3028 90.3635 52.5248 90.3635 52.841C90.3635 53.1573 90.1899 53.4735 89.8445 53.7892C89.4987 54.105 89.1085 54.2633 88.6743 54.2633ZM90.9856 45.2263C91.3808 44.1991 91.8051 43.1074 92.2599 41.9519C92.7138 40.796 93.178 39.6702 93.6521 38.5735C94.1262 37.4773 94.5954 36.4803 95.0601 35.5809C95.5238 34.6825 95.9738 33.9662 96.4079 33.4324C96.8426 32.8991 97.2471 32.6327 97.623 32.6327C97.8199 32.6327 97.9935 32.7116 98.1415 32.8695C98.29 33.0279 98.3635 33.2252 98.3635 33.462C98.3635 33.7393 98.2056 34.2671 97.8894 35.0471C97.5732 35.8281 97.1583 36.7709 96.6452 37.8769C96.1312 38.9835 95.5589 40.1586 94.9269 41.4029C94.2944 42.6476 93.6526 43.877 93.0009 45.0921C92.3492 46.3062 91.7271 47.4226 91.1346 48.4404C90.5421 49.4582 90.0379 50.2821 89.623 50.9145C89.5638 50.8953 89.514 50.8755 89.4745 50.8553C89.4351 50.8361 89.3956 50.8164 89.3561 50.7961C89.4351 50.1642 89.5638 49.5075 89.7414 48.8257C89.919 48.1444 90.1262 47.4878 90.364 46.8553C90.6008 46.2238 90.808 45.6806 90.9856 45.2263Z" fill="#337AB7"/>
</svg>
