<svg width="224" height="88" viewBox="0 0 224 88" fill="none" xmlns="http://www.w3.org/2000/svg">
<g clip-path="url(#clip0_2224_51169)">
<path d="M24.7378 73.9073C21.0394 72.4975 17.5811 70.3658 14.46 67.5725C11.4741 64.9005 8.8583 61.6795 6.68564 57.9978C4.54145 54.365 2.87837 50.3687 1.74167 46.1183C0.583062 41.7875 -0.00390625 37.2794 -0.00390625 32.718C-0.00390625 30.3906 0.153787 28.0376 0.464792 25.724L1.25326 19.8514L6.90757 21.6233C8.97803 22.2723 11.1346 22.6008 13.3182 22.6008C17.0401 22.6008 20.7517 21.6109 24.0523 19.7375L26.5185 18.338L28.9839 19.7383C29.0204 19.7587 29.0569 19.7784 29.0934 19.7981L29.1051 19.8047C29.1569 19.8332 29.2095 19.8609 29.2613 19.8894C32.4925 21.6634 36.1078 22.6008 39.7165 22.6008C41.9001 22.6008 44.0567 22.2716 46.1264 21.6233L51.7807 19.8514L52.5699 25.724C52.8809 28.0376 53.0386 30.3913 53.0386 32.718C53.0386 37.2385 52.4619 41.708 51.3237 46.0036C50.2067 50.219 48.5714 54.1891 46.4637 57.8022C44.329 61.4612 41.7563 64.6742 38.8178 67.3513C35.7493 70.1467 32.3465 72.299 28.7035 73.7474L28.6145 73.7832C28.5115 73.8248 28.4049 73.8671 28.2976 73.908L26.5177 74.5862L24.7393 73.908L24.7378 73.9073Z" fill="#003F60"/>
<path d="M25.9193 70.7964C22.6027 69.532 19.4926 67.6126 16.6753 65.0917C13.9449 62.6482 11.5466 59.6922 9.54773 56.3055C7.55758 52.9333 6.01131 49.2166 4.95273 45.2582C3.86932 41.2078 3.32031 36.9888 3.32031 32.7187C3.32031 30.5394 3.46778 28.3354 3.75908 26.1678L4.0219 24.2106L5.90692 24.8012C8.30005 25.5509 10.7917 25.9313 13.3126 25.9313C17.6098 25.9313 21.8894 24.791 25.6901 22.6344L26.5121 22.1678L27.3342 22.6344C27.3955 22.6687 27.4568 22.7023 27.5189 22.7351C27.5642 22.7592 27.6094 22.784 27.654 22.8088C31.3743 24.8515 35.5437 25.9306 39.7109 25.9306C42.2325 25.9306 44.7242 25.5502 47.1166 24.8004L49.0016 24.2098L49.2645 26.1671C49.5558 28.3347 49.7032 30.5387 49.7032 32.7179C49.7032 36.9501 49.1637 41.1334 48.0993 45.1509C47.059 49.0771 45.539 52.7691 43.5817 56.1244C41.6171 59.4914 39.2583 62.4409 36.5694 64.8902C33.7989 67.4148 30.7363 69.3538 27.4671 70.6533L27.3736 70.6906C27.2838 70.7263 27.1947 70.7621 27.1042 70.7964L26.5114 71.022L25.9186 70.7957L25.9193 70.7964Z" fill="#003F60"/>
<path d="M47.6172 26.3893C45.0598 27.1909 42.4126 27.5953 39.7136 27.5953C35.2354 27.5953 30.8258 26.4477 26.855 24.2677C26.7419 24.2057 26.6273 24.1458 26.5148 24.0815C22.4572 26.3842 17.922 27.5953 13.3161 27.5953C10.6178 27.5953 7.96912 27.1901 5.41245 26.3893C5.13064 28.4867 4.98828 30.6061 4.98828 32.7182C4.98828 49.5117 13.8023 64.394 26.5148 69.2409C26.6287 69.1971 26.7419 69.1511 26.855 69.1065C39.3836 64.1253 48.0407 49.3613 48.0407 32.7189C48.0407 30.6061 47.8983 28.4867 47.6165 26.39L47.6172 26.3893Z" fill="#003F60"/>
<path d="M31.3476 40.6232L31.0672 40.4729C31.0877 39.9998 30.6496 39.4668 29.9371 39.1653C29.053 38.7915 28.0813 38.9178 27.7666 39.4479C27.4527 39.9771 27.9148 40.7094 28.7989 41.0825C29.3165 41.3015 29.8641 41.3482 30.2926 41.2438L30.8533 41.5446C31.2191 41.741 31.4169 42.0483 31.3958 42.3878C31.3731 42.7441 31.1125 43.0522 30.6978 43.212L26.9782 44.643C27.0672 38.4572 27.1373 33.6154 27.1497 32.7284C27.6973 32.4867 28.0806 31.9392 28.0806 31.3011C28.0806 30.4396 27.3826 29.7417 26.5211 29.7417C25.6597 29.7417 24.9617 30.4396 24.9617 31.3011C24.9617 31.9311 25.3363 32.4743 25.8743 32.7196C25.8867 33.5825 25.9561 38.4119 26.0459 44.594L22.4518 43.2113C22.0371 43.0514 21.7758 42.7441 21.7539 42.3871C21.7327 42.0476 21.9305 41.7395 22.2963 41.5438L22.857 41.2431C23.2855 41.3475 23.8331 41.3007 24.3507 41.0817C25.2348 40.7079 25.6969 39.9764 25.383 39.4471C25.0691 38.9178 24.0973 38.7915 23.2125 39.1646C22.5 39.4654 22.0619 39.999 22.0824 40.4721L21.802 40.6225C21.4399 40.8167 21.1486 41.0912 20.9588 41.4161C20.7734 41.7337 20.688 42.0921 20.7106 42.4528C20.7588 43.2171 21.2822 43.8815 22.0773 44.1874L25.1194 45.3577L23.5089 45.9775C22.7139 46.2834 22.1904 46.9478 22.1422 47.7121C22.1196 48.0735 22.2058 48.432 22.3912 48.7495C22.581 49.0744 22.8723 49.3489 23.2351 49.5424L25.4691 50.7397L23.9959 51.5296C23.314 51.8954 22.9044 52.5342 22.9 53.2387C22.8957 53.9417 23.2957 54.5835 23.9703 54.9558L25.4947 55.7975L25.1151 56.0071C24.431 56.3845 24.0309 57.0357 24.0455 57.7483C24.0601 58.4674 24.4908 59.1076 25.199 59.4624L25.41 59.5683L25.3107 59.618C24.8697 59.8384 24.5215 60.1874 24.3288 60.6006C24.128 61.0313 24.1025 61.5132 24.2572 61.9585L24.4916 62.6324C24.5668 62.8485 24.769 62.9835 24.9851 62.9835C25.042 62.9835 25.0997 62.974 25.1567 62.9543C25.4297 62.8594 25.5735 62.5616 25.4794 62.2892L25.245 61.6154C25.1041 61.2102 25.3187 60.7831 25.7794 60.5524L26.2744 60.3042C26.2875 61.2124 26.3007 62.1075 26.3131 62.9835C26.3145 63.0938 26.4043 63.1821 26.5146 63.1821C26.6248 63.1821 26.7146 63.0938 26.7161 62.9835C26.7292 62.0877 26.7424 61.1715 26.7555 60.2422L27.3746 60.5524C27.8345 60.7831 28.0499 61.2102 27.909 61.6154L27.6746 62.2892C27.5797 62.5623 27.7243 62.8601 27.9973 62.9543C28.0543 62.974 28.1119 62.9835 28.1689 62.9835C28.385 62.9835 28.5879 62.8477 28.6624 62.6324L28.8968 61.9585C29.0515 61.5132 29.026 61.0306 28.8252 60.6006C28.6325 60.1874 28.2842 59.8384 27.8433 59.618L27.744 59.5683L27.955 59.4624C28.6631 59.1076 29.0939 58.4666 29.1085 57.7483C29.1224 57.0357 28.723 56.3845 28.0389 56.0071L27.6593 55.7975L29.1837 54.9558C29.8583 54.5835 30.2583 53.9417 30.2539 53.2387C30.2496 52.5342 29.84 51.8954 29.1581 51.5296L27.6849 50.7397L29.9188 49.5424C30.281 49.3482 30.573 49.0737 30.7628 48.7495C30.9482 48.432 31.0344 48.0735 31.0117 47.7121C30.9643 46.9478 30.4401 46.2834 29.6451 45.9775L28.0346 45.3577L31.0767 44.1874C31.8718 43.8815 32.3952 43.2171 32.4434 42.4528C32.466 42.0914 32.3799 41.7329 32.1952 41.4161C32.0054 41.0912 31.7141 40.8167 31.352 40.6225L31.3476 40.6232ZM23.1855 47.7771C23.2081 47.4208 23.4688 47.1128 23.8834 46.9529L26.0678 46.1126C26.0853 47.3405 26.1036 48.6101 26.1225 49.9038L23.7287 48.6203C23.3622 48.4239 23.1643 48.1166 23.1855 47.7764V47.7771ZM23.944 53.2453C23.9462 52.9248 24.1441 52.6357 24.4879 52.4517L26.1452 51.5632C26.1612 52.6977 26.178 53.8446 26.1948 54.9908L24.4733 54.0403C24.1346 53.8534 23.9418 53.5636 23.9433 53.2453H23.944ZM25.0888 57.7271C25.0822 57.4051 25.2757 57.1117 25.6188 56.9218L26.2189 56.5904C26.2299 57.3372 26.2401 58.0819 26.251 58.8207L25.6655 58.5272C25.3056 58.3469 25.0953 58.0549 25.0888 57.7264V57.7271ZM28.0601 57.7271C28.0535 58.0556 27.8433 58.3476 27.4834 58.528L26.7723 58.8842C26.7832 58.1023 26.7949 57.3139 26.8066 56.5225L27.5308 56.9226C27.8739 57.1117 28.0667 57.4051 28.0608 57.7278L28.0601 57.7271ZM29.2048 53.2453C29.207 53.5636 29.0136 53.8534 28.6748 54.0403L26.827 55.0602C26.8446 53.868 26.8614 52.6758 26.8781 51.496L28.6595 52.451C29.0034 52.6349 29.2019 52.9248 29.2034 53.2445L29.2048 53.2453ZM29.9641 47.7771C29.9853 48.1173 29.7874 48.4247 29.4209 48.6211L26.9008 49.9717C26.9198 48.6378 26.9387 47.3288 26.957 46.0651L29.2654 46.9529C29.6801 47.1128 29.9415 47.4208 29.9634 47.7771H29.9641Z" fill="white"/>
<path d="M35.255 33.9682C34.0811 33.1483 32.456 31.6824 31.8391 31.264C30.6593 30.4646 30.1884 31.751 29.627 32.3621C28.8393 33.2199 28.0676 33.4148 27.6836 33.4206V38.2507C28.1172 38.1215 28.5078 38.0032 28.9021 37.8988C29.3036 37.793 29.8322 38.4559 31.3397 37.8711C32.0873 37.5813 32.7334 38.4296 34.1884 37.7733C34.7484 37.5207 36.0523 38.3347 37.5423 37.4498C38.2614 37.0228 39.6274 37.8448 41.0415 35.8525C40.2633 35.705 38.2994 36.0927 35.2558 33.9675L35.255 33.9682Z" fill="white"/>
<path d="M24.1231 37.9001C24.5173 38.0045 24.9072 38.1227 25.3416 38.2519V33.4219C24.9575 33.416 24.1859 33.2204 23.3981 32.3633C22.8367 31.7522 22.3658 30.4658 21.1861 31.2653C20.5692 31.6836 18.9433 33.1495 17.7701 33.9694C14.7265 36.0946 12.7619 35.707 11.9844 35.8544C13.3985 37.8468 14.7644 37.0247 15.4836 37.4518C16.9736 38.3374 18.2775 37.5226 18.8374 37.7752C20.2925 38.4315 20.9386 37.5832 21.6861 37.873C23.1937 38.4578 23.7223 37.7949 24.1238 37.9008L24.1231 37.9001Z" fill="white"/>
<path d="M214.426 0H33.7719C28.6425 0 24.4688 4.17302 24.4688 9.30316V18.6078L26.5151 17.4463L28.3622 18.4953V9.18708C28.3622 6.20478 30.7889 3.77806 33.7719 3.77806H214.426C217.409 3.77806 219.836 6.20478 219.836 9.18708V78.6968C219.836 81.6806 217.409 84.1073 214.426 84.1073H33.7719C30.7889 84.1073 28.3622 81.6806 28.3622 78.6968V74.7122L26.5136 75.4167L24.4688 74.637V78.6968C24.4688 83.8262 28.6425 88.0007 33.7719 88.0007H214.426C219.555 88.0007 223.729 83.827 223.729 78.6968V9.30316C223.729 4.17375 219.555 0 214.426 0Z" fill="#003F60"/>
<path d="M76.8041 61.2036C75.763 59.8282 74.4781 59.1405 72.9479 59.1405C72.2741 59.1405 71.6506 59.2734 71.0768 59.5384C70.5029 59.8034 70.0094 60.164 69.5962 60.6196C69.183 61.0759 68.8574 61.6183 68.6208 62.2476C68.3836 62.8777 68.2653 63.5566 68.2653 64.2859C68.2653 65.0153 68.3836 65.7198 68.6208 66.3491C68.8581 66.9791 69.1866 67.526 69.6079 67.9895C70.0284 68.4539 70.5219 68.8182 71.0884 69.0832C71.6542 69.3482 72.2668 69.4811 72.9245 69.4811C74.3628 69.4811 75.6564 68.8189 76.8041 67.4924V73.2591L76.3449 73.4329C75.6564 73.6979 75.0132 73.8928 74.4168 74.0169C73.8203 74.141 73.2304 74.2031 72.6493 74.2031C71.4557 74.2031 70.3117 73.9585 69.2173 73.4701C68.1229 72.9817 67.1593 72.2932 66.3248 71.407C65.4903 70.5207 64.8209 69.4679 64.3164 68.2502C63.8112 67.0324 63.5586 65.7023 63.5586 64.2604C63.5586 62.8185 63.8068 61.4971 64.3047 60.2954C64.8019 59.0945 65.4677 58.0585 66.3022 57.1883C67.1359 56.3181 68.1039 55.6391 69.2056 55.15C70.3073 54.6616 71.463 54.417 72.6719 54.417C73.3604 54.417 74.0379 54.4958 74.7037 54.6535C75.3695 54.8112 76.0696 55.0551 76.8041 55.3865V61.2029V61.2036Z" fill="#003F60"/>
<path d="M79.1211 64.3108C79.1211 62.9185 79.3584 61.622 79.8329 60.421C80.3067 59.2201 80.9652 58.1717 81.807 57.2766C82.6487 56.3816 83.6548 55.6822 84.8258 55.1763C85.9961 54.6711 87.2854 54.4185 88.6936 54.4185C90.1019 54.4185 91.3715 54.6711 92.5498 55.1763C93.7281 55.6822 94.7422 56.3816 95.5913 57.2766C96.4403 58.1717 97.1025 59.2201 97.577 60.421C98.0508 61.6227 98.2888 62.9193 98.2888 64.3108C98.2888 65.7023 98.0516 66.9996 97.577 68.2013C97.1025 69.4029 96.4403 70.4506 95.5913 71.3456C94.7422 72.2407 93.7281 72.9408 92.5498 73.446C91.3708 73.9512 90.0859 74.2038 88.6936 74.2038C87.3014 74.2038 85.9961 73.9512 84.8258 73.446C83.6548 72.9408 82.6487 72.2407 81.807 71.3456C80.9652 70.4506 80.3067 69.4029 79.8329 68.2013C79.3584 66.9996 79.1211 65.703 79.1211 64.3108ZM83.8271 64.3108C83.8271 65.0562 83.957 65.7446 84.2176 66.3739C84.4775 67.004 84.8294 67.5508 85.2733 68.0144C85.7172 68.4787 86.2333 68.8386 86.8225 69.0956C87.4117 69.3526 88.0351 69.4811 88.6936 69.4811C89.3522 69.4811 89.9749 69.3533 90.5641 69.0956C91.1532 68.8386 91.6737 68.4787 92.1249 68.0144C92.5761 67.5508 92.9316 67.004 93.1923 66.3739C93.4522 65.7446 93.5829 65.0562 93.5829 64.3108C93.5829 63.5654 93.4529 62.8777 93.1923 62.2476C92.9316 61.6183 92.5761 61.0715 92.1249 60.6072C91.6737 60.1436 91.1532 59.7829 90.5641 59.526C89.9749 59.269 89.3514 59.1405 88.6936 59.1405C88.0359 59.1405 87.4117 59.269 86.8225 59.526C86.2333 59.7829 85.7172 60.1436 85.2733 60.6072C84.8294 61.0715 84.4775 61.6183 84.2176 62.2476C83.957 62.8777 83.8271 63.5647 83.8271 64.3108Z" fill="#003F60"/>
<path d="M100.352 73.6821L103.29 54.9399H107.743L111.21 64.9323L114.653 54.9399H119.106L122.045 73.6821H117.569L116.076 62.8939L111.99 73.6821H110.2L106.321 62.8939L104.828 73.6821H100.352H100.352Z" fill="#003F60"/>
<path d="M129.39 73.6821H124.891V54.9399H132.053C133.996 54.9399 135.485 55.4868 136.517 56.5804C137.55 57.674 138.066 59.2152 138.066 61.2039C138.066 63.1925 137.549 64.7337 136.517 65.8273C135.484 66.921 133.995 67.4678 132.053 67.4678H129.39V73.6821ZM129.39 63.5401H130.882C132.535 63.5401 133.362 62.7611 133.362 61.2039C133.362 59.6466 132.535 58.8677 130.882 58.8677H129.39V63.5408V63.5401Z" fill="#003F60"/>
<path d="M144.96 54.9399V69.5557H150.355V73.6821H140.461V54.9399H144.96Z" fill="#003F60"/>
<path d="M157.167 54.9399V73.6821H152.668V54.9399H157.167Z" fill="#003F60"/>
<path d="M171.394 70.426H164.967L163.934 73.6821H159.137L165.725 54.9399H170.637L177.225 73.6821H172.428L171.395 70.426H171.394ZM170.201 66.7217L168.181 60.4826L166.161 66.7217H170.201Z" fill="#003F60"/>
<path d="M179.199 73.6821V54.9399H183.699L192.008 66.399V54.9399H196.484V73.6821H192.008L183.699 62.223V73.6821H179.199Z" fill="#003F60"/>
<path d="M206.679 59.0658V73.6816H202.18V59.0658H198.484V54.9395H210.375V59.0658H206.679Z" fill="#003F60"/>
<path d="M72.1892 27.6409H84.6228V13.796H93.2339V49.6683H84.6228V34.8721H72.1892V49.6683H63.5781V13.796H72.1892V27.6409Z" fill="#003F60"/>
<path d="M108.787 13.796V49.6683H100.176V13.796H108.787Z" fill="#003F60"/>
<path d="M124.342 49.6683H115.73V13.796H129.438C133.158 13.796 136.006 14.8429 137.983 16.936C139.96 19.0291 140.949 21.9793 140.949 25.7851C140.949 29.5909 139.96 32.541 137.983 34.6341C136.006 36.7272 133.158 37.7741 129.438 37.7741H124.342V49.6683ZM124.342 30.2574H127.198C130.361 30.2574 131.943 28.7666 131.943 25.7851C131.943 22.8035 130.361 21.3127 127.198 21.3127H124.342V30.2567V30.2574Z" fill="#003F60"/>
<path d="M163.965 43.4357H151.664L149.687 49.6683H140.504L153.113 13.796H162.516L175.126 49.6683H165.943L163.966 43.4357H163.965ZM161.681 36.3476L157.814 24.406L153.948 36.3476H161.681Z" fill="#003F60"/>
<path d="M199.203 43.4357H186.901L184.924 49.6683H175.742L188.352 13.796H197.754L210.364 49.6683H201.182L199.205 43.4357H199.203ZM196.918 36.3476L193.051 24.406L189.185 36.3476H196.917H196.918Z" fill="#003F60"/>
</g>
<defs>
<clipPath id="clip0_2224_51169">
<rect width="223.736" height="88" fill="white"/>
</clipPath>
</defs>
</svg>
