<svg width="245" height="65" viewBox="0 0 245 65" fill="none" xmlns="http://www.w3.org/2000/svg">
<mask id="mask0_2224_51157" style="mask-type:luminance" maskUnits="userSpaceOnUse" x="0" y="0" width="245" height="65">
<path d="M244.814 0.265259H0.0078125V64.2653H244.814V0.265259Z" fill="white"/>
</mask>
<g mask="url(#mask0_2224_51157)">
<path d="M4.09605 63.4487C3.04556 63.4487 2.37645 63.4086 1.42632 63.4086C0.415968 63.4086 0.0078125 63.2681 0.0078125 62.9068C0.0078125 62.619 0.275456 62.1908 0.710374 61.582C1.95492 59.8356 2.84482 57.8282 3.05893 55.1919C3.27305 52.5289 3.31989 50.254 3.34665 47.4303C3.36673 45.2959 3.48716 43.041 3.48716 40.9668C3.48716 37.3937 3.29981 34.0348 3.3801 29.9265C3.40687 28.595 3.42026 27.491 3.42026 26.5342C3.42026 24.1119 3.36004 22.5798 3.36004 20.3985C3.36004 16.9726 3.31321 13.3594 3.23959 9.97376C3.17938 7.06315 1.77426 4.13246 0.255382 2.11176C0.0345768 1.81736 0.0479589 1.52964 0.489569 1.40251C0.743829 1.32891 1.08507 1.31553 1.3661 1.31553C2.83144 1.31553 4.40385 1.34229 5.97625 1.36906C6.47807 1.37575 6.97989 1.38244 7.48173 1.38244C9.0742 1.38244 10.6667 1.31553 12.2591 1.31553C13.3096 1.31553 13.9788 1.35568 14.9289 1.35568C15.9392 1.35568 16.3473 1.49619 16.3473 1.85751C16.3473 2.14522 16.0798 2.57346 15.6448 3.18234C14.4003 4.9287 13.5104 6.93602 13.2963 9.5723C13.0822 12.2287 13.0353 14.5103 13.0085 17.334C12.9952 18.3777 12.9952 19.3948 12.9952 20.4118C12.9952 21.7098 13.0019 22.9946 13.0085 24.2793C13.0085 24.7074 13.2695 25.0687 13.6174 25.0687C14.9088 25.0622 15.8857 25.0687 17.592 25.0487C18.8699 25.0487 20.1545 25.0487 21.4326 25.0487C22.2824 25.0487 23.1389 25.0487 23.9886 25.0554C24.3232 25.0554 24.5774 24.7007 24.5774 24.286C24.5573 22.9745 24.5305 21.8169 24.5305 20.3783C24.5305 16.966 24.4837 13.3528 24.4101 9.96707C24.3499 7.05646 22.9448 4.12578 21.4259 2.10507C21.1984 1.81067 21.2185 1.52295 21.6601 1.39582C21.9144 1.32222 22.2557 1.30884 22.5366 1.30884C24.3968 1.30884 26.2502 1.35568 28.1102 1.35568C29.9704 1.35568 31.6566 1.30884 33.4297 1.30884C34.4801 1.30884 35.1493 1.34899 36.0993 1.34899C37.1097 1.34899 37.5179 1.4895 37.5179 1.85081C37.5179 2.13853 37.2502 2.56675 36.8153 3.17565C35.5709 4.92202 34.6809 6.92933 34.4669 9.56562C34.2526 12.222 34.2059 14.5036 34.179 17.3273C34.1523 19.8162 34.0318 21.991 34.0318 24.3796C34.0318 27.5913 34.2192 31.1242 34.1389 34.8377C34.1121 36.1692 34.0987 37.2734 34.0987 38.2302C34.0987 40.6455 34.159 42.1846 34.159 44.3658C34.159 47.7916 34.2059 51.4049 34.2795 54.7905C34.3397 57.701 35.7448 60.6318 37.2637 62.6526C37.4912 62.947 37.471 63.2346 37.0294 63.3617C36.7752 63.4353 36.4339 63.4487 36.1529 63.4487C34.6877 63.4487 33.1152 63.422 31.5429 63.3951C31.0477 63.3886 30.5459 63.3886 30.044 63.3886C28.4515 63.3886 26.859 63.4554 25.2598 63.4554C24.2094 63.4554 23.5403 63.4153 22.5902 63.4153C21.5798 63.4153 21.1717 63.2748 21.1717 62.9135C21.1717 62.6257 21.4393 62.1975 21.8742 61.5886C23.1187 59.8423 24.0086 57.835 24.2227 55.1986C24.4369 52.5356 24.4837 50.2607 24.5105 47.437C24.5238 46.3932 24.5238 45.3762 24.5238 44.3591C24.5238 41.0738 24.4771 37.8754 24.4904 34.3961C24.4904 33.9679 24.2294 33.5999 23.8881 33.5999C22.6973 33.6199 21.5197 33.6668 20.3353 33.6668C18.1072 33.6668 15.879 33.5798 13.6442 33.6134C13.2896 33.6134 12.9818 33.9478 12.9751 34.3895C12.9751 34.5433 12.9751 34.6972 12.9684 34.8511C12.9416 36.1826 12.935 37.2799 12.935 38.2434C12.935 40.6657 12.9952 42.2046 12.9952 44.3993C12.9952 47.8118 13.042 51.4249 13.1156 54.8106C13.1758 57.7212 14.581 60.6519 16.0998 62.6726C16.3273 62.967 16.3072 63.2546 15.8656 63.3818C15.6114 63.4554 15.2701 63.4687 14.9891 63.4687C13.129 63.4687 11.2756 63.422 9.40876 63.422C7.54194 63.422 5.86249 63.4687 4.09605 63.4687V63.4487Z" fill="#B3282D"/>
<path d="M45.9124 63.4485C44.862 63.4485 44.1929 63.4083 43.2426 63.4083C42.2324 63.4083 41.8242 63.2678 41.8242 62.9066C41.8242 62.6187 42.0917 62.1906 42.5268 61.5816C43.7713 59.8354 44.6612 57.828 44.8753 55.1917C45.0893 52.5286 45.1362 50.2538 45.1629 47.4301C45.1764 46.393 45.1764 45.3693 45.1764 44.3589C45.1764 41.4818 45.1429 38.6782 45.1429 35.6939C45.1429 33.8606 45.1564 31.9536 45.1964 29.9195C45.2233 28.588 45.23 27.484 45.23 26.5272C45.23 24.1051 45.1697 22.5728 45.1697 20.3915C45.1697 16.9658 45.1228 13.3525 45.0492 9.96683C44.989 7.05622 43.5839 4.12553 42.065 2.10483C41.8375 1.81042 41.8577 1.52271 42.2993 1.39558C42.5535 1.32198 42.8948 1.30859 43.1757 1.30859C44.641 1.30859 46.2135 1.33536 47.7858 1.36212C48.2877 1.36881 48.7895 1.3755 49.2914 1.3755C50.8839 1.3755 52.4764 1.30859 54.0689 1.30859C55.1193 1.30859 55.7884 1.34874 56.7385 1.34874C57.7489 1.34874 58.157 1.48925 58.157 1.85057C58.157 2.13828 57.8893 2.56651 57.4545 3.1754C56.21 4.92177 55.3201 6.92908 55.106 9.56537C54.8917 12.2217 54.845 14.5034 54.8181 17.327C54.7914 19.9098 54.7245 22.459 54.7245 24.9749C54.7245 28.1331 54.8583 31.2109 54.7847 34.8309C54.758 36.1624 54.7513 37.2597 54.7513 38.2232C54.7513 40.6453 54.8116 42.1843 54.8116 44.379C54.8116 47.7914 54.8583 51.4046 54.9319 54.7902C54.9922 57.7008 56.3973 60.6315 57.9162 62.6523C58.1436 62.9467 58.1236 63.2344 57.6887 63.3614C57.4345 63.435 57.0932 63.4485 56.8121 63.4485C54.9521 63.4485 53.0986 63.4016 51.2317 63.4016C49.365 63.4016 47.6855 63.4485 45.9191 63.4485H45.9124Z" fill="#B3282D"/>
<path d="M72.2857 63.415C71.2353 63.415 70.5662 63.3749 69.6159 63.3749C68.6057 63.3749 68.1975 63.2344 68.1975 62.8731C68.1975 62.5852 68.4652 62.1571 68.9001 61.5481C70.1446 59.8019 71.0345 57.7945 71.2486 55.1582C71.4628 52.4952 71.5095 50.2203 71.5364 47.3966C71.5699 44.419 71.5966 41.6489 71.5966 38.7451C71.5966 36.0017 71.5028 33.0643 71.5699 29.886C71.5966 28.5545 71.6033 27.4573 71.6033 26.4937C71.6033 24.0716 71.543 22.5326 71.543 20.3446C71.543 18.4712 71.5564 16.3233 71.5564 14.2089C71.5564 13.0046 71.5564 11.8135 71.5364 10.6894C71.5364 10.2545 71.2419 9.91997 70.894 9.91997C69.7499 9.92666 68.6057 9.94674 67.4815 9.98019C65.1463 10.0605 62.7108 11.8872 61.0916 13.774C60.8507 14.0551 60.6231 14.035 60.5228 13.4863C60.4627 13.1718 60.4492 12.7503 60.4492 12.3957C60.4492 10.569 60.4694 8.61522 60.4961 6.65474C60.4961 6.086 60.5028 5.51725 60.5028 4.9552C60.5028 4.24595 60.5028 3.06832 60.4961 2.35907C60.4894 1.50262 60.911 1.27512 61.6001 1.27512H66.4377C68.967 1.32196 71.4963 1.3688 74.0254 1.3688C76.5547 1.3688 78.9567 1.30858 81.4391 1.30858C82.6235 1.30858 84.3764 1.35542 85.427 1.34203L91.1812 1.26843C91.9239 1.26843 92.2385 1.48255 92.2385 2.52635C92.2385 4.5872 92.2787 7.31715 92.2787 8.98992C92.2787 10.3014 92.2452 11.1311 92.2452 12.3087C92.2452 13.5599 92.1315 14.0751 91.8438 14.0751C91.6095 14.0751 91.2683 13.7473 90.7798 13.2053C89.3747 11.6596 87.7622 10.3816 85.6411 10.1207C84.3364 9.96011 83.1387 9.93336 81.8942 9.93336C81.5596 9.93336 81.2718 10.2545 81.2718 10.6761C81.2518 13.0848 81.2183 15.5873 81.2049 17.2868C81.1916 18.324 81.1916 19.3476 81.1916 20.358C81.1916 23.2284 81.2251 26.0321 81.2251 29.0096C81.2251 30.8496 81.2116 32.7566 81.1715 34.7907C81.1447 36.1222 81.138 37.2195 81.138 38.183C81.138 40.6052 81.1982 42.1441 81.1982 44.3388C81.1982 47.7512 81.2451 51.3644 81.3187 54.75C81.3788 57.6608 82.7839 60.5913 84.3028 62.6121C84.5303 62.9065 84.5103 63.1942 84.0687 63.3214C83.8145 63.395 83.4732 63.4083 83.1921 63.4083C81.3321 63.4083 79.4787 63.3614 77.6185 63.3614C75.7583 63.3614 74.0723 63.4083 72.2991 63.4083H72.2857V63.415Z" fill="#241C34"/>
<path d="M120.565 63.4153C119.273 63.4153 117.982 63.4019 116.697 63.3886C116.623 63.3886 116.43 63.4019 116.195 63.4019C115.908 63.4019 115.566 63.3886 115.305 63.315C114.857 63.1878 114.844 62.9001 115.071 62.6057C116.001 61.388 117.072 60.1835 117.614 58.5508C117.741 58.1628 117.794 57.7681 117.794 57.3732C117.794 56.276 117.38 55.1518 117.045 53.9475C116.49 51.9268 116.062 50.1805 115.593 48.6616C114.804 46.0854 113.994 43.951 112.883 40.6523C112.823 40.4716 112.682 39.9365 112.442 39.2472C112.281 38.7923 111.946 38.6584 111.545 38.6516C110.883 38.6451 110.267 38.6718 109.792 38.6718C109.638 38.6718 108.42 38.712 108.28 38.712C107.925 38.712 107.631 38.9862 107.631 39.4278C107.617 41.6627 107.584 42.8403 107.584 43.215C107.597 45.403 107.591 46.9486 107.611 49.7656C107.644 54.9913 107.544 55.6069 108.059 57.4737C108.594 59.4141 109.578 61.234 110.622 62.6124C110.849 62.9068 110.829 63.1945 110.387 63.3216C110.133 63.3952 109.792 63.4086 109.511 63.4086C107.122 63.4086 104.747 63.335 102.365 63.335C100.398 63.335 98.3703 63.422 96.4834 63.3952C96.4166 63.3952 96.2158 63.4086 95.9815 63.4086C95.7006 63.4086 95.3593 63.3952 95.105 63.3216C94.6634 63.1945 94.65 62.9068 94.8775 62.6124C96.3964 60.5984 97.7948 57.6611 97.8618 54.7571C97.9287 51.6123 97.9822 48.2667 97.9822 45.0752C97.9822 42.566 98.0492 40.9936 98.0492 38.4643C98.0492 37.4473 98.0358 36.2697 98.009 34.811C97.9354 31.3184 98.0558 28.4076 98.0558 25.3232C98.0558 22.6801 98.0023 19.9971 97.9756 17.3072C97.942 14.4903 97.902 12.2086 97.6878 9.54558C97.4737 6.90931 96.5838 4.90869 95.3393 3.15563C94.9044 2.54674 94.6367 2.09174 94.6367 1.79065C94.6367 1.48955 94.911 1.32896 95.5601 1.32896C96.731 1.32896 97.4268 1.28882 98.5375 1.28882C100.043 1.28882 101.535 1.34904 103.027 1.34904C106.868 1.34904 103.549 1.28882 112.288 1.28882C113.546 1.28882 114.85 1.45609 116.102 1.63675C119.447 2.11851 122.98 3.90502 125.242 7.11673C127.256 9.98051 128.058 13.5468 128.132 17.14C128.239 22.1784 127.972 25.4769 126.861 29.3043C126.165 31.7064 124.74 33.5732 123.034 34.8646C122.732 35.0921 122.425 35.3062 122.11 35.5068C121.695 35.7745 121.682 36.3164 121.836 36.7916C122.545 38.946 123.241 41.2613 123.977 43.4425C124.733 45.6974 125.335 47.2163 126.326 50.1737C128.587 57.0588 128.882 58.5174 130.936 61.0065C131.377 61.5485 131.625 61.9032 132.053 62.4718C132.281 62.7664 132.381 63.2614 132.026 63.3283C131.632 63.4019 131.049 63.4086 130.768 63.4086C127.363 63.4086 123.957 63.4353 120.565 63.4353V63.4153ZM108.173 30.1406C108.387 30.134 108.608 30.1273 108.835 30.1273C109.685 30.1273 111.016 30.1406 111.445 30.1206C114.917 29.9198 115.814 29.6723 117.386 27.3638C118.176 26.1996 118.383 24.5603 118.464 23.1352C118.53 21.9843 118.584 20.82 118.584 19.6625C118.584 18.0566 118.484 16.4574 118.189 14.8784C117.968 13.694 117.453 12.4964 116.717 11.6399C115.165 9.8333 112.582 9.77309 110.729 9.77309C110.006 9.77309 109.243 9.80654 108.541 9.86006C108.226 9.88014 107.965 9.94037 107.744 10.1745C107.591 10.3351 107.57 10.6898 107.57 10.9775C107.57 11.5797 107.57 12.1685 107.57 12.503C107.57 13.5067 107.57 14.4836 107.57 15.4538C107.57 16.6113 107.57 17.7689 107.55 18.96C107.53 20.064 107.524 21.8169 107.524 23.6838C107.524 25.6777 107.53 27.7921 107.55 29.3644C107.55 29.7928 107.818 30.1608 108.159 30.1473L108.173 30.1406Z" fill="#241C34"/>
<path d="M149.418 64.2648C147.043 64.2648 144.547 63.8701 142.479 62.3779C140.164 60.7051 138.11 58.4168 136.765 54.9709C134.618 49.4507 134.443 43.2414 134.423 37.233C134.417 34.9045 134.343 32.4354 134.397 29.8058C134.423 28.4742 134.437 27.3837 134.437 26.4269C134.437 24.0248 134.377 22.4992 134.377 20.3246C134.377 16.9054 134.33 13.3057 134.256 9.93337C134.196 7.03614 132.791 4.11216 131.272 2.10483C131.044 1.81042 131.065 1.52271 131.506 1.40227C131.76 1.32867 132.102 1.31528 132.383 1.31528C134.189 1.31528 136.143 1.3822 138.083 1.3822C139.863 1.3822 141.643 1.31528 143.43 1.31528C144.48 1.31528 145.149 1.35543 146.099 1.35543C147.11 1.35543 147.518 1.49594 147.518 1.85726C147.518 2.14497 147.25 2.57321 146.815 3.1754C145.571 4.91508 144.681 6.90902 144.467 9.5386C144.253 12.1883 144.206 14.4565 144.179 17.2667C144.159 18.8659 144.159 19.883 144.159 20.6592C144.159 22.0978 144.179 22.6998 144.179 24.5667C144.179 25.4366 144.166 26.5808 144.166 28.22C144.166 30.3478 144.199 37.2797 144.206 38.4707C144.219 41.495 144.226 44.5998 144.453 46.6405C144.882 50.6218 145.966 52.8432 148.515 54.3554C149.311 54.8304 150.228 55.0646 151.158 55.0646C153.205 55.0646 155.333 53.9338 156.457 51.7123C157.079 50.4878 157.34 49.2366 157.628 47.8984C158.163 45.376 158.21 41.7158 158.21 38.5778C158.21 35.801 158.183 33.5126 158.177 33.1045C158.177 32.2682 158.137 31.2645 158.137 30.3678C158.137 25.5502 158.116 23.6835 158.116 20.8466C158.116 17.2869 158.076 13.4796 158.003 9.92668C157.942 7.02945 156.558 4.10545 155.059 2.09814C154.838 1.80373 154.851 1.51602 155.286 1.39558C155.534 1.32198 155.875 1.30859 156.149 1.30859C158.411 1.30859 160.66 1.3755 162.908 1.3755C163.972 1.3755 165.036 1.36212 166.098 1.34874H166.153C166.794 1.34874 167.069 1.50264 167.069 1.81042C167.069 2.11822 166.809 2.56651 166.38 3.16872C165.149 4.90838 164.273 6.90232 164.058 9.53192C163.844 12.1816 163.804 14.4498 163.77 17.2602C163.743 19.8094 163.73 22.2182 163.73 24.667C163.73 27.7851 163.757 30.9701 163.817 34.5966C163.831 35.5736 163.844 36.5504 163.844 37.5206C163.844 38.571 163.85 39.6283 163.85 40.6922C163.85 45.6837 163.677 50.7288 161.73 55.2318C160.458 58.1626 158.505 60.772 156.317 62.3178C153.995 63.9502 151.874 64.2648 149.431 64.2648H149.418Z" fill="#241C34"/>
<path d="M184.712 64.2582C181.928 64.2582 179.244 63.482 177.196 61.8494C176.052 60.9395 175.144 60.2904 174.227 60.2904C173.249 60.2904 172.259 61.0198 170.961 62.9401C170.6 63.4753 170.212 63.85 169.904 63.85C169.596 63.85 169.382 63.4553 169.382 62.4316C169.382 60.4108 169.443 57.7812 169.443 55.0915C169.443 52.9035 169.416 50.7155 169.435 49.0628C169.449 47.892 169.435 46.7276 169.435 45.5568C169.435 45.4563 169.435 45.336 169.435 45.2088C169.435 44.6065 169.468 43.8171 169.83 43.643C170.164 43.4825 170.646 43.4424 171.115 43.4424C172.099 43.4424 172.721 43.4156 173.163 43.4156C173.604 43.4156 173.865 43.4424 174.099 43.5494C174.44 43.7033 174.5 44.272 175.009 45.9582C175.283 46.8616 175.558 47.7715 175.892 48.648C176.528 50.3208 177.331 51.9332 178.422 53.2582C179.833 54.9777 182.115 55.9881 184.304 55.9881C187.494 55.9881 190.553 53.7667 190.553 49.5446C190.553 44.4929 186.832 41.4752 183.433 39.8158C180.984 38.618 178.736 37.3 176.769 35.7544C174.801 34.2088 173.142 32.3619 171.838 30.2676C169.944 27.2232 168.953 23.6769 168.953 19.8228C168.953 16.2633 169.456 12.5631 170.76 9.36477C171.905 6.56791 173.684 4.18589 176.08 2.55327C178.22 1.09461 180.851 0.238159 183.961 0.238159C186.665 0.238159 189.275 1.01432 191.268 2.64695C192.379 3.55693 193.262 4.20596 194.16 4.20596C195.108 4.20596 196.073 3.47663 197.331 1.5563C197.678 1.02101 198.06 0.646314 198.355 0.646314C198.649 0.646314 198.862 1.04109 198.862 2.06482C198.862 4.09221 198.809 6.74188 198.809 9.41829C198.809 11.5996 198.836 13.7809 198.816 15.4336C198.803 16.5979 198.816 17.7688 198.816 18.9396C198.816 19.0401 198.816 19.1537 198.816 19.2809C198.816 19.8832 198.782 20.6793 198.435 20.8534C198.107 21.0139 197.638 21.054 197.184 21.054C196.233 21.054 195.624 21.0808 195.196 21.0808C194.768 21.0808 194.513 21.054 194.28 20.947C193.945 20.7931 193.891 20.231 193.396 18.5382C193.129 17.635 192.86 16.7316 192.54 15.8484C191.918 14.1756 191.142 12.5631 190.084 11.2383C188.705 9.49858 186.457 8.50162 184.316 8.50162C182.878 8.50162 181.412 8.93653 180.376 9.77292C178.756 11.0777 177.94 13.1987 177.94 15.36C177.94 16.7785 178.294 18.2171 178.996 19.4616C180.616 22.312 183.681 23.7707 186.23 24.9683C190.084 26.7748 193.403 28.4878 195.905 31.3382C198.83 34.6636 200.168 39.4545 200.168 44.3256C200.168 46.9752 199.812 49.6316 199.204 52.0939C198.193 56.1553 196.212 59.7016 192.835 61.9364C190.633 63.3952 187.923 64.2515 184.718 64.2515L184.712 64.2582Z" fill="#241C34"/>
<path d="M214.659 63.415C213.607 63.415 212.939 63.3749 211.988 63.3749C210.979 63.3749 210.571 63.2344 210.571 62.8731C210.571 62.5852 210.838 62.1571 211.273 61.5481C212.518 59.8019 213.407 57.7945 213.622 55.1582C213.836 52.4952 213.883 50.2203 213.91 47.3966C213.943 44.419 213.969 41.6489 213.969 38.7451C213.969 36.0017 213.876 33.0643 213.943 29.886C213.969 28.5545 213.983 27.4573 213.983 26.4937C213.983 24.0716 213.923 22.5326 213.923 20.3446C213.923 18.4712 213.935 16.3233 213.935 14.2089C213.935 13.0046 213.935 11.8135 213.916 10.6894C213.916 10.2545 213.622 9.91997 213.273 9.91997C212.129 9.92666 210.985 9.94674 209.862 9.98019C207.526 10.0605 205.091 11.8872 203.471 13.774C203.23 14.0551 203.003 14.035 202.902 13.4863C202.843 13.1718 202.828 12.7503 202.828 12.3957C202.828 10.569 202.849 8.61522 202.876 6.65474C202.876 6.086 202.883 5.51725 202.883 4.9552C202.883 4.24595 202.883 3.06832 202.868 2.35907C202.862 1.50262 203.284 1.27512 203.972 1.27512H208.811C211.34 1.32196 213.87 1.3688 216.398 1.3688C218.927 1.3688 221.329 1.30858 223.812 1.30858C224.996 1.30858 226.75 1.35542 227.799 1.34203L233.555 1.26843C234.297 1.26843 234.611 1.48255 234.611 2.52635C234.611 4.5872 234.652 7.31715 234.652 8.98992C234.652 10.3014 234.619 11.1311 234.619 12.3087C234.619 13.5599 234.505 14.0751 234.217 14.0751C233.982 14.0751 233.641 13.7473 233.153 13.2053C231.748 11.6596 230.135 10.3816 228.014 10.1207C226.71 9.96011 225.511 9.93336 224.267 9.93336C223.932 9.93336 223.644 10.2545 223.644 10.6761C223.625 13.0848 223.591 15.5873 223.577 17.2868C223.564 18.324 223.564 19.3476 223.564 20.358C223.564 23.2284 223.598 26.0321 223.598 29.0096C223.598 30.8496 223.585 32.7566 223.545 34.7907C223.518 36.1222 223.511 37.2195 223.511 38.183C223.511 40.6052 223.571 42.1441 223.571 44.3388C223.571 47.7512 223.619 51.3644 223.692 54.75C223.751 57.6608 225.156 60.5913 226.676 62.6121C226.897 62.9065 226.883 63.1942 226.441 63.3214C226.187 63.395 225.846 63.4083 225.564 63.4083C223.705 63.4083 221.852 63.3614 219.991 63.3614C218.131 63.3614 216.446 63.4083 214.671 63.4083H214.659V63.415Z" fill="#241C34"/>
<path d="M244.807 4.80128C244.807 6.82867 243.213 8.42114 241.14 8.42114C239.066 8.42114 237.453 6.82867 237.453 4.80128C237.453 2.77389 239.092 1.22156 241.14 1.22156C243.188 1.22156 244.807 2.81403 244.807 4.80128ZM238.37 4.80128C238.37 6.39375 239.548 7.65835 241.159 7.65835C242.772 7.65835 243.89 6.39375 243.89 4.82135C243.89 3.24895 242.732 1.94419 241.14 1.94419C239.548 1.94419 238.37 3.22888 238.37 4.80128ZM240.57 6.68146H239.741V3.10175C240.069 3.03483 240.524 2.99469 241.112 2.99469C241.789 2.99469 242.096 3.10175 242.357 3.25563C242.551 3.40954 242.706 3.69056 242.706 4.0385C242.706 4.43327 242.397 4.73437 241.962 4.86819V4.90834C242.311 5.04215 242.511 5.30311 242.618 5.77818C242.725 6.32015 242.792 6.54095 242.879 6.67477H241.983C241.876 6.54095 241.808 6.21978 241.701 5.80493C241.634 5.41016 241.421 5.23619 240.959 5.23619H240.564V6.67477L240.57 6.68146ZM240.597 4.65407H240.992C241.447 4.65407 241.823 4.50018 241.823 4.13216C241.823 3.80431 241.581 3.58351 241.06 3.58351C240.839 3.58351 240.692 3.60357 240.604 3.63034V4.65407H240.597Z" fill="#30506F"/>
</g>
</svg>
