<svg width="111" height="128" viewBox="0 0 111 128" fill="none" xmlns="http://www.w3.org/2000/svg">
<path d="M33.5538 12.6379C35.6885 13.748 37.5671 14.6872 39.3603 15.5411C41.8366 16.7366 42.6905 16.4804 43.9714 14.0895C46.1061 10.1616 48.2409 6.14822 50.3757 2.13488C50.7172 1.53715 51.0588 0.939415 51.6565 0.00012207C52.3396 1.28098 52.9374 2.30566 53.5351 3.33034C55.4991 7.00212 57.463 10.6739 59.5124 14.3457C60.7079 16.4804 61.5618 16.7366 63.6965 15.7119C65.6605 14.7726 67.5391 13.748 69.8446 12.6379C68.9907 17.3343 68.1368 21.6892 67.3683 26.0441C66.7706 29.2036 66.0875 32.2776 65.6605 35.4371C65.4897 36.6325 65.6605 38.4257 66.429 38.9381C67.7099 39.8774 68.7346 38.4257 69.6738 37.4864C72.7479 34.0708 75.8219 30.5698 79.2375 26.8127C79.7499 28.5205 80.1768 29.9721 80.6038 31.3383C81.3723 33.9001 81.97 34.2416 84.4464 33.7293C87.6058 33.0462 90.7652 32.363 94.0101 31.6799C94.6078 31.5945 95.1201 31.5091 96.0594 31.3383C95.6325 32.9608 95.2909 34.327 94.9493 35.6932C94.0955 38.8527 93.3269 42.0121 92.3876 45.0862C91.8753 46.7086 92.2169 47.7333 93.9247 48.4164C95.2909 48.9287 96.5718 49.6119 98.1088 50.3804C97.4257 50.9781 96.8279 51.4904 96.3156 51.9174C89.9113 57.1262 83.4217 62.4204 77.0174 67.6292C74.5411 69.5932 74.4557 70.1055 75.3096 73.0942C75.7365 74.6312 76.2489 76.0828 76.7612 77.9614C73.5164 77.5345 70.6131 77.1929 67.7099 76.8513C63.8673 76.339 59.9394 75.7413 56.0968 75.2289C53.6205 74.8874 52.852 75.4851 52.9374 78.1322C53.1081 84.7073 53.2789 91.2823 53.3643 97.8574C53.3643 98.5405 53.3643 99.309 53.3643 100.248C52.6812 100.334 52.0835 100.334 51.5711 100.419C50.2049 100.59 49.6925 100.077 49.7779 98.6259C50.1195 91.9654 50.3757 85.3904 50.7172 78.7299C50.888 75.5705 50.2049 74.8874 47.0454 75.3143C41.2389 76.0828 35.4324 76.9367 29.7112 77.7053C28.8573 77.7906 27.918 77.876 26.7226 78.0468C27.2349 76.339 27.6619 74.9728 28.0888 73.6065C29.1135 70.2763 28.9427 69.8493 26.2956 67.6292C20.0621 62.5912 13.8286 57.4678 7.59515 52.4297C6.91202 51.832 6.2289 51.2343 5.375 50.5512C6.91202 49.868 8.10749 49.1849 9.38834 48.6726C11.1815 47.9894 11.5231 46.8794 11.0108 45.0862C9.7299 40.7313 8.61983 36.291 7.33898 31.5945C8.10749 31.6799 8.70522 31.6799 9.21756 31.8507C12.2062 32.4484 15.1949 33.1315 18.1835 33.7293C21.8553 34.4978 22.1115 34.327 23.1362 30.6552C23.4777 29.5452 23.8193 28.4351 24.2462 26.9834C27.4911 30.6552 30.5651 34.0708 33.6392 37.4011C34.5785 38.4257 35.4324 40.1335 37.1402 39.2796C38.848 38.4257 37.9941 36.7179 37.8233 35.3517C36.5424 28.5205 35.2616 21.6892 33.9807 14.7726C33.7246 14.0895 33.7246 13.5772 33.5538 12.6379Z" fill="#F30100"/>
<path d="M70.4453 115.704C70.4453 112.289 70.4453 108.958 70.4453 105.543C70.4453 104.262 70.8723 103.75 72.2385 103.835C74.8002 103.92 77.4473 103.835 80.009 103.92C83.7662 104.006 86.4987 105.884 87.8649 109.385C89.5727 113.826 89.5727 118.351 87.6088 122.706C86.0717 126.293 83.0831 127.744 79.3259 127.83C77.0204 127.915 74.7148 127.83 72.3239 127.915C70.9577 128 70.4453 127.488 70.4453 126.122C70.5307 122.621 70.4453 119.205 70.4453 115.704ZM74.4587 107.507C74.4587 113.143 74.4587 118.608 74.4587 124.158C77.7035 123.816 81.4607 125.353 83.51 121.938C85.8156 118.266 85.8156 114.167 83.937 110.325C81.973 106.311 77.9597 107.934 74.4587 107.507Z" fill="#F30100"/>
<path d="M53.9698 107.592C53.9698 109.641 53.9698 111.52 53.9698 113.569C57.2147 113.569 60.3741 113.655 63.5335 113.569C64.9852 113.569 65.5829 113.996 65.5829 115.448C65.5829 116.814 65.1559 117.326 63.7043 117.326C60.5449 117.241 57.3854 117.326 53.9698 117.326C53.9698 119.632 53.9698 121.767 53.9698 124.243C57.4708 124.243 60.9718 124.328 64.4728 124.158C66.4368 124.072 67.1199 124.841 66.693 126.549C66.5222 127.061 65.7537 127.829 65.2413 127.829C60.6303 127.915 56.1046 127.829 51.4935 127.915C50.2127 127.915 49.8711 127.402 49.8711 126.207C49.8711 119.29 49.8711 112.374 49.8711 105.543C49.8711 104.347 50.298 103.92 51.4935 103.92C55.8484 103.92 60.2887 104.006 64.6436 103.92C66.0952 103.92 66.266 104.603 66.266 105.799C66.266 106.994 66.0952 107.677 64.6436 107.677C61.228 107.592 57.727 107.592 53.9698 107.592Z" fill="#F30100"/>
<path d="M108.61 127.915C107.414 128.171 106.817 127.573 106.39 126.207C105.877 124.414 105.536 122.108 104.255 121.254C102.974 120.4 100.668 121.083 98.8752 120.913C97.082 120.742 96.0573 121.254 95.7158 123.133C95.4596 124.328 95.0326 125.524 94.5203 126.719C94.2641 127.231 93.7518 127.829 93.2395 127.829C90.507 128.256 90.1654 127.829 91.1047 125.182C93.4102 118.692 95.7158 112.203 97.9359 105.713C98.3629 104.518 98.7898 103.834 100.241 103.834C101.693 103.92 102.462 104.091 103.059 105.628C105.45 112.288 108.012 118.949 110.488 125.524C111.257 127.829 111.171 127.915 108.61 127.915ZM100.412 109.043C99.3876 112.117 98.5337 114.679 97.6797 117.326C99.7291 117.326 101.352 117.326 103.316 117.326C102.376 114.594 101.437 112.032 100.412 109.043Z" fill="#F30100"/>
<path d="M3.84256 118.437C3.84256 121.254 3.75717 123.645 3.84256 126.122C3.92795 127.744 3.15944 127.915 1.7932 128C0.341561 128 0 127.402 0 126.122C0.0853903 119.376 0.0853903 112.63 0 105.799C0 104.433 0.341561 103.92 1.7932 103.92C4.61107 104.006 7.51434 103.92 10.3322 104.006C14.6017 104.176 17.0781 106.738 17.0781 111.008C17.0781 115.362 14.6871 118.095 10.503 118.437C8.36825 118.522 6.1481 118.437 3.84256 118.437ZM3.92795 114.679C6.23349 114.679 8.36825 114.85 10.4176 114.679C12.2962 114.509 13.3209 112.972 13.2355 111.008C13.1501 109.044 12.04 107.763 10.0761 107.677C8.02668 107.592 6.06271 107.677 3.92795 107.677C3.92795 110.068 3.92795 112.288 3.92795 114.679Z" fill="#F30100"/>
<path d="M33.2879 118.436C33.2879 121.254 33.2025 123.645 33.2879 126.036C33.3733 127.573 32.7755 128 31.3239 128C29.9577 128 29.4453 127.573 29.4453 126.207C29.5307 119.376 29.5307 112.544 29.4453 105.713C29.4453 104.432 29.8723 103.92 31.1531 104.005C33.971 104.091 36.8743 104.005 39.6921 104.091C44.047 104.262 46.438 106.738 46.5234 111.007C46.6087 115.533 44.2178 118.266 39.7775 118.522C37.7282 118.522 35.6788 118.436 33.2879 118.436ZM33.3733 114.679C35.6788 114.679 37.8136 114.85 39.8629 114.679C41.7415 114.508 42.6808 113.142 42.6808 111.178C42.6808 109.47 41.9977 107.933 40.1191 107.763C37.8989 107.592 35.6788 107.677 33.3733 107.677C33.3733 110.068 33.3733 112.288 33.3733 114.679Z" fill="#F30100"/>
<path d="M20.9409 115.96C20.9409 112.544 21.0262 109.043 20.9409 105.628C20.9409 104.176 21.5386 103.834 22.8194 103.834C24.1003 103.834 24.7834 104.091 24.7834 105.542C24.698 112.373 24.698 119.205 24.7834 126.036C24.7834 127.573 24.1857 127.915 22.7341 127.915C21.3678 127.915 20.8555 127.488 20.8555 126.036C21.0262 122.706 20.9409 119.29 20.9409 115.96Z" fill="#F30100"/>
</svg>
