<svg width="22" height="22" viewBox="0 0 22 22" fill="none" xmlns="http://www.w3.org/2000/svg">
<path d="M18.8168 18.3203H15.7053V13.4955C15.7053 12.345 15.6845 10.8639 14.087 10.8639C12.4664 10.8639 12.2184 12.1175 12.2184 13.4118V18.32H9.10685V8.39825H12.0939V9.75416H12.1358C12.4347 9.24807 12.8667 8.83174 13.3857 8.54951C13.9047 8.26727 14.4913 8.12971 15.083 8.15145C18.2367 8.15145 18.8181 10.2054 18.8181 12.8774L18.8168 18.3203ZM5.596 7.04201C5.23887 7.04207 4.88974 6.93728 4.59276 6.74088C4.29579 6.54447 4.06432 6.26528 3.92759 5.93861C3.79086 5.61195 3.75503 5.25247 3.82464 4.90564C3.89425 4.55881 4.06617 4.24021 4.31865 3.99013C4.57114 3.74004 4.89285 3.56971 5.2431 3.50066C5.59335 3.43161 5.95641 3.46695 6.28638 3.60221C6.61634 3.73747 6.89839 3.96658 7.09685 4.26056C7.29532 4.55454 7.40128 4.9002 7.40135 5.25381C7.40139 5.48859 7.35472 5.72109 7.26402 5.93802C7.17331 6.15495 7.04036 6.35207 6.87272 6.51812C6.70507 6.68417 6.50603 6.8159 6.28697 6.90579C6.06791 6.99568 5.83313 7.04197 5.596 7.04201ZM7.15177 18.3203H4.03699V8.39825H7.15177V18.3203ZM20.3681 0.605176H2.47344C2.06729 0.600638 1.67591 0.755946 1.38534 1.03697C1.09477 1.318 0.928785 1.70175 0.923828 2.10391V19.8958C0.928615 20.2981 1.0945 20.6821 1.38506 20.9635C1.67562 21.2448 2.06709 21.4004 2.47344 21.3961H20.3681C20.7752 21.4012 21.1678 21.246 21.4595 20.9647C21.7512 20.6834 21.9182 20.2989 21.9238 19.8958V2.10262C21.918 1.69967 21.7509 1.31548 21.4592 1.03446C21.1675 0.753442 20.775 0.598578 20.3681 0.603892" fill="#27313F"/>
</svg>
