<svg width="25" height="24" viewBox="0 0 25 24" fill="none" xmlns="http://www.w3.org/2000/svg">
<path d="M18.9238 8C20.5807 8 21.9238 6.65685 21.9238 5C21.9238 3.34315 20.5807 2 18.9238 2C17.267 2 15.9238 3.34315 15.9238 5C15.9238 6.65685 17.267 8 18.9238 8Z" stroke="#27313F" stroke-width="2" stroke-linecap="round" stroke-linejoin="round"/>
<path d="M6.92383 15C8.58068 15 9.92383 13.6569 9.92383 12C9.92383 10.3431 8.58068 9 6.92383 9C5.26697 9 3.92383 10.3431 3.92383 12C3.92383 13.6569 5.26697 15 6.92383 15Z" stroke="#27313F" stroke-width="2" stroke-linecap="round" stroke-linejoin="round"/>
<path d="M18.9238 22C20.5807 22 21.9238 20.6569 21.9238 19C21.9238 17.3431 20.5807 16 18.9238 16C17.267 16 15.9238 17.3431 15.9238 19C15.9238 20.6569 17.267 22 18.9238 22Z" stroke="#27313F" stroke-width="2" stroke-linecap="round" stroke-linejoin="round"/>
<path d="M9.51367 13.51L16.3437 17.49" stroke="#27313F" stroke-width="2" stroke-linecap="round" stroke-linejoin="round"/>
<path d="M16.3337 6.50999L9.51367 10.49" stroke="#27313F" stroke-width="2" stroke-linecap="round" stroke-linejoin="round"/>
</svg>
