<svg width="119" height="40" viewBox="0 0 119 40" fill="none" xmlns="http://www.w3.org/2000/svg">
<rect x="0.5" y="0.499969" width="118" height="39" rx="7.5" fill="white"/>
<rect x="0.5" y="0.499969" width="118" height="39" rx="7.5" stroke="#337AB7"/>
<path d="M33.5 22.5V25.8333C33.5 26.2753 33.3244 26.6993 33.0118 27.0118C32.6993 27.3244 32.2754 27.5 31.8333 27.5H20.1667C19.7246 27.5 19.3007 27.3244 18.9882 27.0118C18.6756 26.6993 18.5 26.2753 18.5 25.8333V22.5" stroke="#337AB7" stroke-width="1.5" stroke-linecap="round" stroke-linejoin="round"/>
<path d="M30.1663 16.6666L25.9997 12.5L21.833 16.6666" stroke="#337AB7" stroke-width="1.5" stroke-linecap="round" stroke-linejoin="round"/>
<path d="M26 12.5V22.5" stroke="#337AB7" stroke-width="1.5" stroke-linecap="round" stroke-linejoin="round"/>
<path d="M51.5391 13.625H53.4922V21.2265C53.4922 22.0911 53.3047 22.8151 52.9297 23.3984C52.5547 23.9817 52.0443 24.4218 51.3984 24.7187C50.7578 25.0104 50.0417 25.1562 49.25 25.1562C48.4323 25.1562 47.7031 25.0104 47.0625 24.7187C46.4219 24.4218 45.9167 23.9817 45.5469 23.3984C45.1823 22.8151 45 22.0911 45 21.2265V13.625H46.9531V21.2265C46.9531 21.7734 47.0469 22.2239 47.2344 22.5781C47.4219 22.9271 47.6875 23.1849 48.0312 23.3515C48.375 23.5182 48.7812 23.6015 49.25 23.6015C49.7188 23.6015 50.1224 23.5182 50.4609 23.3515C50.8047 23.1849 51.0703 22.9271 51.2578 22.5781C51.4453 22.2239 51.5391 21.7734 51.5391 21.2265V13.625ZM57.3281 18.1718V28.25H55.4453V16.5468H57.1797L57.3281 18.1718ZM62.8359 20.6953V20.8593C62.8359 21.4739 62.763 22.0442 62.6172 22.5703C62.4766 23.0911 62.2656 23.5468 61.9844 23.9375C61.7083 24.3229 61.3672 24.6224 60.9609 24.8359C60.5547 25.0494 60.0859 25.1562 59.5547 25.1562C59.0286 25.1562 58.5677 25.0599 58.1719 24.8672C57.7812 24.6692 57.4505 24.3906 57.1797 24.0312C56.9089 23.6718 56.6901 23.25 56.5234 22.7656C56.362 22.276 56.2474 21.7396 56.1797 21.1562V20.5234C56.2474 19.9036 56.362 19.3411 56.5234 18.8359C56.6901 18.3307 56.9089 17.8958 57.1797 17.5312C57.4505 17.1666 57.7812 16.8854 58.1719 16.6875C58.5625 16.4896 59.0182 16.3906 59.5391 16.3906C60.0703 16.3906 60.5417 16.4948 60.9531 16.7031C61.3646 16.9062 61.7109 17.1979 61.9922 17.5781C62.2734 17.9531 62.4844 18.4062 62.625 18.9375C62.7656 19.4635 62.8359 20.0494 62.8359 20.6953ZM60.9531 20.8593V20.6953C60.9531 20.3047 60.9167 19.9427 60.8438 19.6093C60.7708 19.2708 60.6562 18.9739 60.5 18.7187C60.3438 18.4635 60.1432 18.2656 59.8984 18.125C59.6589 17.9791 59.3698 17.9062 59.0312 17.9062C58.6979 17.9062 58.4115 17.9635 58.1719 18.0781C57.9323 18.1875 57.7318 18.3411 57.5703 18.539C57.4089 18.7369 57.2839 18.9687 57.1953 19.2343C57.1068 19.4948 57.0443 19.7786 57.0078 20.0859V21.6015C57.0703 21.9765 57.1771 22.3203 57.3281 22.6328C57.4792 22.9453 57.6927 23.1953 57.9688 23.3828C58.25 23.5651 58.6094 23.6562 59.0469 23.6562C59.3854 23.6562 59.6745 23.5833 59.9141 23.4375C60.1536 23.2916 60.349 23.0911 60.5 22.8359C60.6562 22.5755 60.7708 22.276 60.8438 21.9375C60.9167 21.5989 60.9531 21.2396 60.9531 20.8593ZM66.4531 13V25H64.5625V13H66.4531ZM68.1562 20.8672V20.6875C68.1562 20.0781 68.2448 19.513 68.4219 18.9922C68.599 18.4661 68.8542 18.0104 69.1875 17.625C69.526 17.2343 69.9375 16.9323 70.4219 16.7187C70.9115 16.5 71.4635 16.3906 72.0781 16.3906C72.6979 16.3906 73.25 16.5 73.7344 16.7187C74.224 16.9323 74.638 17.2343 74.9766 17.625C75.3151 18.0104 75.5729 18.4661 75.75 18.9922C75.9271 19.513 76.0156 20.0781 76.0156 20.6875V20.8672C76.0156 21.4765 75.9271 22.0416 75.75 22.5625C75.5729 23.0833 75.3151 23.539 74.9766 23.9297C74.638 24.3151 74.2266 24.6172 73.7422 24.8359C73.2578 25.0494 72.7083 25.1562 72.0938 25.1562C71.474 25.1562 70.9193 25.0494 70.4297 24.8359C69.9453 24.6172 69.5339 24.3151 69.1953 23.9297C68.8568 23.539 68.599 23.0833 68.4219 22.5625C68.2448 22.0416 68.1562 21.4765 68.1562 20.8672ZM70.0391 20.6875V20.8672C70.0391 21.2474 70.0781 21.6067 70.1562 21.9453C70.2344 22.2838 70.3568 22.5807 70.5234 22.8359C70.6901 23.0911 70.9036 23.2916 71.1641 23.4375C71.4245 23.5833 71.7344 23.6562 72.0938 23.6562C72.4427 23.6562 72.7448 23.5833 73 23.4375C73.2604 23.2916 73.474 23.0911 73.6406 22.8359C73.8073 22.5807 73.9297 22.2838 74.0078 21.9453C74.0911 21.6067 74.1328 21.2474 74.1328 20.8672V20.6875C74.1328 20.3125 74.0911 19.9583 74.0078 19.625C73.9297 19.2864 73.8047 18.9869 73.6328 18.7265C73.4661 18.4661 73.2526 18.263 72.9922 18.1172C72.737 17.9661 72.4323 17.8906 72.0781 17.8906C71.724 17.8906 71.4167 17.9661 71.1562 18.1172C70.901 18.263 70.6901 18.4661 70.5234 18.7265C70.3568 18.9869 70.2344 19.2864 70.1562 19.625C70.0781 19.9583 70.0391 20.3125 70.0391 20.6875ZM82.3594 23.3047V19.2734C82.3594 18.9713 82.3047 18.7109 82.1953 18.4922C82.0859 18.2734 81.9193 18.1041 81.6953 17.9843C81.4766 17.8646 81.2005 17.8047 80.8672 17.8047C80.5599 17.8047 80.2943 17.8567 80.0703 17.9609C79.8464 18.0651 79.6719 18.2057 79.5469 18.3828C79.4219 18.5599 79.3594 18.7604 79.3594 18.9843H77.4844C77.4844 18.651 77.5651 18.3281 77.7266 18.0156C77.888 17.7031 78.1224 17.4244 78.4297 17.1797C78.737 16.9349 79.1042 16.7422 79.5312 16.6015C79.9583 16.4609 80.4375 16.3906 80.9688 16.3906C81.6042 16.3906 82.1667 16.4974 82.6562 16.7109C83.151 16.9244 83.5391 17.2474 83.8203 17.6797C84.1068 18.1067 84.25 18.6432 84.25 19.289V23.0468C84.25 23.4323 84.276 23.7786 84.3281 24.0859C84.3854 24.388 84.4661 24.651 84.5703 24.875V25H82.6406C82.5521 24.7968 82.4818 24.539 82.4297 24.2265C82.3828 23.9088 82.3594 23.6015 82.3594 23.3047ZM82.6328 19.8593L82.6484 21.0234H81.2969C80.9479 21.0234 80.6406 21.0573 80.375 21.125C80.1094 21.1875 79.888 21.2812 79.7109 21.4062C79.5339 21.5312 79.401 21.6823 79.3125 21.8593C79.224 22.0364 79.1797 22.2369 79.1797 22.4609C79.1797 22.6849 79.2318 22.8906 79.3359 23.0781C79.4401 23.2604 79.5911 23.4036 79.7891 23.5078C79.9922 23.6119 80.237 23.664 80.5234 23.664C80.9089 23.664 81.2448 23.5859 81.5312 23.4297C81.8229 23.2682 82.0521 23.0729 82.2188 22.8437C82.3854 22.6093 82.474 22.388 82.4844 22.1797L83.0938 23.0156C83.0312 23.2291 82.9245 23.4583 82.7734 23.7031C82.6224 23.9479 82.4245 24.1823 82.1797 24.4062C81.9401 24.625 81.651 24.8047 81.3125 24.9453C80.9792 25.0859 80.5938 25.1562 80.1562 25.1562C79.6042 25.1562 79.112 25.0468 78.6797 24.8281C78.2474 24.6041 77.9089 24.3047 77.6641 23.9297C77.4193 23.5494 77.2969 23.1198 77.2969 22.6406C77.2969 22.1927 77.3802 21.7968 77.5469 21.4531C77.7188 21.1041 77.9688 20.8125 78.2969 20.5781C78.6302 20.3437 79.0365 20.1666 79.5156 20.0468C79.9948 19.9218 80.5417 19.8593 81.1562 19.8593H82.6328ZM91.375 23.25V13H93.2656V25H91.5547L91.375 23.25ZM85.875 20.8672V20.7031C85.875 20.0625 85.9505 19.4791 86.1016 18.9531C86.2526 18.4218 86.4714 17.9661 86.7578 17.5859C87.0443 17.2005 87.3932 16.9062 87.8047 16.7031C88.2161 16.4948 88.6797 16.3906 89.1953 16.3906C89.7057 16.3906 90.1536 16.4896 90.5391 16.6875C90.9245 16.8854 91.2526 17.1692 91.5234 17.539C91.7943 17.9036 92.0104 18.3411 92.1719 18.8515C92.3333 19.3567 92.4479 19.9192 92.5156 20.539V21.0625C92.4479 21.6666 92.3333 22.2187 92.1719 22.7187C92.0104 23.2187 91.7943 23.651 91.5234 24.0156C91.2526 24.3802 90.9219 24.6614 90.5312 24.8593C90.1458 25.0573 89.6953 25.1562 89.1797 25.1562C88.6693 25.1562 88.2083 25.0494 87.7969 24.8359C87.3906 24.6224 87.0443 24.3229 86.7578 23.9375C86.4714 23.5521 86.2526 23.0989 86.1016 22.5781C85.9505 22.0521 85.875 21.4817 85.875 20.8672ZM87.7578 20.7031V20.8672C87.7578 21.2526 87.7917 21.6119 87.8594 21.9453C87.9323 22.2786 88.0443 22.5729 88.1953 22.8281C88.3464 23.0781 88.5417 23.276 88.7812 23.4218C89.026 23.5625 89.3177 23.6328 89.6562 23.6328C90.0833 23.6328 90.4349 23.539 90.7109 23.3515C90.987 23.164 91.2031 22.9114 91.3594 22.5937C91.5208 22.2708 91.6302 21.9114 91.6875 21.5156V20.1015C91.6562 19.7942 91.5911 19.5078 91.4922 19.2422C91.3984 18.9765 91.2708 18.7448 91.1094 18.5468C90.9479 18.3437 90.7474 18.1875 90.5078 18.0781C90.2734 17.9635 89.9948 17.9062 89.6719 17.9062C89.3281 17.9062 89.0365 17.9791 88.7969 18.125C88.5573 18.2708 88.3594 18.4713 88.2031 18.7265C88.0521 18.9817 87.9401 19.2786 87.8672 19.6172C87.7943 19.9557 87.7578 20.3177 87.7578 20.7031Z" fill="#337AB7"/>
</svg>
