<svg width="23" height="22" viewBox="0 0 23 22" fill="none" xmlns="http://www.w3.org/2000/svg">
<path fill-rule="evenodd" clip-rule="evenodd" d="M7.43457 0H15.6846C19.4809 0 22.5596 3.07862 22.5596 6.875V15.125C22.5596 18.9214 19.4809 22 15.6846 22H7.43457C3.6382 22 0.55957 18.9214 0.55957 15.125V6.875C0.55957 3.07862 3.6382 0 7.43457 0ZM15.6846 19.9375C18.3383 19.9375 20.4971 17.7787 20.4971 15.125V6.875C20.4971 4.22125 18.3383 2.0625 15.6846 2.0625H7.43457C4.78082 2.0625 2.62207 4.22125 2.62207 6.875V15.125C2.62207 17.7787 4.78082 19.9375 7.43457 19.9375H15.6846Z" fill="#3B4554"/>
<path fill-rule="evenodd" clip-rule="evenodd" d="M6.05957 11C6.05957 7.96263 8.5222 5.5 11.5596 5.5C14.5969 5.5 17.0596 7.96263 17.0596 11C17.0596 14.0374 14.5969 16.5 11.5596 16.5C8.5222 16.5 6.05957 14.0374 6.05957 11ZM8.12207 11C8.12207 12.8948 9.66482 14.4375 11.5596 14.4375C13.4543 14.4375 14.9971 12.8948 14.9971 11C14.9971 9.10388 13.4543 7.5625 11.5596 7.5625C9.66482 7.5625 8.12207 9.10388 8.12207 11Z" fill="#3B4554"/>
<circle cx="17.4721" cy="5.08749" r="0.732875" fill="#3B4554"/>
</svg>
