<svg width="22" height="22" viewBox="0 0 22 22" fill="none" xmlns="http://www.w3.org/2000/svg">
<path d="M18.4526 18.3203H15.341V13.4955C15.341 12.345 15.3203 10.8639 13.7227 10.8639C12.1021 10.8639 11.8542 12.1175 11.8542 13.4118V18.32H8.74259V8.39825H11.7297V9.75416H11.7715C12.0704 9.24807 12.5024 8.83174 13.0214 8.54951C13.5404 8.26727 14.127 8.12971 14.7187 8.15145C17.8724 8.15145 18.4539 10.2054 18.4539 12.8774L18.4526 18.3203ZM5.23174 7.04201C4.87462 7.04207 4.52548 6.93728 4.2285 6.74088C3.93153 6.54447 3.70006 6.26528 3.56333 5.93861C3.42661 5.61195 3.39077 5.25247 3.46038 4.90564C3.52999 4.55881 3.70191 4.24021 3.9544 3.99013C4.20688 3.74004 4.52859 3.56971 4.87884 3.50066C5.22909 3.43161 5.59215 3.46695 5.92212 3.60221C6.25209 3.73747 6.53413 3.96658 6.7326 4.26056C6.93106 4.55454 7.03703 4.9002 7.03709 5.25381C7.03713 5.48859 6.99046 5.72109 6.89976 5.93802C6.80905 6.15495 6.6761 6.35207 6.50846 6.51812C6.34082 6.68417 6.14177 6.8159 5.92271 6.90579C5.70366 6.99568 5.46887 7.04197 5.23174 7.04201ZM6.78751 18.3203H3.67273V8.39825H6.78751V18.3203ZM20.0038 0.605176H2.10919C1.70303 0.600638 1.31165 0.755946 1.02108 1.03697C0.730512 1.318 0.564527 1.70175 0.55957 2.10391V19.8958C0.564358 20.2981 0.730245 20.6821 1.0208 20.9635C1.31136 21.2448 1.70283 21.4004 2.10919 21.3961H20.0038C20.411 21.4012 20.8035 21.246 21.0952 20.9647C21.3869 20.6834 21.5539 20.2989 21.5596 19.8958V2.10262C21.5538 1.69967 21.3867 1.31548 21.0949 1.03446C20.8032 0.753442 20.4108 0.598578 20.0038 0.603892" fill="#3B4554"/>
</svg>
