<svg width="25" height="24" viewBox="0 0 25 24" fill="none" xmlns="http://www.w3.org/2000/svg">
<g clip-path="url(#clip0_1213_12475)">
<path d="M12.6367 0C6.00956 0 0.636719 5.37284 0.636719 12C0.636719 17.0864 3.79721 21.4321 8.26141 23.1802C8.15277 22.2321 8.06388 20.7704 8.30092 19.7333C8.5182 18.7951 9.70339 13.7679 9.70339 13.7679C9.70339 13.7679 9.34783 13.0469 9.34783 11.9901C9.34783 10.321 10.3157 9.07654 11.5207 9.07654C12.5478 9.07654 13.0417 9.84691 13.0417 10.7654C13.0417 11.7926 12.3898 13.3333 12.0441 14.7654C11.7577 15.9605 12.6466 16.9383 13.8219 16.9383C15.9552 16.9383 17.5947 14.6864 17.5947 11.4469C17.5947 8.57284 15.5305 6.5679 12.5775 6.5679C9.16018 6.5679 7.15524 9.12593 7.15524 11.7728C7.15524 12.8 7.5503 13.9062 8.04413 14.5086C8.14289 14.6272 8.15277 14.7358 8.12314 14.8543C8.03425 15.2296 7.82684 16.0494 7.78734 16.2173C7.73795 16.4346 7.60956 16.484 7.3824 16.3753C5.88116 15.6741 4.94289 13.4914 4.94289 11.7235C4.94289 7.94074 7.68857 4.4642 12.8738 4.4642C17.0318 4.4642 20.2713 7.42716 20.2713 11.3975C20.2713 15.5358 17.6639 18.8642 14.0491 18.8642C12.8343 18.8642 11.6886 18.2321 11.3034 17.4815C11.3034 17.4815 10.7009 19.7728 10.5528 20.3358C10.2861 21.3827 9.55524 22.6864 9.06141 23.4864C10.1873 23.8321 11.3725 24.0198 12.617 24.0198C19.2441 24.0198 24.617 18.6469 24.617 12.0198C24.6367 5.37284 19.2639 0 12.6367 0Z" fill="#3B4554"/>
</g>
<defs>
<clipPath id="clip0_1213_12475">
<rect width="24" height="24" fill="white" transform="translate(0.636719)"/>
</clipPath>
</defs>
</svg>
