<svg width="17" height="20" viewBox="0 0 17 20" fill="none" xmlns="http://www.w3.org/2000/svg">
<g clip-path="url(#clip0_1213_12472)">
<path d="M14.2469 4.51193C13.2583 3.86857 12.5455 2.83873 12.3227 1.63887C12.2749 1.37968 12.2482 1.11269 12.2482 0.839722H9.09393L9.08887 13.4625C9.03595 14.876 7.8707 16.0106 6.44268 16.0106C5.99858 16.0106 5.58072 15.8999 5.21255 15.7064C4.36853 15.2629 3.79097 14.3797 3.79097 13.3632C3.79097 11.9032 4.98061 10.7153 6.44222 10.7153C6.71513 10.7153 6.97698 10.7603 7.22457 10.8375V7.62212C6.96824 7.58719 6.70776 7.5656 6.44222 7.5656C3.24103 7.5656 0.636719 10.1662 0.636719 13.3632C0.636719 15.3245 1.61788 17.0602 3.11539 18.1098C4.05835 18.7711 5.20565 19.1603 6.44268 19.1603C9.64388 19.1603 12.2482 16.5598 12.2482 13.3632V6.96222C13.4852 7.84867 15.0011 8.37118 16.6367 8.37118V5.22147C15.7559 5.22147 14.9353 4.95999 14.2469 4.51193Z" fill="#3B4554"/>
</g>
<defs>
<clipPath id="clip0_1213_12472">
<rect width="16" height="18.3206" fill="white" transform="translate(0.636719 0.839722)"/>
</clipPath>
</defs>
</svg>
