<svg width="25" height="24" viewBox="0 0 25 24" fill="none" xmlns="http://www.w3.org/2000/svg">
<path d="M17.4568 20.768L4.38978 3.968C4.32091 3.87931 4.2783 3.77307 4.26682 3.66137C4.25533 3.54967 4.27542 3.43698 4.32481 3.33613C4.37419 3.23528 4.45088 3.15032 4.54616 3.09089C4.64144 3.03147 4.75149 2.99998 4.86378 3H7.34378C7.43507 3.00014 7.52514 3.0211 7.6071 3.06131C7.68907 3.10151 7.76078 3.15989 7.81678 3.232L20.8838 20.032C20.9526 20.1207 20.9953 20.2269 21.0067 20.3386C21.0182 20.4503 20.9981 20.563 20.9487 20.6639C20.8994 20.7647 20.8227 20.8497 20.7274 20.9091C20.6321 20.9685 20.5221 21 20.4098 21H17.9298C17.8385 20.9999 17.7484 20.9789 17.6665 20.9387C17.5845 20.8985 17.5128 20.8401 17.4568 20.768Z" stroke="#3B4554" stroke-width="1.5"/>
<path d="M20.6367 3L4.63672 21" stroke="#3B4554" stroke-width="1.5" stroke-linecap="round"/>
</svg>
