<svg width="26" height="18" viewBox="0 0 26 18" fill="none" xmlns="http://www.w3.org/2000/svg">
<g clip-path="url(#clip0_1213_12468)">
<path d="M10.1963 12.7987V5.2013L16.8967 9.00017L10.1963 12.7987ZM25.1006 2.81076C24.8058 1.70434 23.9371 0.83308 22.8341 0.537388C20.8349 0 12.8182 0 12.8182 0C12.8182 0 4.80147 0 2.80221 0.537388C1.69922 0.83308 0.830496 1.70434 0.535702 2.81076C0 4.81606 0 9 0 9C0 9 0 13.1839 0.535702 15.1893C0.830496 16.2957 1.69922 17.1669 2.80221 17.4627C4.80147 18 12.8182 18 12.8182 18C12.8182 18 20.8349 18 22.8341 17.4627C23.9371 17.1669 24.8058 16.2957 25.1006 15.1893C25.6364 13.1839 25.6364 9 25.6364 9C25.6364 9 25.6364 4.81606 25.1006 2.81076Z" fill="#3B4554"/>
</g>
<defs>
<clipPath id="clip0_1213_12468">
<rect width="25.6364" height="18" fill="white"/>
</clipPath>
</defs>
</svg>
