<svg width="126" height="30" viewBox="0 0 126 30" fill="none" xmlns="http://www.w3.org/2000/svg">
<path d="M41.8111 6.85374L37.5985 6.85814C37.5833 6.85814 37.5688 6.86416 37.5581 6.87489C37.5473 6.88562 37.5413 6.90017 37.5413 6.91534V11.6399C37.5413 11.655 37.5353 11.6696 37.5245 11.6803C37.5138 11.691 37.4993 11.6971 37.4841 11.6971H35.435C35.4198 11.6971 35.4053 11.691 35.3945 11.6803C35.3838 11.6696 35.3778 11.655 35.3778 11.6399V0.747513C35.3778 0.732341 35.3838 0.717788 35.3945 0.707061C35.4053 0.696333 35.4198 0.690306 35.435 0.690306H37.4841C37.4993 0.690306 37.5138 0.696333 37.5245 0.707061C37.5353 0.717788 37.5413 0.732341 37.5413 0.747513V5.00265C37.5413 5.01782 37.5473 5.03238 37.5581 5.0431C37.5688 5.05383 37.5833 5.05986 37.5985 5.05986H41.8111C41.8263 5.05986 41.8408 5.05383 41.8516 5.0431C41.8623 5.03238 41.8683 5.01782 41.8683 5.00265V0.750444C41.8683 0.735273 41.8743 0.720726 41.8851 0.709998C41.8958 0.69927 41.9104 0.693243 41.9255 0.693243L43.9746 0.688843C43.9898 0.688843 44.0043 0.694869 44.0151 0.705596C44.0258 0.716324 44.0318 0.730873 44.0318 0.746044V11.6399C44.0318 11.655 44.0258 11.6696 44.0151 11.6803C44.0043 11.691 43.9898 11.6971 43.9746 11.6971H41.9255C41.9104 11.6971 41.8958 11.691 41.8851 11.6803C41.8743 11.6696 41.8683 11.655 41.8683 11.6399V6.91094C41.8683 6.89577 41.8623 6.88122 41.8516 6.87049C41.8408 6.85976 41.8263 6.85374 41.8111 6.85374Z" fill="#30506F"/>
<path d="M48.2473 0.69455H46.1615C46.1396 0.69455 46.1219 0.712283 46.1219 0.734156V11.6558C46.1219 11.6777 46.1396 11.6954 46.1615 11.6954H48.2473C48.2691 11.6954 48.2869 11.6777 48.2869 11.6558V0.734156C48.2869 0.712283 48.2691 0.69455 48.2473 0.69455Z" fill="#30506F"/>
<path d="M52.539 8.29404V11.5488C52.539 11.5875 52.5236 11.6246 52.4961 11.652C52.4686 11.6795 52.4313 11.6951 52.3923 11.6955L50.5222 11.7014C50.4832 11.7014 50.4459 11.6859 50.4184 11.6584C50.3909 11.6309 50.3755 11.5936 50.3755 11.5547V0.835445C50.3755 0.796543 50.3911 0.759233 50.4189 0.731725C50.4466 0.704218 50.4843 0.688766 50.5236 0.688766C51.5709 0.696589 52.6172 0.699032 53.6625 0.696099C55.119 0.693165 56.2103 0.850113 57.1344 1.85779C59.0867 3.98463 58.0042 7.37144 55.2027 8.02562C54.9015 8.09603 54.4605 8.13319 53.8796 8.1371C53.4816 8.14003 53.0832 8.14345 52.6842 8.14736C52.6455 8.14775 52.6086 8.16337 52.5814 8.19084C52.5542 8.21831 52.539 8.25539 52.539 8.29404ZM55.2305 2.80827C54.8726 2.49731 54.5367 2.3433 54.2228 2.34623C53.7232 2.35112 53.2117 2.3477 52.6886 2.33596C52.6691 2.33557 52.6497 2.33908 52.6316 2.34628C52.6134 2.35347 52.5969 2.36421 52.583 2.37787C52.569 2.39153 52.558 2.40783 52.5504 2.42582C52.5429 2.44381 52.539 2.46313 52.539 2.48264V6.30215C52.539 6.3408 52.5542 6.37788 52.5814 6.40535C52.6086 6.43282 52.6455 6.44844 52.6842 6.44883C52.9942 6.45176 53.3046 6.45372 53.6156 6.4547C54.0654 6.45567 54.4145 6.40385 54.6629 6.29922C56.0974 5.6949 56.4172 3.83795 55.2305 2.80827ZM65.4995 9.53347H60.222C60.2124 9.53347 60.203 9.53623 60.1949 9.54144C60.1869 9.54664 60.1805 9.55407 60.1765 9.56281L59.1894 11.6662C59.1852 11.6747 59.1787 11.6818 59.1707 11.6867C59.1626 11.6916 59.1534 11.6942 59.1439 11.6941L56.8631 11.7014C56.8545 11.7015 56.8461 11.6994 56.8386 11.6954C56.8311 11.6913 56.8248 11.6854 56.8202 11.6782C56.8156 11.671 56.813 11.6627 56.8125 11.6542C56.8121 11.6457 56.8138 11.6372 56.8176 11.6295L61.9953 0.687298C61.9995 0.678825 62.006 0.671708 62.014 0.666774C62.0221 0.661841 62.0314 0.659294 62.0408 0.659429H63.666C63.6754 0.659294 63.6847 0.661841 63.6928 0.666774C63.7008 0.671708 63.7073 0.678825 63.7115 0.687298L68.8878 11.6251C68.8915 11.6328 68.8933 11.6413 68.8928 11.6498C68.8923 11.6583 68.8897 11.6666 68.8851 11.6738C68.8806 11.681 68.8743 11.6869 68.8667 11.691C68.8592 11.695 68.8508 11.6971 68.8423 11.697H66.5658C66.5562 11.697 66.5468 11.6942 66.5388 11.689C66.5307 11.6838 66.5243 11.6764 66.5204 11.6676L65.545 9.56281C65.541 9.55407 65.5346 9.54664 65.5265 9.54144C65.5185 9.53623 65.5091 9.53347 65.4995 9.53347ZM61.0581 7.62959C61.0549 7.6365 61.0535 7.6441 61.054 7.6517C61.0545 7.6593 61.0569 7.66665 61.061 7.67307C61.0651 7.67949 61.0707 7.68479 61.0774 7.68847C61.084 7.69215 61.0915 7.69409 61.0991 7.69413L64.593 7.70586C64.6006 7.70583 64.6081 7.70388 64.6148 7.7002C64.6214 7.69652 64.6271 7.69123 64.6312 7.6848C64.6353 7.67838 64.6377 7.67103 64.6382 7.66344C64.6387 7.65584 64.6373 7.64824 64.6341 7.64132L62.9003 3.88929C62.8967 3.88152 62.8908 3.87496 62.8836 3.87037C62.8763 3.86577 62.8679 3.86333 62.8593 3.86333C62.8507 3.86333 62.8423 3.86577 62.835 3.87037C62.8277 3.87496 62.8219 3.88152 62.8182 3.88929L61.0581 7.62959ZM72.4506 9.56135L71.4693 11.6647C71.4652 11.6734 71.4588 11.6807 71.4507 11.6859C71.4427 11.691 71.4334 11.6939 71.4238 11.6941L69.1415 11.7029C69.1328 11.7029 69.1242 11.7008 69.1166 11.6967C69.1089 11.6925 69.1024 11.6865 69.0977 11.6792C69.093 11.6719 69.0903 11.6634 69.0897 11.6548C69.0892 11.6461 69.0908 11.6374 69.0946 11.6295L74.2738 0.688766C74.2779 0.680128 74.2843 0.672804 74.2923 0.667621C74.3004 0.662437 74.3097 0.6596 74.3193 0.659429H75.943C75.9526 0.6596 75.9619 0.662437 75.9699 0.667621C75.9779 0.672804 75.9844 0.680128 75.9885 0.688766L81.1633 11.6236C81.167 11.6314 81.1686 11.64 81.1681 11.6485C81.1677 11.6571 81.1651 11.6654 81.1605 11.6727C81.156 11.68 81.1497 11.686 81.1423 11.6903C81.1348 11.6945 81.1264 11.6968 81.1178 11.697H78.8414C78.8318 11.6968 78.8225 11.694 78.8144 11.6888C78.8064 11.6836 78.8 11.6763 78.7959 11.6676L77.819 9.56135C77.8149 9.55271 77.8085 9.54538 77.8005 9.5402C77.7924 9.53502 77.7831 9.53218 77.7735 9.53201H72.496C72.4865 9.53218 72.4772 9.53502 72.4691 9.5402C72.4611 9.54538 72.4547 9.55271 72.4506 9.56135ZM73.3321 7.62812C73.3286 7.63509 73.3269 7.64285 73.3273 7.65066C73.3276 7.65846 73.3299 7.66605 73.3341 7.67268C73.3382 7.67931 73.344 7.68477 73.3508 7.68853C73.3577 7.69229 73.3654 7.69421 73.3732 7.69413L76.8671 7.70586C76.8748 7.70608 76.8825 7.70431 76.8893 7.70074C76.8962 7.69716 76.902 7.6919 76.9063 7.68543C76.9106 7.67897 76.9131 7.67153 76.9137 7.66381C76.9142 7.65609 76.9129 7.64835 76.9096 7.64132L75.1744 3.88195C75.1707 3.87419 75.1649 3.86763 75.1576 3.86303C75.1504 3.85844 75.1419 3.856 75.1333 3.856C75.1247 3.856 75.1163 3.85844 75.109 3.86303C75.1018 3.86763 75.096 3.87419 75.0923 3.88195L73.3321 7.62812ZM44.1138 24.8995L45.4148 26.2343C45.4404 26.2607 45.4551 26.2958 45.4559 26.3328C45.4567 26.3697 45.4436 26.4058 45.4192 26.4338C44.4648 27.5211 43.3173 28.1871 41.9767 28.4315C38.3742 29.0886 34.6867 26.3194 34.9581 22.4749C35.1532 19.7364 37.1333 17.6404 39.8161 17.174C41.9273 16.8073 43.7852 17.4517 45.3899 19.1072C45.4165 19.1347 45.4314 19.1714 45.4314 19.2095C45.4314 19.2476 45.4165 19.2841 45.3899 19.3111L44.0932 20.6458C44.0788 20.6608 44.0612 20.6726 44.0419 20.6802C44.0225 20.6879 44.0017 20.6914 43.9809 20.6904C43.9601 20.6895 43.9397 20.6841 43.9211 20.6746C43.9026 20.6652 43.8862 20.6518 43.8732 20.6356C43.3354 19.9628 42.6856 19.5115 41.9239 19.2817C38.5532 18.2652 35.6724 22.2637 37.9503 25.0389C39.5125 26.9427 42.4284 26.9633 43.8894 24.9156C43.9019 24.8982 43.9181 24.8838 43.9369 24.8734C43.9556 24.8629 43.9764 24.8567 43.9978 24.8552C44.0192 24.8536 44.0407 24.8568 44.0607 24.8645C44.0807 24.8721 44.0989 24.8841 44.1138 24.8995ZM57.5671 22.8181C57.5618 24.3384 56.938 25.7942 55.8328 26.8654C54.7277 27.9365 53.2318 28.5352 51.6742 28.5298C50.9029 28.5271 50.1397 28.3762 49.4281 28.0856C48.7166 27.7951 48.0706 27.3706 47.5271 26.8364C46.9836 26.3022 46.5532 25.6688 46.2605 24.9723C45.9678 24.2758 45.8185 23.5298 45.8211 22.7771C45.8264 21.2568 46.4503 19.801 47.5554 18.7298C48.6605 17.6587 50.1565 17.06 51.7141 17.0654C52.4853 17.0681 53.2485 17.219 53.9601 17.5096C54.6716 17.8001 55.3176 18.2246 55.8611 18.7588C56.4046 19.293 56.835 19.9264 57.1277 20.6229C57.4204 21.3194 57.5698 22.0654 57.5671 22.8181ZM55.3655 22.8005C55.3655 21.8268 54.9787 20.893 54.2902 20.2045C53.6016 19.516 52.6678 19.1292 51.6941 19.1292C50.7204 19.1292 49.7866 19.516 49.0981 20.2045C48.4096 20.893 48.0228 21.8268 48.0228 22.8005C48.0228 23.7742 48.4096 24.7081 49.0981 25.3966C49.7866 26.0851 50.7204 26.4719 51.6941 26.4719C52.6678 26.4719 53.6016 26.0851 54.2902 25.3966C54.9787 24.7081 55.3655 23.7742 55.3655 22.8005ZM67.9915 21.1563L64.662 26.7785C64.6574 26.7863 64.6508 26.7928 64.6428 26.7973C64.6349 26.8018 64.6259 26.804 64.6168 26.8039C64.6077 26.8037 64.5988 26.8012 64.591 26.7964C64.5832 26.7917 64.5768 26.785 64.5725 26.777L61.391 21.1269C61.3857 21.1167 61.377 21.1085 61.3664 21.1038C61.3558 21.0991 61.344 21.0981 61.3327 21.101C61.3215 21.1039 61.3116 21.1105 61.3046 21.1197C61.2976 21.129 61.294 21.1403 61.2942 21.1519L61.3074 28.257C61.3074 28.2706 61.302 28.2837 61.2924 28.2933C61.2828 28.3029 61.2697 28.3083 61.2561 28.3083H59.2275C59.2139 28.3083 59.2008 28.3029 59.1912 28.2933C59.1816 28.2837 59.1762 28.2706 59.1762 28.257V17.3162C59.1762 17.3026 59.1816 17.2896 59.1912 17.2799C59.2008 17.2703 59.2139 17.2649 59.2275 17.2649L61.5788 17.2737C61.5878 17.2738 61.5966 17.2764 61.6043 17.281C61.612 17.2856 61.6184 17.2922 61.6228 17.3001L64.615 22.648C64.6195 22.6559 64.626 22.6625 64.6338 22.6671C64.6417 22.6717 64.6506 22.6742 64.6598 22.6742C64.6689 22.6742 64.6778 22.6717 64.6857 22.6671C64.6935 22.6625 64.7 22.6559 64.7045 22.648L67.8331 17.2957C67.8377 17.2881 67.8441 17.2818 67.8519 17.2774C67.8596 17.2731 67.8683 17.2708 67.8771 17.2708H70.1243C70.1379 17.2708 70.1509 17.2762 70.1606 17.2858C70.1702 17.2954 70.1756 17.3085 70.1756 17.3221L70.18 28.257C70.18 28.2637 70.1787 28.2704 70.1761 28.2766C70.1735 28.2829 70.1697 28.2885 70.165 28.2933C70.1602 28.298 70.1545 28.3018 70.1483 28.3044C70.1421 28.307 70.1354 28.3083 70.1287 28.3083H68.1382C68.1246 28.3083 68.1116 28.3029 68.1019 28.2933C68.0923 28.2837 68.0869 28.2706 68.0869 28.257V21.1827C68.0869 21.1715 68.0832 21.1605 68.0764 21.1516C68.0696 21.1427 68.0601 21.1362 68.0493 21.1332C68.0384 21.1302 68.0269 21.1309 68.0165 21.135C68.0061 21.1392 67.9973 21.1467 67.9915 21.1563ZM101.99 26.1081H96.7435C96.7339 26.1081 96.7245 26.1109 96.7164 26.1161C96.7083 26.1213 96.7019 26.1287 96.698 26.1375L95.6962 28.279C95.6922 28.2877 95.6858 28.2951 95.6778 28.3004C95.6697 28.3056 95.6603 28.3083 95.6507 28.3083H93.3699C93.3613 28.3084 93.3529 28.3064 93.3454 28.3023C93.3379 28.2982 93.3316 28.2923 93.327 28.2851C93.3224 28.2779 93.3198 28.2696 93.3193 28.2611C93.3189 28.2526 93.3206 28.2441 93.3244 28.2364L98.5007 17.2942C98.5046 17.2855 98.511 17.2781 98.5191 17.2729C98.5271 17.2677 98.5365 17.2649 98.5461 17.2649L100.179 17.2737C100.188 17.2738 100.197 17.2765 100.205 17.2814C100.212 17.2864 100.219 17.2933 100.223 17.3016L105.396 28.2364C105.4 28.2441 105.402 28.2526 105.401 28.2611C105.401 28.2696 105.398 28.2779 105.393 28.2851C105.389 28.2923 105.383 28.2982 105.375 28.3023C105.368 28.3064 105.359 28.3084 105.351 28.3083H103.077C103.067 28.3083 103.058 28.3056 103.05 28.3004C103.042 28.2951 103.036 28.2877 103.032 28.279L102.036 26.1375C102.032 26.1287 102.025 26.1213 102.017 26.1161C102.009 26.1109 102 26.1081 101.99 26.1081ZM97.5517 24.2644C97.548 24.2726 97.5465 24.2815 97.5471 24.2904C97.5478 24.2993 97.5507 24.3079 97.5554 24.3155C97.5602 24.323 97.5668 24.3293 97.5746 24.3337C97.5824 24.3381 97.5911 24.3405 97.6001 24.3407L101.106 24.3539C101.115 24.354 101.124 24.3518 101.132 24.3474C101.14 24.3431 101.147 24.3367 101.152 24.3289C101.157 24.3211 101.16 24.3122 101.161 24.3029C101.161 24.2937 101.16 24.2845 101.156 24.2761L99.416 20.5124C99.4119 20.5025 99.4051 20.4941 99.3963 20.4881C99.3875 20.4822 99.3772 20.4789 99.3666 20.4788C99.3559 20.4786 99.3455 20.4816 99.3366 20.4873C99.3276 20.493 99.3205 20.5012 99.3162 20.5109L97.5517 24.2644ZM108.671 21.0463L108.685 28.1616C108.685 28.2005 108.669 28.2378 108.642 28.2654C108.614 28.2929 108.577 28.3083 108.538 28.3083H106.7C106.661 28.3083 106.624 28.2929 106.596 28.2654C106.569 28.2378 106.553 28.2005 106.553 28.1616V17.4116C106.553 17.3922 106.557 17.373 106.565 17.3551C106.572 17.3372 106.583 17.321 106.596 17.3073C106.61 17.2937 106.626 17.2829 106.644 17.2756C106.662 17.2684 106.681 17.2647 106.7 17.2649L108.891 17.2737C108.916 17.2737 108.939 17.2799 108.961 17.2917C108.982 17.3035 109 17.3205 109.013 17.3412L113.418 24.1236C113.562 24.3456 113.633 24.3245 113.633 24.0605L113.629 17.4174C113.629 17.3785 113.645 17.3412 113.672 17.3137C113.7 17.2862 113.737 17.2708 113.776 17.2708H115.611C115.65 17.2708 115.687 17.2862 115.714 17.3137C115.742 17.3412 115.757 17.3785 115.757 17.4174V28.1616C115.757 28.2005 115.742 28.2378 115.714 28.2654C115.687 28.2929 115.65 28.3083 115.611 28.3083H113.682C113.657 28.3083 113.633 28.3021 113.611 28.2903C113.59 28.2785 113.572 28.2615 113.559 28.2408L108.888 20.9817C108.744 20.7578 108.671 20.7793 108.671 21.0463ZM88.8316 26.2871L88.8463 28.235C88.8463 28.2544 88.8386 28.2731 88.8248 28.2868C88.8111 28.3006 88.7924 28.3083 88.773 28.3083H81.398C81.3785 28.3083 81.3599 28.3006 81.3461 28.2868C81.3323 28.2731 81.3246 28.2544 81.3246 28.235V17.3734C81.3246 17.354 81.3323 17.3353 81.3461 17.3216C81.3599 17.3078 81.3785 17.3001 81.398 17.3001L83.4515 17.3104C83.4709 17.3104 83.4896 17.3181 83.5033 17.3318C83.5171 17.3456 83.5248 17.3643 83.5248 17.3837V26.1521C83.5248 26.1716 83.5325 26.1902 83.5463 26.204C83.56 26.2178 83.5787 26.2255 83.5981 26.2255L88.7583 26.2137C88.7777 26.2137 88.7964 26.2215 88.8101 26.2352C88.8239 26.249 88.8316 26.2676 88.8316 26.2871Z" fill="#30506F"/>
<path d="M92.2507 17.3059H90.165C90.1431 17.3059 90.1254 17.3236 90.1254 17.3455V28.2672C90.1254 28.289 90.1431 28.3068 90.165 28.3068H92.2507C92.2726 28.3068 92.2903 28.289 92.2903 28.2672V17.3455C92.2903 17.3236 92.2726 17.3059 92.2507 17.3059Z" fill="#30506F"/>
<path d="M117.151 19.1408V17.3792C117.151 17.3598 117.159 17.3411 117.172 17.3274C117.186 17.3136 117.205 17.3059 117.224 17.3059L125.365 17.3088C125.384 17.3088 125.403 17.3165 125.417 17.3303C125.431 17.3441 125.438 17.3627 125.438 17.3822V19.1408C125.438 19.1603 125.431 19.1789 125.417 19.1927C125.403 19.2064 125.384 19.2142 125.365 19.2142H122.468C122.449 19.2142 122.43 19.2219 122.416 19.2357C122.402 19.2494 122.395 19.2681 122.395 19.2875V28.2349C122.395 28.2544 122.387 28.273 122.373 28.2868C122.359 28.3005 122.341 28.3082 122.321 28.3082H120.268C120.248 28.3082 120.23 28.3005 120.216 28.2868C120.202 28.273 120.195 28.2544 120.195 28.2349V19.2875C120.195 19.2681 120.187 19.2494 120.173 19.2357C120.159 19.2219 120.141 19.2142 120.121 19.2142H117.224C117.205 19.2142 117.186 19.2064 117.172 19.1927C117.159 19.1789 117.151 19.1603 117.151 19.1408ZM74.4719 24.898L74.4675 28.1616C74.4675 28.2005 74.4521 28.2378 74.4246 28.2653C74.3971 28.2928 74.3597 28.3082 74.3208 28.3082H72.4507C72.4118 28.3082 72.3745 28.2928 72.347 28.2653C72.3195 28.2378 72.304 28.2005 72.304 28.1616V17.454C72.304 17.4151 72.3195 17.3778 72.347 17.3503C72.3745 17.3228 72.4118 17.3074 72.4507 17.3074C73.5743 17.3083 74.7037 17.3078 75.839 17.3059C76.5802 17.3049 77.1483 17.3699 77.5434 17.501C80.9654 18.6363 80.8568 23.5441 77.4304 24.5665C77.1244 24.6584 76.634 24.7043 75.9592 24.7043C75.5094 24.7053 75.0596 24.721 74.6098 24.7513C74.5727 24.7535 74.5378 24.7699 74.5122 24.7971C74.4866 24.8244 74.4722 24.8604 74.4719 24.898ZM77.2896 19.5457C76.5518 18.7727 75.5691 18.9091 74.6039 18.9208C74.5653 18.9216 74.5285 18.9376 74.5016 18.9653C74.4747 18.9931 74.4598 19.0303 74.4602 19.069L74.4939 22.9193C74.4943 22.9577 74.5097 22.9944 74.5369 23.0215C74.564 23.0487 74.6007 23.0641 74.6391 23.0645C75.77 23.0762 76.9303 23.1936 77.5888 22.0832C78.1316 21.167 78.0318 20.3211 77.2896 19.5457Z" fill="#30506F"/>
<path d="M11.6805 0.659424H12.2225C13.5681 0.751563 14.151 1.68577 14.2412 2.94172C14.2772 3.44233 14.3195 4.4125 15.0079 4.48739C15.1823 4.50645 15.3612 4.5209 15.5444 4.53075C15.5565 4.53135 15.5678 4.53641 15.5764 4.54495C15.5849 4.5535 15.5901 4.56494 15.5908 4.57707L15.607 4.87024C15.2526 4.87123 14.9686 4.84692 14.7551 4.79732C14.0545 4.63472 14.0811 3.41424 14.0076 2.89935C13.8756 1.97007 13.4036 1.17875 12.3959 1.03636C11.8466 0.959 11.3006 1.00876 10.7517 1.1758C10.4659 1.26285 10.2411 1.34924 10.0772 1.43497C9.1305 1.93164 8.17199 2.40432 7.20165 2.85303C7.19734 2.85509 7.19368 2.85825 7.19107 2.86217C7.18847 2.86608 7.18701 2.87059 7.18687 2.8752C7.18539 2.91462 7.23565 2.8752 7.24698 2.87077C8.2546 2.45737 9.07548 2.01047 9.98505 1.56456C10.7951 1.16693 12.1333 0.89396 12.9601 1.3517C13.8785 1.8597 13.8593 2.89984 13.9677 3.80005C14.0219 4.24645 14.2525 4.86088 14.7571 4.93282C14.9998 4.96764 15.2872 4.98915 15.6193 4.99736C15.6036 5.30778 15.6018 5.65712 15.6139 6.04539C15.6254 6.41756 15.6394 7.20411 15.6558 8.40504C15.6558 8.41409 15.6534 8.42293 15.6489 8.43066C15.3449 8.94507 14.8438 9.43385 14.2491 9.5659C14.0362 9.6132 13.8377 9.54964 13.8066 9.31707C13.7954 9.23495 13.8217 9.11916 13.8854 8.9697C13.8983 8.93915 14.1471 8.44446 14.0687 8.47254C14.0586 8.47633 14.0505 8.48376 14.0461 8.49324C13.7884 9.0446 13.1577 9.66099 12.492 9.53781C12.1146 9.46785 12.017 9.07022 12.2107 8.77902C12.3976 8.49784 12.5561 8.2004 12.6862 7.8867C12.7039 7.84399 12.6968 7.83939 12.665 7.8729C12.6571 7.88111 12.6492 7.89179 12.6413 7.90493C12.4738 8.18282 12.1722 8.64648 11.8677 8.83371C11.3928 9.1259 9.3243 9.93248 10.328 8.27299C10.4022 8.15014 10.5292 7.99789 10.7089 7.81624C10.9552 7.5679 11.1925 7.31103 11.4208 7.04562C11.4391 7.02492 11.4337 6.98206 11.4006 7.01507C11.0326 7.38609 10.5867 7.84038 10.1117 8.06555C9.59432 8.31093 8.59162 8.75734 8.02401 8.60607C7.53177 8.47452 7.88161 7.96011 8.05308 7.75415C8.11187 7.68353 8.21453 7.59747 8.36103 7.49597C9.00912 7.0466 9.6454 6.58081 10.2698 6.0986C10.3058 6.07101 10.26 6.07889 10.2541 6.08234C9.53962 6.54912 8.81631 7.00193 8.08412 7.44078C7.96849 7.51042 7.84991 7.56117 7.72837 7.59303C7.03035 7.776 6.33166 7.85795 5.63232 7.8389C5.50553 7.83529 5.37151 7.81328 5.23026 7.77288C4.50005 7.56396 5.68751 6.89435 5.90283 6.79482C6.84689 6.35991 7.77534 5.89478 8.6882 5.39943C10.0048 4.68432 9.98965 4.65508 8.64287 5.31172C8.58243 5.34096 8.52215 5.37052 8.46204 5.40041C8.02746 5.6136 7.07699 6.03438 5.61065 6.66277C5.50389 6.70843 5.39516 6.73635 5.28446 6.74653C4.47147 6.82143 3.49538 6.85493 2.69618 6.66031C2.19804 6.5391 3.02729 6.01681 3.16181 5.94832C5.41454 4.8029 7.66908 3.66093 9.92543 2.52241C9.94481 2.51289 9.94349 2.50665 9.92148 2.50369C9.91689 2.50336 9.91229 2.50418 9.90769 2.50615C7.64313 3.5297 5.38317 4.56327 3.12781 5.60686C3.04635 5.64464 2.96176 5.6655 2.87406 5.66944C2.30053 5.69408 1.60431 5.6972 0.785402 5.6788C0.483198 5.6719 0.221397 5.62821 0 5.54774V5.5098C0.0752225 5.45855 0.157672 5.42291 0.247347 5.40288C1.18089 5.19298 2.09243 4.91015 2.98196 4.55441C4.55999 3.92372 6.1055 3.22224 7.61849 2.44998C8.9587 1.76608 10.1294 0.814632 11.6805 0.659424ZM16.9753 5.02101C17.7932 4.96041 18.2411 5.07669 18.5663 4.17353C18.6255 4.00962 18.6573 3.87297 18.6619 3.76358C18.7186 2.45737 18.9792 1.19304 20.5599 1.13786C21.296 1.11224 21.973 1.25283 22.5909 1.55963C23.5019 2.01244 24.4204 2.50517 25.3531 2.8757C25.363 2.87964 25.3728 2.88128 25.3827 2.88062C25.4273 2.87865 25.4293 2.86847 25.3886 2.85007C24.5312 2.46312 23.6862 2.05104 22.8535 1.61383C22.0977 1.21719 21.3443 0.959493 20.4899 1.02108C19.8578 1.06641 19.2911 1.29257 18.9694 1.83161C18.5969 2.45589 18.6166 3.13388 18.5042 3.84981C18.4586 4.14052 18.3454 4.3969 18.1648 4.61895C17.944 4.88995 17.2769 4.89636 16.9867 4.87024L16.9881 4.58643C16.9881 4.57358 16.9932 4.56125 17.0022 4.55211C17.0113 4.54298 17.0236 4.53778 17.0364 4.53765C17.247 4.53437 17.4564 4.51909 17.6646 4.49183C18.4215 4.39131 18.3416 2.91807 18.4614 2.38839C18.7447 1.13539 19.5257 0.625426 20.7811 0.675684C21.9563 0.722492 22.8254 1.23887 23.8084 1.81043C25.3511 2.70669 27.0027 3.46007 28.7347 4.19817C29.7559 4.6334 30.7451 4.98669 31.7023 5.25801C31.7738 5.27822 32.6114 5.43244 32.6144 5.54675C32.6146 5.55773 32.6112 5.56849 32.6046 5.57732C32.598 5.58616 32.5886 5.59257 32.5779 5.59553C32.4275 5.63528 32.2757 5.65991 32.1226 5.66944C31.33 5.71904 30.5372 5.72413 29.7443 5.68471C29.6559 5.68044 29.5708 5.65942 29.489 5.62164C27.2714 4.59481 25.0484 3.5798 22.82 2.57661C22.7895 2.56282 22.7771 2.56561 22.7831 2.58499C22.785 2.59038 22.7887 2.59477 22.7934 2.59731C25.0258 3.71743 27.2537 4.84626 29.4772 5.9838C29.7114 6.10336 29.909 6.26646 30.0699 6.47307C30.1274 6.54665 30.1138 6.59921 30.029 6.63074C29.8852 6.68461 29.737 6.72009 29.5846 6.73717C28.8393 6.82061 28.0938 6.82882 27.3481 6.76181C27.2342 6.7513 27.1223 6.72305 27.0126 6.67706C25.5587 6.06707 24.1236 5.41585 22.7072 4.72341C22.6862 4.7129 22.6868 4.71421 22.7091 4.72735C24.0471 5.50158 25.4155 6.21735 26.8145 6.87464C27.0734 6.99618 27.3031 7.15829 27.5038 7.36096C27.8192 7.67926 27.4083 7.81624 27.1683 7.83447C26.4144 7.89113 25.6064 7.79653 24.8786 7.6019C24.7544 7.56872 24.6321 7.51584 24.5115 7.44324C23.7928 7.01096 23.0723 6.55946 22.3499 6.08875C22.2044 5.99382 22.198 6.00236 22.3307 6.11437C22.3504 6.13112 22.3741 6.15001 22.4017 6.17103C23.0304 6.64766 23.67 7.10934 24.3203 7.55608C24.617 7.76007 25.259 8.55828 24.4588 8.64401C23.8222 8.71299 22.5032 8.17691 21.9986 7.74725C21.9034 7.66612 21.8088 7.58433 21.7148 7.50188C21.1932 7.04299 21.1704 7.06647 21.6463 7.57234C21.7406 7.67253 21.8378 7.76992 21.938 7.86452C22.213 8.1232 22.3608 8.39075 22.4919 8.7263C22.7121 9.29096 22.2465 9.35945 21.8321 9.27322C21.3827 9.1796 20.7796 8.97217 20.4766 8.60854C20.4219 8.543 19.9312 7.89014 19.9312 7.89014L19.9275 7.89169L19.9249 7.89489L19.9239 7.8991L19.9248 7.90345C20.0519 8.20861 20.2074 8.49784 20.3914 8.77114C20.4449 8.85128 20.4753 8.927 20.4825 8.99828C20.5274 9.44567 20.2618 9.58807 19.8592 9.5659C19.4153 9.54126 18.963 9.13624 18.7309 8.78345C18.7181 8.76407 18.7054 8.74469 18.693 8.72531C18.5208 8.46253 18.4978 8.47501 18.624 8.76276C18.6581 8.84127 18.6939 8.91895 18.7314 8.99582C18.7793 9.09469 18.8022 9.18256 18.7999 9.25942C18.7861 9.73786 18.3259 9.60433 18.048 9.46933C17.574 9.23972 17.2105 8.88906 16.9576 8.41736C16.9251 8.35593 16.9096 8.28794 16.9113 8.21337C16.9385 7.1504 16.9599 6.08628 16.9753 5.02101Z" fill="#30506F"/>
<path d="M16.2978 3.15219C16.8371 3.15219 17.2744 2.71496 17.2744 2.17561C17.2744 1.63626 16.8371 1.19904 16.2978 1.19904C15.7584 1.19904 15.3212 1.63626 15.3212 2.17561C15.3212 2.71496 15.7584 3.15219 16.2978 3.15219Z" fill="#30506F"/>
<path d="M16.7521 13.3999C17.2451 13.1844 17.7119 12.9229 18.1524 12.6155C18.4224 12.4268 19.0728 12.0996 18.9689 11.6862C18.9202 11.4921 18.7959 11.3978 18.5959 11.4034C18.1514 11.4152 17.5572 11.0102 17.2591 10.7106C17.1845 10.6354 17.1765 10.5692 17.235 10.512C17.2396 10.5075 17.2433 10.5021 17.2459 10.4961C17.2484 10.4901 17.2497 10.4837 17.2498 10.4771C17.2498 10.4706 17.2486 10.4642 17.2461 10.4582C17.2437 10.4521 17.24 10.4467 17.2355 10.4421C17.1951 10.401 17.1901 10.3475 17.2207 10.2814C17.3557 9.9881 17.5848 9.82813 17.908 9.80152C18.4835 9.75471 19.3892 9.93505 19.5518 10.5884C19.5543 10.5986 19.5602 10.6079 19.5685 10.615C20.0129 10.9737 20.3859 11.6083 20.2539 12.1927C20.01 13.2713 18.6368 13.8419 17.7159 14.1611C17.7098 14.1633 17.7034 14.1643 17.6969 14.1639C17.6905 14.1636 17.6842 14.162 17.6784 14.1592L15.8765 13.2979C15.8683 13.2939 15.8614 13.2877 15.8566 13.2799C15.8517 13.2722 15.8491 13.2632 15.8489 13.254L15.6903 3.31531C15.6902 3.3082 15.6885 3.30121 15.6854 3.29481C15.6823 3.28841 15.6779 3.28276 15.6723 3.27825C15.6668 3.27375 15.6603 3.2705 15.6534 3.26873C15.6464 3.26696 15.6392 3.26671 15.6321 3.268C15.4511 3.30052 15.3603 3.21545 15.3597 3.01277C15.3597 2.97171 15.3761 2.93328 15.4089 2.89748C15.4134 2.89254 15.4188 2.88857 15.4249 2.88583C15.431 2.88309 15.4376 2.88163 15.4443 2.88154C15.451 2.88144 15.4576 2.88272 15.4638 2.88529C15.47 2.88787 15.4757 2.89168 15.4804 2.89649C15.6262 3.04562 15.764 3.14137 15.8938 3.18375C16.3681 3.33814 16.7741 3.24271 17.1118 2.89748C17.1207 2.88828 17.1329 2.88297 17.1457 2.88269C17.1585 2.88241 17.171 2.8872 17.1803 2.896C17.2263 2.9387 17.2432 2.99848 17.231 3.07535C17.2041 3.24517 17.1162 3.30791 16.9674 3.26357C16.9602 3.26138 16.9525 3.2609 16.945 3.26217C16.9376 3.26345 16.9305 3.26644 16.9244 3.27092C16.9182 3.2754 16.9132 3.28124 16.9096 3.288C16.906 3.29476 16.9041 3.30225 16.9039 3.30989C16.8536 5.49659 16.8025 7.66277 16.7506 9.80842C16.7224 10.9903 16.6999 12.1722 16.6831 13.3541C16.683 13.3623 16.685 13.3704 16.6888 13.3777C16.6926 13.385 16.6983 13.3912 16.7051 13.3958C16.712 13.4003 16.7199 13.4031 16.7281 13.4038C16.7363 13.4045 16.7445 13.4032 16.7521 13.3999ZM18.2046 10.2029C18.2047 10.1907 18.2001 10.1785 18.191 10.1672C18.1819 10.1558 18.1686 10.1454 18.1517 10.1367C18.1348 10.1279 18.1148 10.1209 18.0927 10.1161C18.0706 10.1112 18.0469 10.1087 18.023 10.1085C17.9746 10.1082 17.9282 10.1176 17.8939 10.1349C17.8596 10.1521 17.8402 10.1756 17.84 10.2003C17.8399 10.2126 17.8446 10.2247 17.8537 10.2361C17.8627 10.2474 17.8761 10.2578 17.893 10.2666C17.9098 10.2753 17.9299 10.2823 17.952 10.2872C17.9741 10.292 17.9978 10.2946 18.0217 10.2947C18.07 10.2951 18.1165 10.2856 18.1508 10.2684C18.1851 10.2511 18.2045 10.2276 18.2046 10.2029Z" fill="#30506F"/>
<path d="M16.5653 23.1603C15.915 22.4773 14.9561 21.8294 14.3939 20.9435C14.0189 20.3527 13.9337 19.8393 14.3397 19.2599C14.6153 18.867 14.9343 18.5383 15.2966 18.2739C16.5645 17.3479 17.3821 16.7568 17.7494 16.5006C18.7087 15.8305 17.029 15.0037 16.5634 14.8313C15.9133 14.5901 15.2644 14.3462 14.6166 14.0996C14.1249 13.912 13.8205 13.7888 13.7036 13.73C13.0384 13.394 12.051 12.6258 12.2264 11.7517C12.3115 11.3286 12.5163 10.9721 12.8408 10.682C12.9798 10.5579 12.9552 10.4549 13.0512 10.3273C13.4715 9.76753 15.0236 9.43445 15.2956 10.3618C15.2984 10.3708 15.2984 10.3805 15.2957 10.3896C15.293 10.3987 15.2876 10.4068 15.2803 10.413L15.2513 10.4376C15.2455 10.4425 15.241 10.4486 15.238 10.4555C15.2349 10.4624 15.2335 10.4699 15.2339 10.4774C15.2342 10.4849 15.2363 10.4923 15.2399 10.4989C15.2435 10.5055 15.2486 10.5111 15.2547 10.5155L15.2764 10.5308C15.2856 10.5373 15.2922 10.5468 15.2953 10.5576C15.2983 10.5685 15.2976 10.58 15.2931 10.5904C15.1458 10.9373 14.2003 11.4891 13.8361 11.3896C13.8256 11.3867 13.8143 11.3874 13.8041 11.3915C13.5745 11.4875 13.4797 11.6373 13.5198 11.8409C13.5716 12.1021 13.8204 12.2622 14.0406 12.412C14.5836 12.782 15.0256 13.0639 15.6316 13.3491C16.6279 13.8177 17.7444 14.2725 18.6151 14.9194C18.8003 15.0571 18.9429 15.2272 19.0428 15.4299C19.4286 16.2114 18.8393 16.8943 18.2303 17.2998C17.368 17.8738 16.4496 18.4 15.642 19.0233C15.1177 19.4279 14.6511 20.0186 15.1261 20.6878C15.6745 21.4604 16.4274 22.1157 17.0955 22.7843C17.3866 23.076 17.6083 23.3757 17.7607 23.6835C18.0686 24.3048 17.6853 25.07 17.2241 25.5091C16.5151 26.1836 15.739 26.9192 15.6917 27.9727C15.6799 28.2412 15.7849 28.5216 15.8598 28.7852C15.8686 28.8167 15.8588 28.8243 15.8302 28.8079C15.823 28.8039 15.8162 28.7968 15.81 28.7867C15.0675 27.5696 16.0125 26.2127 16.7693 25.313C17.2315 24.7636 17.4227 24.2679 16.9787 23.6234C16.9318 23.5551 16.794 23.4007 16.5653 23.1603ZM14.6452 10.2058C14.6454 10.1937 14.6409 10.1816 14.632 10.1703C14.6231 10.1589 14.6099 10.1485 14.5932 10.1397C14.5765 10.1308 14.5567 10.1237 14.5348 10.1187C14.5128 10.1137 14.4893 10.1109 14.4655 10.1105C14.4417 10.11 14.4181 10.112 14.396 10.1163C14.3739 10.1205 14.3538 10.127 14.3368 10.1352C14.3198 10.1435 14.3063 10.1534 14.297 10.1644C14.2877 10.1755 14.2828 10.1874 14.2826 10.1995C14.2822 10.2239 14.3009 10.2476 14.3346 10.2655C14.3682 10.2834 14.4142 10.2939 14.4623 10.2947C14.4861 10.2952 14.5097 10.2932 14.5318 10.2889C14.5538 10.2847 14.574 10.2783 14.5909 10.27C14.6079 10.2617 14.6214 10.2518 14.6308 10.2408C14.6401 10.2298 14.645 10.2179 14.6452 10.2058Z" fill="#30506F"/>
<path d="M15.3463 17.9975C14.658 17.5718 13.5075 17.0189 13.3523 16.1295C13.2069 15.2964 14.1328 14.6494 14.8083 14.3503C14.82 14.345 14.8333 14.3444 14.8452 14.3488L16.6062 15.0002C16.6159 15.0038 16.6242 15.0103 16.6299 15.0188C16.6357 15.0273 16.6386 15.0373 16.6383 15.0475L16.5885 17.1239C16.5883 17.1315 16.5864 17.139 16.5828 17.1457C16.5792 17.1525 16.5741 17.1583 16.5678 17.1628L15.401 17.9955C15.3931 18.0012 15.3837 18.0044 15.374 18.0048C15.3643 18.0051 15.3546 18.0026 15.3463 17.9975ZM14.6925 16.4543C15.0663 16.739 15.4465 17.0153 15.8332 17.283C15.886 17.3195 15.9118 17.3057 15.9105 17.2416L15.8731 14.9224C15.8729 14.9144 15.8708 14.9066 15.867 14.8996C15.8631 14.8926 15.8577 14.8867 15.8511 14.8822C15.8444 14.8778 15.8369 14.875 15.8289 14.8741C15.821 14.8732 15.813 14.8742 15.8056 14.877C15.3872 15.0401 13.8721 15.8305 14.6925 16.4543ZM16.794 22.2654C16.5269 22.025 16.1924 21.6811 15.9898 21.4623C15.9813 21.4535 15.9766 21.4418 15.9765 21.4298L15.9391 18.9982C15.939 18.9899 15.9409 18.9817 15.9447 18.9744C15.9484 18.9671 15.954 18.9608 15.9608 18.9563L17.0728 18.2138C17.0814 18.2081 17.0914 18.2052 17.1017 18.2055C17.1119 18.2057 17.1218 18.2092 17.13 18.2152C17.8361 18.7459 18.7974 19.6919 18.2677 20.6631C17.9313 21.28 17.461 21.8149 16.8565 22.2679C16.8474 22.2749 16.8361 22.2784 16.8247 22.278C16.8133 22.2775 16.8024 22.2731 16.794 22.2654ZM16.9093 19.0775C16.8189 18.9984 16.7248 18.9236 16.6269 18.8533C16.5763 18.8169 16.5502 18.8298 16.5486 18.8923L16.4895 21.6042C16.4878 21.6712 16.5103 21.6807 16.557 21.6328C16.7343 21.4501 16.907 21.2632 17.0748 21.0721C17.264 20.8562 17.401 20.6601 17.4858 20.4837C17.7622 19.9078 17.3108 19.4278 16.9093 19.0775Z" fill="#30506F"/>
<path d="M15.8914 26.1398C15.3612 25.6239 14.7423 25.0992 14.6295 24.3379C14.5265 23.6441 15.1878 22.9903 15.6356 22.5404C15.6448 22.5314 15.657 22.5262 15.6698 22.526C15.6826 22.5258 15.6949 22.5307 15.7041 22.5395L16.4334 23.2278C16.4383 23.2325 16.4423 23.2382 16.4449 23.2445C16.4475 23.2509 16.4488 23.2578 16.4486 23.2647L16.3999 25.5209C16.3999 25.5308 16.3966 25.5407 16.3905 25.549L15.9658 26.1334C15.9616 26.1391 15.9563 26.1439 15.9501 26.1474C15.9439 26.1509 15.9371 26.153 15.93 26.1536C15.923 26.1543 15.9159 26.1533 15.9092 26.1509C15.9025 26.1486 15.8964 26.1447 15.8914 26.1398ZM15.9229 23.1623C15.7383 23.3442 15.5754 23.5336 15.4341 23.7304C15.375 23.8128 15.3219 23.9595 15.275 24.1704C15.1887 24.5577 15.408 24.9237 15.6455 25.2214C15.7618 25.3675 15.8707 25.5061 15.9722 25.6372C16.0205 25.6993 16.0441 25.6911 16.0431 25.6126L16.0067 23.1968C16.0057 23.1199 15.9778 23.1084 15.9229 23.1623ZM16.3703 26.8808C16.3493 27.6814 16.3292 28.4866 16.3102 29.2967C16.3092 29.3528 16.2992 29.4103 16.2801 29.4691C16.2667 29.5112 16.2542 29.5535 16.2427 29.5962C16.2194 29.68 16.1941 29.6807 16.1668 29.5982C16.1474 29.5384 16.1318 29.4775 16.12 29.4154C16.1088 29.3566 16.1026 29.2786 16.1013 29.1814C16.0927 28.5267 16.083 27.872 16.0722 27.2174C16.0712 27.1399 16.0876 27.0696 16.1215 27.0065C16.2213 26.8202 16.3429 26.6503 16.4861 26.4965C16.4913 26.491 16.4977 26.4867 16.5048 26.4841C16.5119 26.4814 16.5196 26.4805 16.5271 26.4813C16.5347 26.4821 16.542 26.4847 16.5485 26.4887C16.555 26.4928 16.5604 26.4984 16.5644 26.5049C16.6521 26.6488 16.7206 26.7997 16.7699 26.9577C16.8783 27.3046 16.8591 27.9353 16.5496 28.1895C16.5469 28.1917 16.5436 28.1931 16.5402 28.1937C16.5367 28.1942 16.5332 28.1939 16.5299 28.1927C16.5266 28.1916 16.5236 28.1896 16.5213 28.1869C16.519 28.1843 16.5174 28.1811 16.5166 28.1777C16.516 28.1731 16.5156 28.1682 16.5156 28.1629C16.5156 28.1567 16.5173 28.1503 16.5206 28.1437C16.741 27.7039 16.7213 27.2747 16.4614 26.8562C16.4036 26.7629 16.3732 26.7711 16.3703 26.8808Z" fill="#30506F"/>
</svg>
