<svg width="33" height="38" viewBox="0 0 33 38" fill="none" xmlns="http://www.w3.org/2000/svg">
<g clip-path="url(#clip0_465_21518)">
<path d="M10.0693 4.41897C10.6819 4.73755 11.221 5.00712 11.7357 5.25218C12.4464 5.59527 12.6914 5.52175 13.059 4.83558C13.6717 3.70829 14.2843 2.5565 14.897 1.40471C14.995 1.23316 15.093 1.06162 15.2646 0.792053C15.4606 1.15965 15.6322 1.45372 15.8037 1.74779C16.3673 2.80156 16.931 3.85533 17.5191 4.90909C17.8622 5.52175 18.1073 5.59527 18.7199 5.30119C19.2836 5.03162 19.8227 4.73755 20.4844 4.41897C20.2393 5.76681 19.9943 7.01663 19.7737 8.26644C19.6022 9.17317 19.4061 10.0554 19.2836 10.9621C19.2346 11.3052 19.2836 11.8198 19.5041 11.9669C19.8717 12.2364 20.1658 11.8198 20.4354 11.5503C21.3176 10.57 22.1998 9.56527 23.1801 8.487C23.3271 8.97712 23.4496 9.39373 23.5722 9.78583C23.7927 10.521 23.9643 10.619 24.6749 10.472C25.5817 10.276 26.4884 10.0799 27.4196 9.88385C27.5912 9.85934 27.7382 9.83484 28.0078 9.78583C27.8853 10.2514 27.7872 10.6435 27.6892 11.0356C27.4441 11.9424 27.2236 12.8491 26.954 13.7313C26.807 14.1969 26.905 14.491 27.3951 14.6871C27.7872 14.8341 28.1548 15.0302 28.5959 15.2507C28.3999 15.4223 28.2283 15.5693 28.0813 15.6918C26.2433 17.1867 24.3809 18.7061 22.5429 20.201C21.8322 20.7646 21.8077 20.9116 22.0528 21.7694C22.1753 22.2105 22.3223 22.6271 22.4694 23.1662C21.5382 23.0437 20.7049 22.9457 19.8717 22.8476C18.769 22.7006 17.6417 22.529 16.5389 22.382C15.8282 22.284 15.6077 22.4555 15.6322 23.2152C15.6812 25.1022 15.7302 26.9892 15.7547 28.8762C15.7547 29.0722 15.7547 29.2928 15.7547 29.5623C15.5586 29.5868 15.3871 29.5868 15.2401 29.6113C14.848 29.6604 14.7009 29.5133 14.7254 29.0967C14.8235 27.1852 14.897 25.2982 14.995 23.3868C15.044 22.48 14.848 22.284 13.9412 22.4065C12.2748 22.6271 10.6084 22.8721 8.96647 23.0927C8.72141 23.1172 8.45184 23.1417 8.10876 23.1907C8.25579 22.7006 8.37833 22.3085 8.50086 21.9164C8.79493 20.9607 8.74592 20.8381 7.98623 20.201C6.19727 18.7551 4.40832 17.2847 2.61937 15.8389C2.42332 15.6673 2.22727 15.4958 1.98221 15.2997C2.42332 15.1037 2.76641 14.9076 3.134 14.7606C3.64863 14.5645 3.74665 14.246 3.59962 13.7313C3.23202 12.4815 2.91344 11.2072 2.54585 9.85935C2.76641 9.88385 2.93795 9.88385 3.08499 9.93286C3.9427 10.1044 4.80042 10.3005 5.65814 10.472C6.7119 10.6926 6.78542 10.6435 7.0795 9.58978C7.17752 9.2712 7.27555 8.95262 7.39808 8.53601C8.32931 9.58978 9.21154 10.57 10.0938 11.5258C10.3633 11.8198 10.6084 12.31 11.0985 12.0649C11.5886 11.8198 11.3436 11.3297 11.2946 10.9376C10.927 8.97712 10.5594 7.01663 10.1918 5.03162C10.1183 4.83558 10.1183 4.68854 10.0693 4.41897Z" fill="#30506F"/>
<path d="M20.6559 33.9979C20.6559 33.0177 20.6559 32.0619 20.6559 31.0817C20.6559 30.7141 20.7784 30.5671 21.1705 30.5916C21.9057 30.6161 22.6654 30.5916 23.4006 30.6161C24.4788 30.6406 25.263 31.1797 25.6551 32.1845C26.1453 33.4588 26.1453 34.7576 25.5816 36.0074C25.1405 37.0367 24.2828 37.4533 23.2045 37.4778C22.5429 37.5023 21.8812 37.4778 21.195 37.5023C20.8029 37.5268 20.6559 37.3798 20.6559 36.9877C20.6804 35.9829 20.6559 35.0027 20.6559 33.9979ZM21.8077 31.6453C21.8077 33.2627 21.8077 34.8311 21.8077 36.424C22.7389 36.326 23.8172 36.7671 24.4053 35.7869C25.067 34.7331 25.067 33.5568 24.5279 32.454C23.9642 31.3022 22.8124 31.7679 21.8077 31.6453Z" fill="#30506F"/>
<path d="M15.9262 31.6699C15.9262 32.258 15.9262 32.7971 15.9262 33.3853C16.8575 33.3853 17.7642 33.4098 18.6709 33.3853C19.0875 33.3853 19.2591 33.5078 19.2591 33.9244C19.2591 34.3165 19.1365 34.4636 18.7199 34.4636C17.8132 34.4391 16.9065 34.4636 15.9262 34.4636C15.9262 35.1252 15.9262 35.7379 15.9262 36.4486C16.931 36.4486 17.9357 36.4731 18.9405 36.4241C19.5041 36.3995 19.7002 36.6201 19.5777 37.1102C19.5286 37.2573 19.3081 37.4778 19.1611 37.4778C17.8377 37.5023 16.5389 37.4778 15.2156 37.5023C14.848 37.5023 14.7499 37.3553 14.7499 37.0122C14.7499 35.0272 14.7499 33.0422 14.7499 31.0817C14.7499 30.7386 14.8725 30.6161 15.2156 30.6161C16.4654 30.6161 17.7397 30.6406 18.9895 30.6161C19.4061 30.6161 19.4551 30.8121 19.4551 31.1552C19.4551 31.4983 19.4061 31.6944 18.9895 31.6944C18.0093 31.6699 17.0045 31.6699 15.9262 31.6699Z" fill="#30506F"/>
<path d="M31.6102 37.5023C31.2671 37.5759 31.0956 37.4043 30.973 37.0122C30.826 36.4976 30.728 35.8359 30.3604 35.5908C29.9928 35.3458 29.3311 35.5418 28.8165 35.4928C28.3019 35.4438 28.0078 35.5908 27.9097 36.13C27.8362 36.4731 27.7137 36.8162 27.5667 37.1592C27.4931 37.3063 27.3461 37.4778 27.1991 37.4778C26.4149 37.6004 26.3168 37.4778 26.5864 36.7181C27.2481 34.8557 27.9097 32.9932 28.5469 31.1307C28.6694 30.7876 28.792 30.5916 29.2086 30.5916C29.6252 30.6161 29.8457 30.6651 30.0173 31.1062C30.7035 33.0177 31.4386 34.9292 32.1493 36.8162C32.3699 37.4778 32.3454 37.5023 31.6102 37.5023ZM29.2576 32.0865C28.9635 32.9687 28.7185 33.7039 28.4734 34.4636C29.0615 34.4636 29.5272 34.4636 30.0908 34.4636C29.8212 33.6794 29.5517 32.9442 29.2576 32.0865Z" fill="#30506F"/>
<path d="M1.54109 34.7821C1.54109 35.5908 1.51658 36.277 1.54109 36.9877C1.56559 37.4533 1.34504 37.5023 0.952939 37.5268C0.536333 37.5268 0.438309 37.3553 0.438309 36.9877C0.462815 35.0517 0.462815 33.1157 0.438309 31.1552C0.438309 30.7631 0.536333 30.6161 0.952939 30.6161C1.76164 30.6406 2.59485 30.6161 3.40356 30.6406C4.62887 30.6896 5.33955 31.4248 5.33955 32.6501C5.33955 33.8999 4.65337 34.6841 3.45257 34.7821C2.83992 34.8066 2.20275 34.7821 1.54109 34.7821ZM1.56559 33.7039C2.22726 33.7039 2.83992 33.7529 3.42806 33.7039C3.9672 33.6549 4.26128 33.2137 4.23677 32.6501C4.21226 32.0865 3.89368 31.7189 3.33004 31.6944C2.74189 31.6699 2.17825 31.6944 1.56559 31.6944C1.56559 32.3805 1.56559 33.0177 1.56559 33.7039Z" fill="#30506F"/>
<path d="M9.99569 34.7822C9.99569 35.5909 9.97119 36.277 9.99569 36.9632C10.0202 37.4043 9.84866 37.5268 9.43205 37.5268C9.03995 37.5268 8.89291 37.4043 8.89291 37.0122C8.91742 35.0517 8.91742 33.0912 8.89291 31.1307C8.89291 30.7631 9.01544 30.6161 9.38304 30.6406C10.1917 30.6651 11.025 30.6406 11.8337 30.6651C13.0835 30.7141 13.7696 31.4248 13.7942 32.6501C13.8187 33.9489 13.1325 34.7331 11.8582 34.8067C11.27 34.8067 10.6819 34.7822 9.99569 34.7822ZM10.0202 33.7039C10.6819 33.7039 11.2945 33.7529 11.8827 33.7039C12.4218 33.6549 12.6914 33.2628 12.6914 32.6991C12.6914 32.209 12.4953 31.7679 11.9562 31.7189C11.319 31.6699 10.6819 31.6944 10.0202 31.6944C10.0202 32.3805 10.0202 33.0177 10.0202 33.7039Z" fill="#30506F"/>
<path d="M6.44235 34.0715C6.44235 33.0912 6.46686 32.0865 6.44235 31.1062C6.44235 30.6896 6.6139 30.5916 6.98149 30.5916C7.34908 30.5916 7.54513 30.6651 7.54513 31.0817C7.52063 33.0422 7.52063 35.0027 7.54513 36.9632C7.54513 37.4043 7.37359 37.5023 6.95698 37.5023C6.56488 37.5023 6.41785 37.3798 6.41785 36.9632C6.46686 36.0075 6.44235 35.0272 6.44235 34.0715Z" fill="#30506F"/>
</g>
<defs>
<clipPath id="clip0_465_21518">
<rect width="31.8335" height="36.7348" fill="white" transform="translate(0.438293 0.792023)"/>
</clipPath>
</defs>
</svg>
