<svg width="122" height="104" viewBox="0 0 122 104" fill="none" xmlns="http://www.w3.org/2000/svg">
<path d="M121.526 6.66048V11.1754H0.00236511V6.66048C0.00236511 6.43017 0.0122498 6.20451 0.0360953 5.97885C0.0698281 5.64268 0.12741 5.3164 0.214068 4.9942C0.948629 2.1176 3.55187 0 6.65877 0H114.876C118.55 0 121.527 2.97721 121.527 6.66048H121.526Z" fill="url(#paint0_linear_600_10741)"/>
<path d="M13.9496 6.18329C13.9496 7.11384 14.6964 7.86876 15.6275 7.86876C16.5587 7.86876 17.3095 7.11384 17.3095 6.18329C17.3095 5.25273 16.5587 4.50537 15.6275 4.50537C14.6964 4.50537 13.9496 5.26029 13.9496 6.18329Z" fill="white"/>
<path d="M9.14909 6.18329C9.14909 7.11384 9.89587 7.86876 10.827 7.86876C11.7581 7.86876 12.509 7.11384 12.509 6.18329C12.509 5.25273 11.7581 4.50537 10.827 4.50537C9.89587 4.50537 9.14909 5.26029 9.14909 6.18329Z" fill="white"/>
<path d="M4.34859 6.18329C4.34859 7.11384 5.09536 7.86876 6.0265 7.86876C6.95764 7.86876 7.70849 7.11384 7.70849 6.18329C7.70849 5.25273 6.95764 4.50537 6.0265 4.50537C5.09536 4.50537 4.34859 5.26029 4.34859 6.18329Z" fill="white"/>
<path d="M121.527 11.1733V97.1489C121.527 100.933 118.46 104 114.682 104H6.85125C3.06678 104 0 100.933 0 97.1489V11.1733H121.527Z" fill="white"/>
<path d="M65.7365 25.8228H57.8866V60.5251H65.7365V25.8228Z" fill="url(#paint1_linear_600_10741)"/>
<path d="M65.7364 55.9624H57.8866V60.5256H65.7364V55.9624Z" fill="url(#paint2_linear_600_10741)"/>
<path d="M77.8105 25.8232H69.9606V60.5256H77.8105V25.8232Z" fill="url(#paint3_linear_600_10741)"/>
<path d="M77.8105 42.6245H69.9606V60.525H77.8105V42.6245Z" fill="url(#paint4_linear_600_10741)"/>
<path d="M89.8845 25.8232H82.0346V60.5256H89.8845V25.8232Z" fill="url(#paint5_linear_600_10741)"/>
<path d="M89.8845 49.2505H82.0346V60.5248H89.8845V49.2505Z" fill="url(#paint6_linear_600_10741)"/>
<path d="M101.958 25.8232H94.1086V60.5256H101.958V25.8232Z" fill="url(#paint7_linear_600_10741)"/>
<path d="M101.958 37.8682H94.1086V60.5255H101.958V37.8682Z" fill="url(#paint8_linear_600_10741)"/>
<path d="M114.033 25.8232H106.183V60.5256H114.033V25.8232Z" fill="url(#paint9_linear_600_10741)"/>
<path d="M114.033 28.9351H106.183V60.5258H114.033V28.9351Z" fill="url(#paint10_linear_600_10741)"/>
<path d="M35.2502 42.7743C35.2502 46.842 31.9578 50.135 27.8976 50.135C23.8375 50.135 20.5369 46.842 20.5369 42.7743C20.5369 38.7066 23.8293 35.4136 27.8976 35.4136C31.9659 35.4136 35.2502 38.7142 35.2502 42.7743Z" fill="url(#paint11_linear_600_10741)"/>
<path d="M27.9029 62.6083C16.967 62.6083 8.06973 53.7109 8.06973 42.7751C8.06973 31.8393 16.967 22.9414 27.9029 22.9414C38.8387 22.9414 47.7174 31.8387 47.7174 42.7751C47.7174 53.7115 38.8288 62.6083 27.9029 62.6083ZM27.9029 27.7361C19.611 27.7361 12.865 34.4827 12.865 42.7751C12.865 51.0676 19.6116 57.813 27.9029 57.813C36.1942 57.813 42.9221 51.067 42.9221 42.7751C42.9221 34.4833 36.1843 27.7361 27.9029 27.7361Z" fill="url(#paint12_linear_600_10741)"/>
<path d="M42.0043 57.8263C38.2582 61.3531 33.4298 63.3172 28.2634 63.4039C17.1991 63.5911 7.82544 54.8386 7.2956 43.7836C6.74715 32.322 15.6049 22.7657 26.8065 22.1719C27.4003 22.1399 27.9028 22.6198 27.9028 23.2182V27.5308C27.9028 28.0792 27.4783 28.5311 26.9345 28.5678C19.1597 29.093 13.0744 35.8907 13.7095 43.9261C14.2713 51.0478 20.178 56.7213 27.3183 57.0051C31.1237 57.1511 34.7099 55.8355 37.4737 53.3096C37.8755 52.9397 38.4967 52.9444 38.8945 53.3236L42.0148 56.3066C42.4487 56.7224 42.444 57.4169 42.0055 57.8281L42.0043 57.8263Z" fill="url(#paint13_linear_600_10741)"/>
<path d="M28.0203 71.356H9.77614C8.83371 71.356 8.06972 72.1199 8.06972 73.0624V91.3066C8.06972 92.249 8.83371 93.013 9.77614 93.013H28.0203C28.9628 93.013 29.7268 92.249 29.7268 91.3066V73.0624C29.7268 72.1199 28.9628 71.356 28.0203 71.356Z" fill="url(#paint14_linear_600_10741)"/>
<path d="M18.8985 80.8629C20.2203 80.8629 21.2918 79.7734 21.2918 78.4295C21.2918 77.0856 20.2203 75.9961 18.8985 75.9961C17.5767 75.9961 16.5052 77.0856 16.5052 78.4295C16.5052 79.7734 17.5767 80.8629 18.8985 80.8629Z" fill="white"/>
<path d="M24.9617 88.3716C24.832 85.0768 22.1712 82.4434 18.8985 82.4434C15.6258 82.4434 12.965 85.0763 12.8353 88.3716H24.9623H24.9617Z" fill="white"/>
<path d="M58.0809 73.626H33.72V78.2212H58.0809V73.626Z" fill="url(#paint15_linear_600_10741)"/>
<path d="M70.099 82.186H33.72V83.5348H70.099V82.186Z" fill="url(#paint16_linear_600_10741)"/>
<path d="M70.099 85.79H33.72V87.1388H70.099V85.79Z" fill="url(#paint17_linear_600_10741)"/>
<path d="M44.5017 89.394H33.72V90.7428H44.5017V89.394Z" fill="url(#paint18_linear_600_10741)"/>
<path d="M52.2637 89.394H49.7686V90.7428H52.2637V89.394Z" fill="url(#paint19_linear_600_10741)"/>
<path d="M64.2772 89.394H57.6237V90.7428H64.2772V89.394Z" fill="url(#paint20_linear_600_10741)"/>
<path d="M112.777 69.0968V92.6295C112.777 93.4437 112.114 94.1062 111.297 94.1062H77.486C76.6717 94.1062 76.0093 93.4437 76.0093 92.6295V69.0968C76.0093 68.2797 76.6717 67.6201 77.486 67.6201H111.297C112.114 67.6201 112.777 68.2797 112.777 69.0968Z" fill="url(#paint21_linear_600_10741)"/>
<path d="M96.1111 87.0038H83.1641L89.6356 79.022L92.3435 82.3592L96.1111 87.0038Z" fill="white"/>
<path d="M105.622 87.0042H89.3128L97.4662 76.9507L105.622 87.0042Z" fill="white"/>
<path d="M93.5369 76.2716C93.5369 77.1282 92.8402 77.825 91.9835 77.825C91.1268 77.825 90.43 77.1288 90.43 76.2716C90.43 75.4143 91.1262 74.7222 91.9835 74.7222C92.8408 74.7222 93.5369 75.4143 93.5369 76.2716Z" fill="white"/>
<defs>
<linearGradient id="paint0_linear_600_10741" x1="60.7644" y1="1.02071" x2="60.7644" y2="14.0666" gradientUnits="userSpaceOnUse">
<stop stop-color="#5FAEF2"/>
<stop offset="1" stop-color="#337AB7"/>
</linearGradient>
<linearGradient id="paint1_linear_600_10741" x1="57.8866" y1="43.1742" x2="65.7365" y2="43.1742" gradientUnits="userSpaceOnUse">
<stop stop-color="#EBF2FF"/>
<stop offset="1" stop-color="#E1E8FF"/>
</linearGradient>
<linearGradient id="paint2_linear_600_10741" x1="62.0107" y1="55.6565" x2="61.5803" y2="61.2486" gradientUnits="userSpaceOnUse">
<stop stop-color="#FADF68"/>
<stop offset="1" stop-color="#EAC250"/>
</linearGradient>
<linearGradient id="paint3_linear_600_10741" x1="69.9606" y1="-14.0152" x2="77.8105" y2="-14.0152" gradientUnits="userSpaceOnUse">
<stop stop-color="#EBF2FF"/>
<stop offset="1" stop-color="#E1E8FF"/>
</linearGradient>
<linearGradient id="paint4_linear_600_10741" x1="74.3028" y1="45.3156" x2="73.445" y2="58.1864" gradientUnits="userSpaceOnUse">
<stop stop-color="#F34B6D"/>
<stop offset="1" stop-color="#E24067"/>
</linearGradient>
<linearGradient id="paint5_linear_600_10741" x1="82.0346" y1="-14.0152" x2="89.8845" y2="-14.0152" gradientUnits="userSpaceOnUse">
<stop stop-color="#EBF2FF"/>
<stop offset="1" stop-color="#E1E8FF"/>
</linearGradient>
<linearGradient id="paint6_linear_600_10741" x1="85.7487" y1="51.1238" x2="86.1779" y2="58.7771" gradientUnits="userSpaceOnUse">
<stop stop-color="#FADF68"/>
<stop offset="1" stop-color="#EAC250"/>
</linearGradient>
<linearGradient id="paint7_linear_600_10741" x1="94.1086" y1="-14.0152" x2="101.959" y2="-14.0152" gradientUnits="userSpaceOnUse">
<stop stop-color="#EBF2FF"/>
<stop offset="1" stop-color="#E1E8FF"/>
</linearGradient>
<linearGradient id="paint8_linear_600_10741" x1="98.295" y1="38.6196" x2="97.8663" y2="55.985" gradientUnits="userSpaceOnUse">
<stop stop-color="#F34B6D"/>
<stop offset="1" stop-color="#E24067"/>
</linearGradient>
<linearGradient id="paint9_linear_600_10741" x1="106.183" y1="-14.0152" x2="114.033" y2="-14.0152" gradientUnits="userSpaceOnUse">
<stop stop-color="#EBF2FF"/>
<stop offset="1" stop-color="#E1E8FF"/>
</linearGradient>
<linearGradient id="paint10_linear_600_10741" x1="109.377" y1="32.9341" x2="110.807" y2="56.0219" gradientUnits="userSpaceOnUse">
<stop stop-color="#FADF68"/>
<stop offset="1" stop-color="#EAC250"/>
</linearGradient>
<linearGradient id="paint11_linear_600_10741" x1="27.8936" y1="37.3788" x2="27.8936" y2="49.262" gradientUnits="userSpaceOnUse">
<stop stop-color="#D1DEFF"/>
<stop offset="1" stop-color="#B2C7FF"/>
</linearGradient>
<linearGradient id="paint12_linear_600_10741" x1="44.5797" y1="35.0462" x2="23.3437" y2="44.8852" gradientUnits="userSpaceOnUse">
<stop stop-color="#D1DEFF"/>
<stop offset="1" stop-color="#B2C7FF"/>
</linearGradient>
<linearGradient id="paint13_linear_600_10741" x1="19.301" y1="29.0546" x2="26.3796" y2="57.4396" gradientUnits="userSpaceOnUse">
<stop stop-color="#51D1FE"/>
<stop offset="1" stop-color="#337AB7"/>
</linearGradient>
<linearGradient id="paint14_linear_600_10741" x1="8.06972" y1="82.1842" x2="29.7268" y2="82.1842" gradientUnits="userSpaceOnUse">
<stop stop-color="#5FA8E7"/>
<stop offset="1" stop-color="#337AB7"/>
</linearGradient>
<linearGradient id="paint15_linear_600_10741" x1="45.8998" y1="73.626" x2="45.8998" y2="78.2212" gradientUnits="userSpaceOnUse">
<stop stop-color="#D1DEFF"/>
<stop offset="1" stop-color="#B2C7FF"/>
</linearGradient>
<linearGradient id="paint16_linear_600_10741" x1="51.9095" y1="82.186" x2="51.9095" y2="83.5348" gradientUnits="userSpaceOnUse">
<stop stop-color="#D1DEFF"/>
<stop offset="1" stop-color="#B2C7FF"/>
</linearGradient>
<linearGradient id="paint17_linear_600_10741" x1="51.9095" y1="85.79" x2="51.9095" y2="87.1388" gradientUnits="userSpaceOnUse">
<stop stop-color="#D1DEFF"/>
<stop offset="1" stop-color="#B2C7FF"/>
</linearGradient>
<linearGradient id="paint18_linear_600_10741" x1="39.1102" y1="89.394" x2="39.1102" y2="90.7428" gradientUnits="userSpaceOnUse">
<stop stop-color="#D1DEFF"/>
<stop offset="1" stop-color="#B2C7FF"/>
</linearGradient>
<linearGradient id="paint19_linear_600_10741" x1="51.0161" y1="89.394" x2="51.0161" y2="90.7428" gradientUnits="userSpaceOnUse">
<stop stop-color="#D1DEFF"/>
<stop offset="1" stop-color="#B2C7FF"/>
</linearGradient>
<linearGradient id="paint20_linear_600_10741" x1="60.9505" y1="89.394" x2="60.9505" y2="90.7428" gradientUnits="userSpaceOnUse">
<stop stop-color="#D1DEFF"/>
<stop offset="1" stop-color="#B2C7FF"/>
</linearGradient>
<linearGradient id="paint21_linear_600_10741" x1="94.3931" y1="75.2402" x2="94.3931" y2="93.2652" gradientUnits="userSpaceOnUse">
<stop stop-color="#8AA7E7"/>
<stop offset="1" stop-color="#407BFF"/>
</linearGradient>
</defs>
</svg>
