<svg width="88" height="104" viewBox="0 0 88 104" fill="none" xmlns="http://www.w3.org/2000/svg">
<path d="M10.8047 4.39844H84.9236C86.505 4.39844 87.7186 5.64789 87.6205 7.17513L81.5781 101.223C81.4799 102.75 80.1056 104 78.5242 104H4.4053C2.82391 104 1.6103 102.75 1.70844 101.223L7.75128 7.17513C7.84896 5.64789 9.22328 4.39844 10.8047 4.39844Z" fill="#337AB7"/>
<path opacity="0.4" d="M10.8047 4.39844H84.9236C86.505 4.39844 87.7186 5.64789 87.6205 7.17513L81.5781 101.223C81.4799 102.75 80.1056 104 78.5242 104H4.4053C2.82391 104 1.6103 102.75 1.70844 101.223L7.75128 7.17513C7.84896 5.64789 9.22328 4.39844 10.8047 4.39844Z" fill="black"/>
<path d="M9.10224 4.39893H83.2216C84.803 4.39893 86.0166 5.64837 85.9185 7.17562L79.8761 101.224C79.778 102.751 78.4036 104 76.8223 104H2.70242C1.12103 104 -0.0925767 102.751 0.00555654 101.224L6.0484 7.17562C6.14653 5.64837 7.52085 4.39893 9.10224 4.39893Z" fill="#337AB7"/>
<path opacity="0.4" d="M4.02313 98.9217L76.1655 99.7573L82.0179 8.66992H9.822L4.02313 98.9217Z" fill="black"/>
<path d="M1.91553 98.0001C26.2688 98.0001 50.6216 98.0001 74.9744 98.0001C79.001 62.3922 80.2362 43.1684 80.7854 7.56055C56.4326 7.56055 32.0793 7.56055 7.72655 7.56055C7.17736 43.1684 5.94214 62.3918 1.91553 98.0001Z" fill="white"/>
<path opacity="0.3" d="M72.06 32.3298H59.4805C59.2243 32.3298 58.9794 32.2276 58.8039 32.0472C58.6279 31.8668 58.5374 31.6242 58.5532 31.3773L59.3337 19.2289C59.3643 18.7559 59.7704 18.3872 60.261 18.3872H72.8405C73.0967 18.3872 73.3415 18.4894 73.5171 18.6698C73.6931 18.8502 73.7836 19.0928 73.7678 19.3397L72.9873 31.4881C72.9567 31.9611 72.5506 32.3298 72.06 32.3298ZM60.4685 30.5356H71.1867L71.8524 20.1814H61.1339L60.4685 30.5356Z" fill="#337AB7"/>
<path opacity="0.3" d="M70.8712 50.8346H58.2922C58.036 50.8346 57.7912 50.7325 57.6156 50.552C57.4396 50.3716 57.3491 50.129 57.3649 49.8821L58.145 37.7333C58.1756 37.2603 58.5816 36.8916 59.0723 36.8916H71.6518C71.9079 36.8916 72.1528 36.9938 72.3284 37.1742C72.5044 37.3546 72.5949 37.5972 72.5791 37.8441L71.7985 49.993C71.7675 50.4664 71.3619 50.8346 70.8712 50.8346ZM59.2803 49.0404H69.9984L70.6642 38.6858H59.9456L59.2803 49.0404Z" fill="#337AB7"/>
<path opacity="0.3" d="M69.6824 69.34H57.1028C56.8467 69.34 56.6018 69.2378 56.4263 69.0574C56.2503 68.877 56.1598 68.6344 56.1755 68.3875L56.9561 56.2386C56.9867 55.7656 57.3927 55.397 57.8834 55.397H70.4625C70.7186 55.397 70.9635 55.4991 71.139 55.6796C71.3151 55.86 71.4055 56.1026 71.3898 56.3495L70.6097 68.4983C70.5786 68.9713 70.173 69.34 69.6824 69.34ZM58.0909 67.5458H68.8095L69.4748 57.1911H58.7567L58.0909 67.5458Z" fill="#337AB7"/>
<path opacity="0.3" d="M68.4931 87.8444H55.914C55.6579 87.8444 55.413 87.7422 55.2374 87.5618C55.0614 87.3814 54.9709 87.1388 54.9867 86.8919L55.7668 74.743C55.7974 74.27 56.2034 73.9014 56.6941 73.9014H69.2736C69.5298 73.9014 69.7746 74.0035 69.9502 74.184C70.1262 74.3644 70.2167 74.607 70.2009 74.8539L69.4204 87.0027C69.3898 87.4762 68.9837 87.8444 68.4931 87.8444ZM56.9025 86.0502H67.6207L68.286 75.6955H57.5674L56.9025 86.0502Z" fill="#337AB7"/>
<path opacity="0.3" d="M20.021 23.7695H48.5107C49.3755 23.7695 50.1273 23.0861 50.1808 22.251C50.2344 21.4158 49.5709 20.7324 48.7061 20.7324H20.2164C19.3517 20.7324 18.5999 21.4158 18.5464 22.251C18.4923 23.0861 19.1563 23.7695 20.021 23.7695Z" fill="#337AB7"/>
<path opacity="0.3" d="M25.0393 29.9844H48.1114C48.9762 29.9844 49.7279 29.301 49.7815 28.4658C49.835 27.6307 49.1715 26.9473 48.3068 26.9473H25.2347C24.3699 26.9473 23.6182 27.6307 23.5646 28.4658C23.5106 29.301 24.1741 29.9844 25.0393 29.9844Z" fill="#337AB7"/>
<path opacity="0.3" d="M18.6278 45.4521H47.1175C47.9822 45.4521 48.6462 46.1356 48.5922 46.9707C48.5386 47.8058 47.7869 48.4892 46.9221 48.4892H18.4324C17.5677 48.4892 16.9037 47.8058 16.9577 46.9707C17.0117 46.1356 17.763 45.4521 18.6278 45.4521Z" fill="#337AB7"/>
<path opacity="0.3" d="M24.4448 39.2368H47.5169C48.3816 39.2368 49.0456 39.9202 48.9916 40.7554C48.938 41.5905 48.1862 42.2739 47.3215 42.2739H24.2494C23.3846 42.2739 22.7207 41.5905 22.7747 40.7554C22.8283 39.9202 23.58 39.2368 24.4448 39.2368Z" fill="#337AB7"/>
<path opacity="0.3" d="M17.6433 60.7793H46.133C46.9977 60.7793 47.7495 60.0959 47.8031 59.2607C47.8566 58.4256 47.1931 57.7422 46.3284 57.7422H17.8387C16.9739 57.7422 16.2222 58.4256 16.1686 59.2607C16.1146 60.0959 16.7781 60.7793 17.6433 60.7793Z" fill="#337AB7"/>
<path opacity="0.3" d="M34.2703 66.9946H45.7334C46.5981 66.9946 47.3499 66.3112 47.4035 65.4761C47.457 64.6409 46.7935 63.9575 45.9288 63.9575H34.4656C33.6009 63.9575 32.8491 64.6409 32.7956 65.4761C32.742 66.3112 33.4055 66.9946 34.2703 66.9946Z" fill="#337AB7"/>
<path opacity="0.3" d="M22.6613 66.9946H28.7068C29.5715 66.9946 30.3233 66.3112 30.3769 65.4761C30.4304 64.6409 29.7669 63.9575 28.9022 63.9575H22.8566C21.9919 63.9575 21.2401 64.6409 21.1866 65.4761C21.133 66.3112 21.7965 66.9946 22.6613 66.9946Z" fill="#337AB7"/>
<path opacity="0.3" d="M16.454 79.2842H44.9437C45.8085 79.2842 46.5602 78.6007 46.6138 77.7656C46.6674 76.9305 46.0038 76.2471 45.1391 76.2471H16.6494C15.7847 76.2471 15.0329 76.9305 14.9793 77.7656C14.9258 78.6007 15.5893 79.2842 16.454 79.2842Z" fill="#337AB7"/>
<path opacity="0.3" d="M21.4724 85.4995H44.5445C45.4093 85.4995 46.161 84.8161 46.2146 83.981C46.2682 83.1458 45.6046 82.4624 44.7399 82.4624H21.6678C20.803 82.4624 20.0513 83.1458 19.9977 83.981C19.9437 84.8161 20.6077 85.4995 21.4724 85.4995Z" fill="#337AB7"/>
<path d="M65.1403 29.0047C64.9598 29.0047 64.777 28.9538 64.6172 28.8482L59.77 25.6506C59.3468 25.3711 59.2374 24.8133 59.5273 24.4042C59.8163 23.9956 60.393 23.8895 60.8179 24.1699L64.9589 26.9018C66.47 25.1407 70.7838 20.3651 74.3715 18.82C74.8379 18.6187 75.3889 18.8213 75.5982 19.2743C75.8071 19.7264 75.5964 20.2572 75.1278 20.459C71.211 22.1449 65.924 28.5977 65.8704 28.6625C65.6885 28.886 65.4167 29.0047 65.1403 29.0047Z" fill="#337AB7"/>
<path d="M62.8823 47.1503C62.6496 47.1503 62.4178 47.0664 62.2377 46.8991L58.0185 42.9712C57.6493 42.6273 57.6381 42.0595 57.9942 41.703C58.3507 41.3466 58.9386 41.3366 59.3072 41.6796L62.899 45.0232C64.6749 43.4894 69.6589 39.3998 73.4132 38.4081C73.9079 38.2769 74.4184 38.5594 74.5539 39.0368C74.6894 39.5146 74.3977 40.0076 73.903 40.1384C69.7967 41.2227 63.581 46.8491 63.5189 46.9056C63.3402 47.0686 63.111 47.1503 62.8823 47.1503Z" fill="#337AB7"/>
<path opacity="0.4" d="M54.9926 9.71488L56.3629 9.72793C57.8808 9.74227 59.1308 8.55586 59.1416 7.09122L59.1592 4.66711C59.1605 4.51625 59.039 4.39844 58.8824 4.39844H55.066C54.8972 4.39844 54.754 4.53538 54.7527 4.69841L54.7184 9.44622C54.7175 9.59577 54.8373 9.71315 54.9926 9.71488Z" fill="black"/>
<path d="M34.277 0H57.2627C58.6888 0 59.6981 1.12685 59.5054 2.50367L58.814 7.44972C58.6213 8.82698 57.2974 9.95382 55.8713 9.95382H32.8856C31.4595 9.95382 30.4503 8.82698 30.643 7.44972L31.3344 2.50367C31.5266 1.12685 32.851 0 34.277 0Z" fill="#337AB7"/>
<path opacity="0.6" d="M34.277 0H57.2627C58.6888 0 59.6981 1.12685 59.5054 2.50367L58.814 7.44972C58.6213 8.82698 57.2974 9.95382 55.8713 9.95382H32.8856C31.4595 9.95382 30.4503 8.82698 30.643 7.44972L31.3344 2.50367C31.5266 1.12685 32.851 0 34.277 0Z" fill="white"/>
<path opacity="0.5" d="M56.6658 2.39196H46.3339C45.9495 2.39196 45.6375 2.09112 45.6375 1.71942C45.6375 1.34815 45.949 1.04688 46.3339 1.04688H56.6658C57.0502 1.04688 57.3622 1.34772 57.3622 1.71942C57.3622 2.09069 57.0507 2.39196 56.6658 2.39196Z" fill="white"/>
<path opacity="0.5" d="M42.8709 2.39196H41.7806C41.3962 2.39196 41.0842 2.09112 41.0842 1.71942C41.0842 1.34815 41.3957 1.04688 41.7806 1.04688H42.8709C43.2553 1.04688 43.5673 1.34772 43.5673 1.71942C43.5673 2.09069 43.2553 2.39196 42.8709 2.39196Z" fill="white"/>
</svg>
